<?xml version="1.0" encoding="UTF-8" standalone="no"?>
<!-- Created with Inkscape (http://www.inkscape.org/) -->

<svg
   xmlns:dc="http://purl.org/dc/elements/1.1/"
   xmlns:cc="http://creativecommons.org/ns#"
   xmlns:rdf="http://www.w3.org/1999/02/22-rdf-syntax-ns#"
   xmlns:svg="http://www.w3.org/2000/svg"
   xmlns="http://www.w3.org/2000/svg"
   xmlns:sodipodi="http://sodipodi.sourceforge.net/DTD/sodipodi-0.dtd"
   xmlns:inkscape="http://www.inkscape.org/namespaces/inkscape"
   width="744.09448819"
   height="1052.3622047"
   id="svg2"
   version="1.1"
   inkscape:version="0.48.5 r10040"
   sodipodi:docname="0.svg"
   inkscape:export-filename="/home/test/Programming/go/src/github.com/gragas/jabberwock-lib/assets/soul/stationary/3.png"
   inkscape:export-xdpi="90"
   inkscape:export-ydpi="90">
  <defs
     id="defs4" />
  <sodipodi:namedview
     id="base"
     pagecolor="#ffffff"
     bordercolor="#666666"
     borderopacity="1.0"
     inkscape:pageopacity="0.0"
     inkscape:pageshadow="2"
     inkscape:zoom="3.959798"
     inkscape:cx="331.68843"
     inkscape:cy="575.16986"
     inkscape:document-units="px"
     inkscape:current-layer="layer1"
     showgrid="false"
     inkscape:window-width="1920"
     inkscape:window-height="1014"
     inkscape:window-x="0"
     inkscape:window-y="27"
     inkscape:window-maximized="1" />
  <metadata
     id="metadata7">
    <rdf:RDF>
      <cc:Work
         rdf:about="">
        <dc:format>image/svg+xml</dc:format>
        <dc:type
           rdf:resource="http://purl.org/dc/dcmitype/StillImage" />
        <dc:title></dc:title>
      </cc:Work>
    </rdf:RDF>
  </metadata>
  <g
     inkscape:label="Layer 1"
     inkscape:groupmode="layer"
     id="layer1">
    <path
       style="fill:#0000ff;fill-opacity:1"
       id="path3004"
       d="m 334.01716,449.57351 c 0.33966,-1.02082 0.73105,-2.01244 1.23321,-2.96408 0.52836,-0.98717 1.35687,-1.69615 2.28849,-2.28375 1.69298,-1.31772 3.57597,-1.98551 5.45553,-2.85069 0.54536,-0.19954 1.08644,-0.40793 1.65836,-0.51798 0.58356,-0.0305 1.14782,-0.17886 1.72534,-0.25844 0.63451,-0.12295 1.23497,0.0654 1.82996,0.2724 0.66074,0.18561 1.23494,0.56806 1.80487,0.93715 0.55708,0.36444 1.0332,0.81852 1.42938,1.35108 0.41079,0.49735 0.67855,1.06625 0.91596,1.66028 0.2234,0.59339 0.37904,1.20725 0.55893,1.81439 0.16956,0.54968 0.23904,1.1191 0.26913,1.6912 0.0572,0.60332 -0.0166,1.18897 -0.1797,1.76891 -0.13923,0.53206 -0.32338,1.04724 -0.61037,1.5173 -0.25366,0.42805 -0.49539,0.86479 -0.69823,1.31935 -0.1885,0.48233 -0.44897,0.92241 -0.7739,1.32396 -1.11863,1.08283 -2.69619,1.743 -3.98051,2.46304 -0.13541,0.0759 -0.29672,0.0928 -0.44018,0.15207 -0.48811,0.12743 -0.97189,0.27237 -1.46511,0.38165 -0.50706,0.0993 -1.02462,0.11375 -1.53956,0.12377 -0.50662,0.006 -1.01329,0.003 -1.51993,0.002 -0.50505,-0.001 -1.0101,-0.002 -1.51515,-0.002 -0.50166,-0.0435 -0.95955,-0.22456 -1.43558,-0.3669 -0.42736,-0.197 -0.81355,-0.46429 -1.20428,-0.72425 -0.53682,-0.26616 -0.99407,-0.63568 -1.40633,-1.06524 -0.38368,-0.4097 -0.70378,-0.8869 -0.95047,-1.39106 -0.27933,-0.40835 -0.34295,-0.89827 -0.46822,-1.36356 -0.15273,-0.4428 -0.22132,-0.90332 -0.26071,-1.36794 -0.0325,-0.49968 -0.0314,-1.00073 -0.0321,-1.50123 0.004,-0.49382 -0.0253,-0.98759 0.0553,-1.47643 0.067,-0.41256 0.1572,-0.81396 0.36158,-1.1812 0.10662,-0.24029 0.30901,-0.38715 0.50093,-0.55284 0,0 3.5006,-1.38133 3.5006,-1.38133 l 0,0 c -0.2018,0.11466 -0.38567,0.25731 -0.56513,0.40145 -0.21128,0.36377 -0.38283,0.63119 -0.41617,1.0736 -0.11029,0.46733 -0.10403,0.93255 -0.0927,1.41246 -1e-4,0.49184 -0.002,0.98401 0.0211,1.47543 0.0288,0.44151 0.0791,0.88135 0.2265,1.30162 0.12881,0.44279 0.16129,0.91708 0.43646,1.30685 0.22048,0.47169 0.51809,0.916 0.88025,1.29006 0.40329,0.40491 0.86324,0.72187 1.36673,0.99266 0.37054,0.23567 0.73443,0.49121 1.15297,0.63594 0.44373,0.14688 0.89355,0.27504 1.36612,0.27583 0.50514,3.8e-4 1.01028,0.001 1.51542,0.002 0.50422,7.2e-4 1.00859,0.003 1.51265,-0.012 0.50155,-0.0213 1.00471,-0.0567 1.49202,-0.18626 0.48162,-0.12943 0.97232,-0.23566 1.43462,-0.42587 1.17598,-0.46141 2.93636,-1.64553 -2.59702,1.57347 -0.0668,0.0389 0.13143,-0.0813 0.19714,-0.12197 0.25695,-0.21462 0.12113,-0.11505 0.40809,-0.29787 0.36906,-0.33648 0.61518,-0.74729 0.82855,-1.19524 0.17369,-0.48402 0.43178,-0.92563 0.66945,-1.37997 0.0895,-0.13929 0.19761,-0.26643 0.28149,-0.40915 0.182,-0.30966 0.26296,-0.68064 0.37513,-1.01744 0.16992,-0.54352 0.30608,-1.079 0.23659,-1.65596 -0.0247,-0.5443 -0.0693,-1.08918 -0.22483,-1.6145 -0.17346,-0.59782 -0.33195,-1.19881 -0.5418,-1.78521 -0.21997,-0.56607 -0.47714,-1.10158 -0.86826,-1.57256 -0.37298,-0.49597 -0.82977,-0.90691 -1.35616,-1.23767 -0.55247,-0.34783 -1.10738,-0.69451 -1.74766,-0.85818 -0.57938,-0.16637 -1.13913,-0.26738 -1.73806,-0.127 -0.57015,0.0946 -1.13995,0.19002 -1.70997,0.28262 -0.54687,0.1482 -1.08194,0.34519 -1.60095,0.57177 -1.34099,0.62618 -4.72036,2.06576 0.94257,-0.81488 -0.93916,0.52938 -1.80954,1.15893 -2.37419,2.10255 -0.50665,0.92317 -0.93472,1.87383 -1.22485,2.88968 0,0 -3.39328,1.59361 -3.39328,1.59361 z"
       inkscape:connector-curvature="0" />
    <path
       style="fill:#0000ff;fill-opacity:1"
       id="path3006"
       d="m 345.39601,456.78439 c 0.0434,0.90935 0.15247,1.80922 0.29742,2.70708 0.1031,0.66259 0.15175,1.33133 0.17704,2.00084 0.0155,0.52125 0.014,1.04281 0.0135,1.56424 -0.001,0.5139 -1.4e-4,1.02781 -0.004,1.5417 -0.0107,0.57553 0.0204,1.15201 -0.0205,1.72642 -0.0966,0.61656 -0.16534,1.23544 -0.20164,1.85835 -0.0277,0.55965 -0.0297,1.1201 -0.0309,1.6803 -1.5e-4,0.50784 9.1e-4,1.01569 0.001,1.52353 0.002,0.53921 3.8e-4,1.07838 -0.004,1.61757 -3.6e-4,0.64835 4e-5,1.29671 6e-5,1.94506 0.003,0.59972 0.002,1.19943 10e-4,1.79915 4.4e-4,0.56459 0.002,1.12918 0.003,1.69378 5.9e-4,0.51021 6.7e-4,1.02043 7.2e-4,1.53065 -0.006,0.38873 -0.0135,0.77235 0.0572,1.15542 0,0 -3.31503,1.77155 -3.31503,1.77155 l 0,0 c -0.0854,-0.40636 -0.10763,-0.80728 -0.0866,-1.22291 5e-5,-0.51046 1.3e-4,-1.02092 7.2e-4,-1.53138 7.5e-4,-0.56548 0.002,-1.13096 0.003,-1.69644 -5.7e-4,-0.60006 -0.002,-1.20011 0.001,-1.80018 3e-5,-0.64836 4.4e-4,-1.29671 3e-5,-1.94507 -0.004,-0.5376 -0.006,-1.07518 -0.005,-1.6128 -4.1e-4,-0.50842 -0.001,-1.01683 -8.2e-4,-1.52525 0.001,-0.56717 0.004,-1.13452 0.0292,-1.70124 0.0317,-0.6278 0.0779,-1.25449 0.18616,-1.87457 0.0884,-0.55727 0.0194,-1.12746 0.0405,-1.68991 -0.003,-0.51339 -6.4e-4,-1.02679 4e-5,-1.54018 0.001,-0.51854 0.004,-1.03712 -0.004,-1.55562 -0.0149,-0.65747 -0.0472,-1.31527 -0.1428,-1.96672 -0.13351,-0.9025 -0.24027,-1.80477 -0.31914,-2.71374 0,0 3.3228,-1.73963 3.3228,-1.73963 z"
       inkscape:connector-curvature="0" />
    <path
       style="fill:#0000ff;fill-opacity:1"
       id="path3022"
       d="m 345.0346,481.11778 c -0.38909,0.91937 -0.73239,1.85665 -1.11418,2.77909 -0.2322,0.59187 -0.50074,1.16851 -0.75656,1.75046 -0.2315,0.48029 -0.4162,0.98034 -0.62077,1.4722 -0.20921,0.47844 -0.36983,0.97539 -0.60273,1.44342 -0.23135,0.38327 -0.45334,0.77256 -0.68728,1.15486 -0.27394,0.40076 -0.50521,0.82659 -0.75431,1.2428 -0.24423,0.44211 -0.52334,0.86367 -0.75559,1.31213 -0.20302,0.38897 -0.39539,0.7848 -0.61271,1.166 -0.17441,0.34422 -0.36634,0.6735 -0.46992,1.047 -0.14812,0.49535 0.12456,0.85879 0.36545,1.26826 0.37363,0.45587 0.62084,0.99146 0.92114,1.494 0.39876,0.62178 0.69755,1.30006 1.07303,1.93447 0.25414,0.44993 0.46845,0.91876 0.71928,1.37041 0.17306,0.42055 0.41157,0.80772 0.60223,1.2191 0.18931,0.40957 0.40452,0.80411 0.60185,1.21 0.21784,0.46467 0.45173,0.92543 0.70506,1.37188 0,0 -3.25343,1.87275 -3.25343,1.87275 l 0,0 c -0.25195,-0.455 -0.4929,-0.91869 -0.71712,-1.38774 -0.20322,-0.40682 -0.41163,-0.80937 -0.60914,-1.21887 -0.18146,-0.40521 -0.42179,-0.78157 -0.58708,-1.19517 -0.2462,-0.45133 -0.4608,-0.91678 -0.70345,-1.36995 -0.36343,-0.6393 -0.66175,-1.31559 -1.07137,-1.92902 -0.30232,-0.50252 -0.55796,-1.03282 -0.92462,-1.49476 -0.27982,-0.47134 -0.62048,-0.93273 -0.50738,-1.51175 0.0758,-0.44432 0.21672,-0.75212 0.42348,-1.14287 0.20413,-0.38985 0.43265,-0.76519 0.62023,-1.16326 0.24113,-0.44932 0.48157,-0.89168 0.75327,-1.32385 0.22909,-0.42567 0.46522,-0.85659 0.75192,-1.24446 0.21084,-0.38848 0.43098,-0.78105 0.69443,-1.13408 0.23481,-0.46537 0.44916,-0.93304 0.61438,-1.42986 0.22888,-0.48036 0.37545,-0.99375 0.62279,-1.46551 0.24249,-0.5951 0.54166,-1.16356 0.77964,-1.75984 0.38965,-0.9161 0.76785,-1.83634 1.09232,-2.77766 0,0 3.40714,-1.56018 3.40714,-1.56018 z"
       inkscape:connector-curvature="0" />
    <path
       style="fill:#0000ff;fill-opacity:1"
       id="path3024"
       d="m 345.64768,479.54581 c 0.12457,1.18447 0.47327,2.3302 0.77617,3.47781 0.25523,0.9226 0.56016,1.82965 0.84478,2.74316 0.26977,0.74404 0.48934,1.50366 0.72344,2.25904 0.24396,0.56799 0.43808,1.1536 0.63748,1.73804 0.17506,0.6497 0.28229,1.31522 0.42761,1.97167 0.1301,0.61973 0.28982,1.23255 0.42429,1.85108 0.10661,0.61682 0.26984,1.22212 0.41214,1.83131 0.19139,0.62555 0.33891,1.26247 0.51882,1.89109 0.13121,0.55069 0.28916,1.09361 0.38974,1.65112 0.0774,0.56497 0.21912,1.11717 0.30058,1.68168 0.0534,0.516 0.1827,1.01894 0.25511,1.53247 0.0545,0.48806 0.0458,0.97941 0.19737,1.45066 0.17298,0.4173 0.26478,0.86243 0.45831,1.27109 0.16121,0.3942 0.3829,0.75657 0.58271,1.13141 0.263,0.45611 0.50645,0.91984 0.67234,1.42033 0.1364,0.3584 0.29665,0.70667 0.47028,1.04839 0,0 -3.25993,1.86132 -3.25993,1.86132 l 0,0 c -0.18698,-0.35856 -0.35698,-0.72529 -0.49983,-1.10384 -0.14695,-0.48358 -0.38779,-0.92347 -0.64311,-1.35807 -0.2035,-0.37949 -0.4312,-0.7453 -0.59086,-1.1468 -0.20206,-0.42203 -0.30865,-0.87578 -0.47911,-1.3104 -0.17298,-0.49181 -0.20192,-0.99936 -0.2297,-1.51651 -0.0629,-0.51561 -0.19561,-1.01732 -0.25325,-1.5324 -0.0697,-0.56294 -0.21169,-1.11045 -0.29,-1.67122 -0.0904,-0.54744 -0.25561,-1.07435 -0.37186,-1.61621 -0.17808,-0.63552 -0.31895,-1.27985 -0.51973,-1.90926 -0.14602,-0.61036 -0.31961,-1.21585 -0.42119,-1.83573 -0.12945,-0.61865 -0.29476,-1.2288 -0.41487,-1.8498 -0.15174,-0.64167 -0.25833,-1.29376 -0.42021,-1.93322 -0.19586,-0.58935 -0.3839,-1.18103 -0.63079,-1.75191 -0.23499,-0.75586 -0.44268,-1.51999 -0.71701,-2.26361 -0.28016,-0.92218 -0.5837,-1.83708 -0.83151,-2.76906 -0.29843,-1.16492 -0.63566,-2.32289 -0.83928,-3.50955 0,0 3.32107,-1.73408 3.32107,-1.73408 z"
       inkscape:connector-curvature="0" />
    <path
       style="fill:#0000ff;fill-opacity:1"
       id="path3026"
       d="m 346.73824,463.75212 c 0.47241,0.79992 1.00691,1.56029 1.56626,2.30148 0.34604,0.54928 0.79808,1.01694 1.16914,1.54735 0.34951,0.48004 0.68609,0.96548 1.00006,1.46976 0.28099,0.45304 0.55905,0.90625 0.82906,1.36602 0.25929,0.42544 0.45387,0.87728 0.71812,1.29985 0.18267,0.37044 0.43601,0.69561 0.67998,1.02647 0.2419,0.34502 0.467,0.69849 0.6822,1.06118 0.21388,0.34874 0.49744,0.65111 0.83596,0.88074 0.42291,0.16091 0.79095,0.29754 0.9945,0.72784 0.13976,0.40367 -5.6e-4,0.78445 -0.0981,1.17672 -0.10976,0.55416 -0.12618,1.12058 -0.13941,1.6836 -0.0234,0.68186 0.0111,1.36491 -0.0315,2.04583 -0.0704,0.55406 -0.1494,1.10616 -0.19059,1.66338 -0.0169,0.25103 -0.0226,0.50256 -0.0285,0.75401 0,0 -3.34773,1.69748 -3.34773,1.69748 l 0,0 c 0.004,-0.25678 0.008,-0.51362 0.0214,-0.77013 0.0335,-0.56221 0.0979,-1.12087 0.19428,-1.67599 0.0839,-0.66944 0.0174,-1.34754 0.0415,-2.02085 0.0103,-0.58045 0.0169,-1.16277 0.10074,-1.73843 0.0519,-0.33343 0.20926,-0.63602 0.19061,-0.97185 -0.10318,-0.34304 -0.64982,-0.33031 -0.88012,-0.55983 -0.36131,-0.28201 -0.67893,-0.61499 -0.91825,-1.00825 -0.20803,-0.35165 -0.42307,-0.69588 -0.66095,-1.02811 -0.25265,-0.33706 -0.50557,-0.67598 -0.69233,-1.05536 -0.26415,-0.42704 -0.46284,-0.88062 -0.72254,-1.30951 -0.26566,-0.45833 -0.54145,-0.90978 -0.81886,-1.36091 -0.30716,-0.50065 -0.64619,-0.97568 -0.99188,-1.45002 -0.3677,-0.5263 -0.80697,-0.99981 -1.14416,-1.54862 -0.5579,-0.75563 -1.08134,-1.53494 -1.59917,-2.31796 0,0 3.24022,-1.88589 3.24022,-1.88589 z"
       inkscape:connector-curvature="0" />
    <path
       style="fill:#0000ff;fill-opacity:1"
       id="path3028"
       d="m 344.76342,463.68609 c -0.50827,0.80031 -0.94626,1.64124 -1.41865,2.46229 -0.33685,0.65077 -0.77236,1.24028 -1.14872,1.86687 -0.3373,0.56963 -0.61228,1.17021 -0.87413,1.777 -0.3015,0.64646 -0.58535,1.30107 -0.8913,1.94543 -0.27853,0.58282 -0.56895,1.15991 -0.85953,1.73681 -0.25617,0.51008 -0.51202,1.02033 -0.76771,1.53067 -0.24547,0.47165 -0.42998,0.97124 -0.61442,1.46886 -0.20824,0.40887 -0.29123,0.85854 -0.41132,1.29673 -0.0969,0.44005 -0.28152,0.85052 -0.38255,1.28921 -0.10835,0.49398 -0.25853,0.97667 -0.40094,1.46139 -0.13803,0.48003 -0.17348,0.97841 -0.19497,1.47475 0.007,0.24058 -0.0243,0.47691 -0.0649,0.71297 0,0 -3.38242,1.63902 -3.38242,1.63902 l 0,0 c 0.0517,-0.21894 0.12135,-0.43088 0.0969,-0.65986 0.0146,-0.5208 0.0376,-1.04444 0.15715,-1.55377 0.12443,-0.48163 0.28826,-0.95048 0.40933,-1.43318 0.0738,-0.45873 0.24159,-0.87483 0.37292,-1.31507 0.12101,-0.45127 0.19626,-0.91678 0.38842,-1.34509 0.24003,-0.47985 0.35639,-1.01888 0.60832,-1.49636 0.27264,-0.50219 0.51182,-1.02216 0.76942,-1.53205 0.3087,-0.56766 0.58392,-1.15366 0.87106,-1.73234 0.32395,-0.63093 0.58582,-1.29139 0.89401,-1.92998 0.2789,-0.61 0.51777,-1.23799 0.85842,-1.81875 0.37404,-0.6338 0.80512,-1.22547 1.16029,-1.87128 0.4917,-0.80473 0.92095,-1.64631 1.39501,-2.46138 0,0 3.43027,-1.51289 3.43027,-1.51289 z"
       inkscape:connector-curvature="0" />
  </g>
</svg>
