<?xml version="1.0" encoding="UTF-8" standalone="no"?>
<!-- Created with Inkscape (http://www.inkscape.org/) -->

<svg
   xmlns:dc="http://purl.org/dc/elements/1.1/"
   xmlns:cc="http://creativecommons.org/ns#"
   xmlns:rdf="http://www.w3.org/1999/02/22-rdf-syntax-ns#"
   xmlns:svg="http://www.w3.org/2000/svg"
   xmlns="http://www.w3.org/2000/svg"
   xmlns:sodipodi="http://sodipodi.sourceforge.net/DTD/sodipodi-0.dtd"
   xmlns:inkscape="http://www.inkscape.org/namespaces/inkscape"
   width="744.09448819"
   height="1052.3622047"
   id="svg2"
   version="1.1"
   inkscape:version="0.48.5 r10040"
   sodipodi:docname="2.svg"
   inkscape:export-filename="/home/test/Programming/go/src/github.com/gragas/jabberwock-lib/assets/soul/movingDown/2.png"
   inkscape:export-xdpi="90"
   inkscape:export-ydpi="90">
  <defs
     id="defs4" />
  <sodipodi:namedview
     id="base"
     pagecolor="#ffffff"
     bordercolor="#666666"
     borderopacity="1.0"
     inkscape:pageopacity="0.0"
     inkscape:pageshadow="2"
     inkscape:zoom="3.959798"
     inkscape:cx="382.86605"
     inkscape:cy="572.56244"
     inkscape:document-units="px"
     inkscape:current-layer="layer1"
     showgrid="false"
     inkscape:window-width="1920"
     inkscape:window-height="1014"
     inkscape:window-x="0"
     inkscape:window-y="27"
     inkscape:window-maximized="1" />
  <metadata
     id="metadata7">
    <rdf:RDF>
      <cc:Work
         rdf:about="">
        <dc:format>image/svg+xml</dc:format>
        <dc:type
           rdf:resource="http://purl.org/dc/dcmitype/StillImage" />
        <dc:title />
      </cc:Work>
    </rdf:RDF>
  </metadata>
  <g
     inkscape:label="Layer 1"
     inkscape:groupmode="layer"
     id="layer1">
    <path
       style="fill:#0000ff;fill-opacity:1"
       id="path3004"
       d="m 334.01716,449.57351 c 0.33966,-1.02082 0.73105,-2.01244 1.23321,-2.96408 0.52836,-0.98717 1.35687,-1.69615 2.28849,-2.28375 1.69298,-1.31772 3.57597,-1.98551 5.45553,-2.85069 0.54536,-0.19954 1.08644,-0.40793 1.65836,-0.51798 0.58356,-0.0305 1.14782,-0.17886 1.72534,-0.25844 0.63451,-0.12295 1.23497,0.0654 1.82996,0.2724 0.66074,0.18561 1.23494,0.56806 1.80487,0.93715 0.55708,0.36444 1.0332,0.81852 1.42938,1.35108 0.41079,0.49735 0.67855,1.06625 0.91596,1.66028 0.2234,0.59339 0.37904,1.20725 0.55893,1.81439 0.16956,0.54968 0.23904,1.1191 0.26913,1.6912 0.0572,0.60332 -0.0166,1.18897 -0.1797,1.76891 -0.13923,0.53206 -0.32338,1.04724 -0.61037,1.5173 -0.25366,0.42805 -0.49539,0.86479 -0.69823,1.31935 -0.1885,0.48233 -0.44897,0.92241 -0.7739,1.32396 -1.11863,1.08283 -2.69619,1.743 -3.98051,2.46304 -0.13541,0.0759 -0.29672,0.0928 -0.44018,0.15207 -0.48811,0.12743 -0.97189,0.27237 -1.46511,0.38165 -0.50706,0.0993 -1.02462,0.11375 -1.53956,0.12377 -0.50662,0.006 -1.01329,0.003 -1.51993,0.002 -0.50505,-0.001 -1.0101,-0.002 -1.51515,-0.002 -0.50166,-0.0435 -0.95955,-0.22456 -1.43558,-0.3669 -0.42736,-0.197 -0.81355,-0.46429 -1.20428,-0.72425 -0.53682,-0.26616 -0.99407,-0.63568 -1.40633,-1.06524 -0.38368,-0.4097 -0.70378,-0.8869 -0.95047,-1.39106 -0.27933,-0.40835 -0.34295,-0.89827 -0.46822,-1.36356 -0.15273,-0.4428 -0.22132,-0.90332 -0.26071,-1.36794 -0.0325,-0.49968 -0.0314,-1.00073 -0.0321,-1.50123 0.004,-0.49382 -0.0253,-0.98759 0.0553,-1.47643 0.067,-0.41256 0.1572,-0.81396 0.36158,-1.1812 0.10662,-0.24029 0.30901,-0.38715 0.50093,-0.55284 0,0 3.5006,-1.38133 3.5006,-1.38133 l 0,0 c -0.2018,0.11466 -0.38567,0.25731 -0.56513,0.40145 -0.21128,0.36377 -0.38283,0.63119 -0.41617,1.0736 -0.11029,0.46733 -0.10403,0.93255 -0.0927,1.41246 -1e-4,0.49184 -0.002,0.98401 0.0211,1.47543 0.0288,0.44151 0.0791,0.88135 0.2265,1.30162 0.12881,0.44279 0.16129,0.91708 0.43646,1.30685 0.22048,0.47169 0.51809,0.916 0.88025,1.29006 0.40329,0.40491 0.86324,0.72187 1.36673,0.99266 0.37054,0.23567 0.73443,0.49121 1.15297,0.63594 0.44373,0.14688 0.89355,0.27504 1.36612,0.27583 0.50514,3.8e-4 1.01028,0.001 1.51542,0.002 0.50422,7.2e-4 1.00859,0.003 1.51265,-0.012 0.50155,-0.0213 1.00471,-0.0567 1.49202,-0.18626 0.48162,-0.12943 0.97232,-0.23566 1.43462,-0.42587 1.17598,-0.46141 2.93636,-1.64553 -2.59702,1.57347 -0.0668,0.0389 0.13143,-0.0813 0.19714,-0.12197 0.25695,-0.21462 0.12113,-0.11505 0.40809,-0.29787 0.36906,-0.33648 0.61518,-0.74729 0.82855,-1.19524 0.17369,-0.48402 0.43178,-0.92563 0.66945,-1.37997 0.0895,-0.13929 0.19761,-0.26643 0.28149,-0.40915 0.182,-0.30966 0.26296,-0.68064 0.37513,-1.01744 0.16992,-0.54352 0.30608,-1.079 0.23659,-1.65596 -0.0247,-0.5443 -0.0693,-1.08918 -0.22483,-1.6145 -0.17346,-0.59782 -0.33195,-1.19881 -0.5418,-1.78521 -0.21997,-0.56607 -0.47714,-1.10158 -0.86826,-1.57256 -0.37298,-0.49597 -0.82977,-0.90691 -1.35616,-1.23767 -0.55247,-0.34783 -1.10738,-0.69451 -1.74766,-0.85818 -0.57938,-0.16637 -1.13913,-0.26738 -1.73806,-0.127 -0.57015,0.0946 -1.13995,0.19002 -1.70997,0.28262 -0.54687,0.1482 -1.08194,0.34519 -1.60095,0.57177 -1.34099,0.62618 -4.72036,2.06576 0.94257,-0.81488 -0.93916,0.52938 -1.80954,1.15893 -2.37419,2.10255 -0.50665,0.92317 -0.93472,1.87383 -1.22485,2.88968 0,0 -3.39328,1.59361 -3.39328,1.59361 z"
       inkscape:connector-curvature="0" />
    <path
       style="fill:#0000ff;fill-opacity:1"
       id="path3006"
       d="m 345.39601,456.78439 c 0.0434,0.90935 0.15247,1.80922 0.29742,2.70708 0.1031,0.66259 0.15175,1.33133 0.17704,2.00084 0.0155,0.52125 0.014,1.04281 0.0135,1.56424 -0.001,0.5139 -1.4e-4,1.02781 -0.004,1.5417 -0.0107,0.57553 0.0204,1.15201 -0.0205,1.72642 -0.0966,0.61656 -0.16534,1.23544 -0.20164,1.85835 -0.0277,0.55965 -0.0297,1.1201 -0.0309,1.6803 -1.5e-4,0.50784 9.1e-4,1.01569 0.001,1.52353 0.002,0.53921 3.8e-4,1.07838 -0.004,1.61757 -3.6e-4,0.64835 4e-5,1.29671 6e-5,1.94506 0.003,0.59972 0.002,1.19943 10e-4,1.79915 4.4e-4,0.56459 0.002,1.12918 0.003,1.69378 5.9e-4,0.51021 6.7e-4,1.02043 7.2e-4,1.53065 -0.006,0.38873 -0.0135,0.77235 0.0572,1.15542 0,0 -3.31503,1.77155 -3.31503,1.77155 l 0,0 c -0.0854,-0.40636 -0.10763,-0.80728 -0.0866,-1.22291 5e-5,-0.51046 1.3e-4,-1.02092 7.2e-4,-1.53138 7.5e-4,-0.56548 0.002,-1.13096 0.003,-1.69644 -5.7e-4,-0.60006 -0.002,-1.20011 0.001,-1.80018 3e-5,-0.64836 4.4e-4,-1.29671 3e-5,-1.94507 -0.004,-0.5376 -0.006,-1.07518 -0.005,-1.6128 -4.1e-4,-0.50842 -0.001,-1.01683 -8.2e-4,-1.52525 0.001,-0.56717 0.004,-1.13452 0.0292,-1.70124 0.0317,-0.6278 0.0779,-1.25449 0.18616,-1.87457 0.0884,-0.55727 0.0194,-1.12746 0.0405,-1.68991 -0.003,-0.51339 -6.4e-4,-1.02679 4e-5,-1.54018 0.001,-0.51854 0.004,-1.03712 -0.004,-1.55562 -0.0149,-0.65747 -0.0472,-1.31527 -0.1428,-1.96672 -0.13351,-0.9025 -0.24027,-1.80477 -0.31914,-2.71374 0,0 3.3228,-1.73963 3.3228,-1.73963 z"
       inkscape:connector-curvature="0" />
    <path
       style="fill:#0000ff;fill-opacity:1"
       id="path3110"
       d="m 345.30621,481.12698 c -0.32763,0.89904 -0.60064,1.81642 -0.93244,2.71392 -0.25595,0.64313 -0.45019,1.3077 -0.64248,1.97175 -0.16532,0.54222 -0.34952,1.07784 -0.50967,1.6216 -0.22676,0.61902 -0.41525,1.25136 -0.6605,1.8635 -0.21201,0.45155 -0.41064,0.90855 -0.58675,1.3752 -0.19288,0.5542 -0.3689,1.11769 -0.49837,1.69052 -0.12601,0.71382 -0.21614,1.43378 -0.34197,2.14741 -0.13979,0.54528 -0.20364,1.10349 -0.29107,1.65792 -0.11601,0.49226 -0.19244,0.99013 -0.23311,1.49386 -0.0512,0.54942 -0.21039,1.07821 -0.33935,1.61202 -0.11526,0.62342 -0.21226,1.24987 -0.35481,1.86809 -0.16121,0.52443 -0.24063,1.06742 -0.3704,1.59925 -0.079,0.46298 -0.22753,0.90697 -0.34758,1.35944 -0.14593,0.44878 -0.23579,0.91379 -0.38305,1.36174 -0.10431,0.39957 -0.25527,0.78414 -0.37205,1.17961 -0.14026,0.39823 -0.25929,0.80307 -0.38886,1.20515 -0.14308,0.48073 -0.3104,0.95108 -0.40843,1.44375 -0.0838,0.49194 -0.0919,0.99202 -0.0988,1.48968 0.0239,0.45921 -0.0998,0.90372 -0.16985,1.35334 0,0 -3.37083,1.66011 -3.37083,1.66011 l 0,0 c 0.0526,-0.44137 0.18667,-0.86993 0.19456,-1.31289 0.004,-0.51538 0.007,-1.03236 0.0718,-1.54449 0.078,-0.51154 0.22917,-0.99567 0.38461,-1.4868 0.12151,-0.39814 0.21299,-0.80803 0.39517,-1.18384 0.0877,-0.41696 0.2733,-0.79188 0.35963,-1.20843 0.15532,-0.43849 0.24673,-0.88767 0.39944,-1.32806 0.0947,-0.46435 0.28818,-0.89531 0.35054,-1.36696 0.13545,-0.53384 0.21868,-1.07632 0.37371,-1.60567 0.17838,-0.60566 0.26208,-1.23447 0.35968,-1.85671 0.11051,-0.52249 0.27018,-1.02996 0.35858,-1.5576 0.0306,-0.51686 0.0838,-1.0327 0.21412,-1.53539 0.12816,-0.54808 0.12681,-1.12341 0.29841,-1.66496 0.16198,-0.70383 0.23006,-1.43102 0.34028,-2.14415 0.10079,-0.59804 0.30614,-1.16574 0.46139,-1.75061 0.19694,-0.46347 0.34697,-0.94652 0.58219,-1.39433 0.30469,-0.57516 0.43531,-1.22006 0.68395,-1.81973 0.17555,-0.54031 0.32002,-1.08914 0.50979,-1.62564 0.23206,-0.65891 0.36731,-1.35302 0.64385,-1.99822 0.36085,-0.87615 0.62311,-1.78673 0.93374,-2.68118 0,0 3.38487,-1.6022 3.38487,-1.6022 z"
       inkscape:connector-curvature="0" />
    <path
       style="fill:#0000ff;fill-opacity:1"
       id="path3114"
       d="m 345.2685,462.92847 c -0.52515,0.79392 -1.0877,1.56178 -1.62178,2.34972 -0.44697,0.62402 -0.82962,1.28548 -1.15833,1.97806 -0.24382,0.55368 -0.54863,1.07563 -0.87339,1.58474 -0.25529,0.40389 -0.48089,0.82863 -0.65321,1.27442 -0.19767,0.47929 -0.48608,0.9129 -0.68687,1.3901 -0.20153,0.55714 -0.51996,1.06044 -0.78492,1.58856 -0.23384,0.50746 -0.51673,0.98937 -0.76155,1.49106 -0.22579,0.47053 -0.44564,0.94391 -0.68226,1.40914 -0.20885,0.37036 -0.46573,0.70052 -0.63675,1.09111 -0.19122,0.38067 -0.35539,0.77619 -0.47372,1.18551 -0.11794,0.46498 -0.36237,0.87952 -0.53324,1.32576 -0.17122,0.43055 -0.28493,0.87965 -0.43149,1.31894 -0.15625,0.37877 -0.30715,0.74637 -0.37915,1.15169 -0.0548,0.4693 -0.0845,0.94557 -0.0473,1.41713 0.0465,0.51476 0.21288,0.99759 0.39676,1.47608 0.17815,0.44351 0.35421,0.88377 0.5101,1.33617 0.15898,0.48128 0.30159,0.96807 0.46561,1.44772 0.16636,0.50307 0.30681,1.01541 0.44183,1.52795 0.12845,0.50785 0.16182,1.03103 0.18166,1.55233 0.009,0.067 0.0172,0.13396 0.0258,0.20095 0,0 -3.32088,1.75751 -3.32088,1.75751 l 0,0 c -0.0146,-0.0813 -0.0292,-0.16253 -0.0438,-0.24379 -0.0126,-0.49585 -0.0313,-0.99454 -0.14228,-1.48009 -0.12555,-0.50409 -0.27237,-1.00359 -0.42568,-1.49947 -0.17184,-0.47612 -0.30897,-0.96439 -0.4685,-1.44465 -0.16309,-0.44573 -0.31852,-0.89207 -0.50121,-1.33023 -0.19481,-0.50656 -0.38564,-1.01343 -0.44377,-1.55787 -0.0735,-0.49687 -0.0309,-1.00182 -1.6e-4,-1.5017 0.0472,-0.42127 0.11671,-0.84146 0.35305,-1.20383 0.12789,-0.45458 0.29816,-0.89321 0.42034,-1.34993 0.0931,-0.21719 0.15237,-0.44469 0.25385,-0.65812 0.0645,-0.13561 0.16084,-0.2546 0.22403,-0.39081 0.0339,-0.0732 0.0519,-0.15275 0.0778,-0.22912 0.0936,-0.43858 0.25229,-0.85148 0.43222,-1.26072 0.10972,-0.18395 0.1531,-0.38222 0.25943,-0.5678 0.19976,-0.34865 0.0313,-0.009 0.25819,-0.3352 0.0458,-0.0659 0.0784,-0.14003 0.11765,-0.21005 0.28659,-0.42948 0.46503,-0.92559 0.69138,-1.38823 0.25856,-0.49728 0.51276,-0.99273 0.7736,-1.48909 0.24444,-0.52947 0.54469,-1.02411 0.7905,-1.55018 0.15769,-0.50094 0.43145,-0.94404 0.68617,-1.39887 0.032,-0.0817 0.0641,-0.1634 0.0961,-0.2451 0.0245,-0.0831 0.0421,-0.16868 0.0736,-0.24943 0.11611,-0.29728 0.3334,-0.55466 0.44966,-0.85325 0.33941,-0.49014 0.65328,-0.99555 0.90874,-1.5354 0.31422,-0.71711 0.68271,-1.40555 1.14651,-2.0387 0.51915,-0.78827 1.08895,-1.54037 1.60543,-2.33013 0,0 3.43027,-1.51289 3.43027,-1.51289 z"
       inkscape:connector-curvature="0" />
    <path
       style="fill:#0000ff;fill-opacity:1"
       id="path3116"
       d="m 345.96275,464.5632 c 0.39671,1.05047 0.84399,2.08065 1.33351,3.09092 0.74457,1.35787 1.6845,2.59188 2.56925,3.85848 0.51263,0.80563 1.05394,1.59253 1.63811,2.34808 0.32728,0.47636 0.67358,0.9383 1.01008,1.4076 0.29448,0.33075 0.55125,0.69312 0.8046,1.05553 0.26145,0.29768 0.48824,0.6339 0.66322,0.98972 0.22382,0.37257 0.43956,0.75353 0.67206,1.12262 0.2761,0.48924 0.59422,0.957 0.94801,1.39313 0.3334,0.43774 0.66903,0.8717 0.95568,1.34205 0.2803,0.39643 0.5977,0.76272 0.89732,1.1443 0.26163,0.36995 0.43918,0.78895 0.65832,1.18282 0.19274,0.36002 0.37801,0.72751 0.63927,1.04345 0.25168,0.35003 0.44323,0.73859 0.65988,1.11089 0.15296,0.198 0.0765,0.0944 0.22849,0.31139 0,0 -3.24038,1.90898 -3.24038,1.90898 l 0,0 c -0.15404,-0.21948 -0.0732,-0.10598 -0.24284,-0.34023 -0.2067,-0.35698 -0.39231,-0.72823 -0.63374,-1.06298 -0.26206,-0.34126 -0.47221,-0.71678 -0.67119,-1.09753 -0.20662,-0.37737 -0.3729,-0.77905 -0.62282,-1.13207 -0.31064,-0.39131 -0.63392,-0.77327 -0.91575,-1.18622 -0.27852,-0.45743 -0.61196,-0.87399 -0.93173,-1.30268 -0.35201,-0.45403 -0.6878,-0.92396 -0.9711,-1.42448 -0.24359,-0.37912 -0.46767,-0.77172 -0.7008,-1.1561 -0.16224,-0.34074 -0.39047,-0.6495 -0.63062,-0.93907 -0.25392,-0.36112 -0.51314,-0.71847 -0.79875,-1.05562 -0.3312,-0.46788 -0.67028,-0.92978 -0.9934,-1.40356 -0.57623,-0.76714 -1.09143,-1.57693 -1.59761,-2.39139 -0.88637,-1.28832 -1.8354,-2.5375 -2.6105,-3.89867 -0.50067,-1.00854 -0.93814,-2.04526 -1.38145,-3.07998 0,0 3.26488,-1.83938 3.26488,-1.83938 z"
       inkscape:connector-curvature="0" />
    <path
       style="fill:#0000ff;fill-opacity:1"
       id="path2998"
       d="m 345.48129,481.50742 c 0.52782,1.20791 1.06975,2.41043 1.70833,3.56428 0.40278,0.75477 0.76758,1.5304 1.19547,2.27117 0.26117,0.46181 0.48423,0.94348 0.6302,1.45391 0.14659,0.5269 0.35351,1.03206 0.54757,1.54214 0.22947,0.55373 0.45012,1.1128 0.63562,1.68298 0.1885,0.50523 0.33651,1.02358 0.54075,1.52293 0.19403,0.50386 0.34497,1.016 0.56137,1.5114 0.20961,0.4709 0.50833,0.88925 0.69733,1.36917 0.2301,0.48685 0.33535,1.00405 0.39473,1.53504 0.0531,0.57308 0.0757,1.14596 -0.001,1.71704 -0.0775,0.54283 -0.24468,1.06842 -0.4125,1.58894 -0.23256,0.65497 -0.43627,1.31845 -0.64075,1.98233 -0.19594,0.4745 -0.27406,0.98283 -0.42248,1.47105 -0.11787,0.40083 -0.19298,0.80947 -0.31279,1.21001 -0.12459,0.42087 -0.12549,0.86179 -0.21906,1.28855 -0.12645,0.4346 -0.15091,0.88648 -0.21001,1.33235 -0.0651,0.32671 -0.11977,0.65522 -0.18972,0.9809 0,0 -3.39279,1.61287 -3.39279,1.61287 l 0,0 c 0.11097,-0.30697 0.13011,-0.63036 0.20824,-0.94712 0.0988,-0.44505 0.0657,-0.91106 0.19467,-1.3528 0.11583,-0.4291 0.13875,-0.86045 0.21355,-1.2986 0.10445,-0.41002 0.24307,-0.80331 0.308,-1.22366 0.16328,-0.49138 0.24533,-0.99996 0.4334,-1.48499 0.2433,-0.64498 0.37977,-1.3282 0.64229,-1.96775 0.14357,-0.51308 0.34303,-1.01371 0.43162,-1.54062 0.0961,-0.54298 0.10126,-1.08232 0.0474,-1.63261 -0.0469,-0.50017 -0.13119,-0.98942 -0.35571,-1.44507 -0.17415,-0.47863 -0.47951,-0.88984 -0.68292,-1.35622 -0.21767,-0.49808 -0.38453,-1.00506 -0.56469,-1.51692 -0.21498,-0.50747 -0.36219,-1.03705 -0.55628,-1.55233 -0.17347,-0.56653 -0.39379,-1.1194 -0.62237,-1.66555 -0.19867,-0.52106 -0.41723,-1.03411 -0.5721,-1.57099 -0.12389,-0.4856 -0.34064,-0.93599 -0.5767,-1.37663 -0.41586,-0.75075 -0.76834,-1.53454 -1.1626,-2.29685 -0.62468,-1.16513 -1.15185,-2.37713 -1.7476,-3.55688 0,0 3.2517,-1.85147 3.2517,-1.85147 z"
       inkscape:connector-curvature="0" />
  </g>
</svg>
