<?xml version="1.0" encoding="UTF-8" standalone="no"?>
<!-- Created with Inkscape (http://www.inkscape.org/) -->

<svg
   xmlns:dc="http://purl.org/dc/elements/1.1/"
   xmlns:cc="http://creativecommons.org/ns#"
   xmlns:rdf="http://www.w3.org/1999/02/22-rdf-syntax-ns#"
   xmlns:svg="http://www.w3.org/2000/svg"
   xmlns="http://www.w3.org/2000/svg"
   xmlns:sodipodi="http://sodipodi.sourceforge.net/DTD/sodipodi-0.dtd"
   xmlns:inkscape="http://www.inkscape.org/namespaces/inkscape"
   width="744.09448819"
   height="1052.3622047"
   id="svg2"
   version="1.1"
   inkscape:version="0.48.5 r10040"
   sodipodi:docname="2.svg"
   inkscape:export-filename="/home/test/Programming/go/src/github.com/gragas/jabberwock-lib/assets/soul/movingDown/2.png"
   inkscape:export-xdpi="90"
   inkscape:export-ydpi="90">
  <defs
     id="defs4" />
  <sodipodi:namedview
     id="base"
     pagecolor="#ffffff"
     bordercolor="#666666"
     borderopacity="1.0"
     inkscape:pageopacity="0.0"
     inkscape:pageshadow="2"
     inkscape:zoom="3.959798"
     inkscape:cx="382.86605"
     inkscape:cy="572.56244"
     inkscape:document-units="px"
     inkscape:current-layer="layer1"
     showgrid="false"
     inkscape:window-width="1920"
     inkscape:window-height="1134"
     inkscape:window-x="0"
     inkscape:window-y="27"
     inkscape:window-maximized="1" />
  <metadata
     id="metadata7">
    <rdf:RDF>
      <cc:Work
         rdf:about="">
        <dc:format>image/svg+xml</dc:format>
        <dc:type
           rdf:resource="http://purl.org/dc/dcmitype/StillImage" />
        <dc:title></dc:title>
      </cc:Work>
    </rdf:RDF>
  </metadata>
  <g
     inkscape:label="Layer 1"
     inkscape:groupmode="layer"
     id="layer1">
    <path
       style="fill:#0000ff;fill-opacity:1"
       id="path3009"
       d="m 370.61279,450.09628 c 0.24942,-1.05007 0.34282,-2.12858 0.41534,-3.20287 0.0387,-0.81821 0.0266,-1.63555 0.17996,-2.4427 0.12729,-0.54738 0.27728,-1.08815 0.42885,-1.62904 0.11443,-0.51298 0.35233,-0.96005 0.63935,-1.39342 0.34142,-0.44236 0.76572,-0.80601 1.21359,-1.13548 1.27399,-0.82368 2.51461,-1.77866 3.9579,-2.25909 0.25549,-0.085 0.51882,-0.12158 0.77544,-0.20392 0.5334,-0.11978 1.06012,-0.26033 1.59814,-0.35937 0.52794,-0.0441 0.98783,-0.318 1.4846,-0.47399 0.4981,-0.0801 0.98331,-0.20463 1.47824,-0.3017 0.51486,-0.0494 1.00533,-0.20697 1.51583,-0.28665 0.57143,-0.10701 1.07315,0.12804 1.57864,0.35572 0.52804,0.26419 1.03051,0.57163 1.52902,0.88734 0.55881,0.4275 0.99564,0.97412 1.43196,1.51888 0.33191,0.47341 0.72748,0.89327 1.0467,1.37632 0.32045,0.37364 0.51918,0.82494 0.73904,1.2599 0.30253,0.53431 0.48398,1.1207 0.67853,1.69952 0.18643,0.51137 0.21206,1.05477 0.29166,1.58701 0.11269,0.51624 0.18341,1.03815 0.21603,1.56514 0.0679,0.57408 -0.0283,1.13702 -0.10818,1.70307 -0.11212,0.51285 -0.20251,1.03386 -0.35922,1.53557 -0.19078,0.54423 -0.44486,1.06063 -0.71089,1.57108 -0.29911,0.46337 -0.51054,0.97832 -0.85784,1.40874 -0.23717,0.33667 -0.41508,0.68139 -0.71557,0.96943 -1.00951,1.05724 -2.43575,1.52082 -3.71838,2.24834 -0.2098,0.119 -0.44115,0.18095 -0.67196,0.24266 -0.093,0.0141 -0.18742,0.0206 -0.27887,0.0424 -0.16937,0.0404 -0.32996,0.11228 -0.49836,0.15657 -0.24358,0.0641 -0.47232,0.0905 -0.70557,0.18779 -0.26574,0.1427 -0.57481,0.1277 -0.8569,0.20026 -0.0646,0.0166 -0.12328,0.0507 -0.18492,0.0761 -0.0745,0.0191 -0.14902,0.0382 -0.22353,0.0573 -0.5042,0.11595 -1.02191,0.14199 -1.53709,0.15923 -0.51128,0.012 -1.02275,0.01 -1.53412,0.009 -0.45911,-0.003 -0.87142,0.20148 -1.33452,0.15249 -0.40831,-0.15322 -0.81397,-0.29271 -1.21268,-0.46658 -0.41971,-0.14492 -0.86129,-0.23725 -1.26749,-0.41765 -0.38253,-0.15608 -0.78071,-0.29586 -1.13627,-0.50811 -0.36159,-0.20347 -0.70141,-0.45656 -1.02866,-0.71269 -0.40058,-0.24033 -0.74587,-0.55874 -1.06172,-0.89995 -0.31703,-0.2621 -0.55466,-0.58673 -0.80337,-0.90843 -0.28341,-0.3719 -0.4625,-0.78325 -0.57546,-1.23402 -0.15471,-0.49166 -0.25642,-0.99357 -0.31524,-1.50495 -0.0342,-0.3414 -0.0421,-0.68451 -0.0492,-1.02728 0,0 3.3415,-1.70958 3.3415,-1.70958 l 0,0 c 0.004,0.33293 0.008,0.66612 0.0341,0.99825 0.0462,0.49756 0.13119,0.98822 0.29536,1.46205 0.0872,0.40667 0.24418,0.76488 0.50381,1.09365 0.23463,0.31518 0.48333,0.61219 0.7772,0.87649 0.31134,0.32175 0.65082,0.60578 1.03109,0.84359 0.32622,0.23263 0.63518,0.4924 0.99951,0.66429 0.36414,0.17054 0.72986,0.33622 1.10796,0.47394 0.42505,0.144 0.86059,0.25882 1.27725,0.42637 0.35578,0.15366 0.73629,0.30156 1.12196,0.3412 0.44388,-0.0578 0.87864,-0.18935 1.33166,-0.14906 0.50769,-1.2e-4 1.0157,0.001 1.52296,-0.0229 0.50261,-0.0311 1.00592,-0.0812 1.49019,-0.22775 0.41677,-0.12262 0.85095,-0.18208 1.25658,-0.34603 0.49707,-0.11457 0.98793,-0.25208 1.47963,-0.38712 0.25715,-0.0999 0.1887,-0.0678 0.43657,-0.18573 0.0692,-0.0329 0.27242,-0.13967 0.20649,-0.10073 -5.44457,3.21578 -3.71607,2.27863 -2.68839,1.54624 0.13031,-0.15296 0.29571,-0.24686 0.42731,-0.3921 0.13082,-0.14439 0.10093,-0.18561 0.18838,-0.36374 0.0323,-0.0659 0.0745,-0.1264 0.11175,-0.18961 0.0951,-0.11552 0.20981,-0.21417 0.30346,-0.3309 0.24639,-0.30709 0.32686,-0.72182 0.59335,-1.01875 0.27636,-0.48686 0.51842,-0.98822 0.72871,-1.50509 0.16825,-0.48423 0.26567,-0.97986 0.39534,-1.47668 0.0717,-0.54571 0.20437,-1.0848 0.14179,-1.63828 -0.0291,-0.51353 -0.082,-1.02499 -0.19981,-1.52686 -0.0976,-0.51115 -0.0852,-1.04226 -0.26102,-1.53946 -0.18376,-0.56208 -0.35128,-1.13497 -0.65486,-1.64719 -0.21749,-0.42063 -0.4096,-0.85777 -0.71626,-1.2245 -0.31317,-0.47211 -0.70341,-0.88306 -1.02141,-1.35174 -0.4111,-0.51263 -0.82048,-1.03416 -1.36977,-1.40879 -0.48908,-0.30047 -0.97723,-0.60333 -1.5016,-0.84 -0.47442,-0.20093 -0.94004,-0.30394 -1.45304,-0.17399 -0.50269,0.10152 -1.00166,0.21752 -1.50875,0.29633 -0.48433,0.11038 -0.97896,0.18024 -1.45026,0.33984 -0.49118,0.1882 -0.98253,0.36753 -1.5093,0.4299 -0.52996,0.11907 -1.06097,0.23757 -1.58323,0.38714 -0.25378,0.0672 -0.50303,0.13233 -0.74172,0.24453 -0.0818,0.0384 -0.31799,0.17152 -0.24006,0.12581 3.33403,-1.95571 3.89173,-2.3169 2.71169,-1.56282 -0.46841,0.27653 -0.88046,0.62339 -1.25327,1.01951 -0.33228,0.36244 -0.56716,0.78572 -0.7052,1.25797 -0.1366,0.54377 -0.31299,1.07559 -0.44287,1.62151 -0.2136,0.78511 -0.1868,1.59426 -0.22954,2.40114 -0.0713,1.08433 -0.17949,2.16711 -0.36033,3.23912 0,0 -3.37767,1.62899 -3.37767,1.62899 z"
       inkscape:connector-curvature="0" />
    <path
       style="fill:#0000ff;fill-opacity:1"
       id="path3031"
       d="m 381.19323,455.32449 c -0.22007,0.88484 -0.32971,1.79147 -0.40815,2.69828 -0.078,0.66471 -0.19396,1.32356 -0.25744,1.99003 -0.0276,0.52224 -0.12334,1.03936 -0.2806,1.53756 -0.13166,0.49126 -0.23464,0.98909 -0.35346,1.48385 -0.1155,0.50171 -0.14557,1.01617 -0.16403,1.5289 0.0238,0.54189 -0.13113,1.05442 -0.28457,1.56613 -0.18529,0.62041 -0.20265,1.27147 -0.22595,1.9136 -0.0218,0.80763 -0.0136,1.61562 -0.0129,2.42343 0.0165,0.64059 -0.0743,1.28031 -0.18753,1.90946 -0.12078,0.56443 -0.27754,1.1203 -0.4357,1.67517 -0.14769,0.48307 -0.34265,0.94999 -0.47894,1.43635 -0.14506,0.42886 -0.26685,0.86479 -0.4032,1.29654 -0.1555,0.47235 -0.19108,0.96979 -0.29283,1.45412 -0.0658,0.46595 -0.21094,0.91129 -0.32912,1.36466 -0.14747,0.47149 -0.25457,0.95369 -0.38974,1.42855 0,0 -3.38969,1.61056 -3.38969,1.61056 l 0,0 c 0.13332,-0.47007 0.23085,-0.94789 0.39337,-1.40932 0.0935,-0.46185 0.28417,-0.89186 0.33558,-1.36271 0.11098,-0.4925 0.15943,-0.99073 0.27668,-1.48207 0.12997,-0.42905 0.23183,-0.86693 0.41368,-1.27821 0.11097,-0.50411 0.30794,-0.97546 0.4705,-1.46384 0.20201,-0.52854 0.30042,-1.09506 0.45429,-1.63913 0.15129,-0.59715 0.21592,-1.23012 0.23417,-1.84368 -0.001,-0.81123 0.002,-1.62247 0.01,-2.43366 0.0123,-0.66499 0.0154,-1.3404 0.16818,-1.991 0.13556,-0.48824 0.34873,-0.96387 0.32525,-1.48128 0.0131,-0.53289 0.0342,-1.06762 0.13335,-1.59277 0.10422,-0.50669 0.24854,-0.9998 0.3393,-1.50977 0.14308,-0.48044 0.30882,-0.96009 0.31836,-1.46901 0.0563,-0.67051 0.16664,-1.33282 0.27645,-1.99634 0.071,-0.91783 0.19659,-1.83079 0.36753,-2.73542 0,0 3.37766,-1.62898 3.37766,-1.62898 z"
       inkscape:connector-curvature="0" />
    <path
       style="fill:#0000ff;fill-opacity:1"
       id="path3035"
       d="m 376.29094,479.99219 c 0.54139,1.19237 1.10416,2.37378 1.68311,3.54822 0.33062,0.70025 0.72685,1.36281 1.12652,2.02468 0.38323,0.68498 0.84348,1.32218 1.27808,1.97463 0.56515,0.77181 1.02193,1.61246 1.50523,2.43554 0.40048,0.76501 0.77526,1.54205 1.18094,2.30405 0.23948,0.65325 0.48737,1.30468 0.7019,1.96669 0.12678,0.47441 0.29984,0.93562 0.46967,1.39615 0.17915,0.42177 0.38042,0.83777 0.61429,1.23211 0.23394,0.31858 0.39988,0.66597 0.57508,1.01825 0.28985,0.53121 0.21654,1.12363 0.118,1.69469 -0.17225,0.85487 -0.61945,1.61378 -0.9848,2.39546 -0.59234,1.29637 -1.14604,2.61327 -1.60357,3.9636 -0.14953,0.42502 -0.30328,0.84833 -0.44768,1.27512 0,0 -3.38242,1.58699 -3.38242,1.58699 l 0,0 c 0.14652,-0.43531 0.30655,-0.8652 0.48024,-1.29056 0.45689,-1.35602 1.01387,-2.67599 1.57585,-3.99119 0.3352,-0.7662 0.7654,-1.49401 0.99853,-2.30002 0.0919,-0.49238 0.23526,-1.00629 -0.0236,-1.47273 -0.17238,-0.34399 -0.33132,-0.68521 -0.56034,-0.99821 -0.24033,-0.41642 -0.4497,-0.85182 -0.64356,-1.29166 -0.17135,-0.46674 -0.3532,-0.93254 -0.47004,-1.41648 -0.19649,-0.64551 -0.44262,-1.27508 -0.66613,-1.91153 -0.38865,-0.76423 -0.75774,-1.53764 -1.15243,-2.29906 -0.47732,-0.81806 -0.94166,-1.64503 -1.50189,-2.41092 -0.44254,-0.6541 -0.90379,-1.29693 -1.2997,-1.98112 -0.41159,-0.67005 -0.78107,-1.36138 -1.11057,-2.0758 -0.5571,-1.18141 -1.10913,-2.36695 -1.71241,-3.52543 0,0 3.2517,-1.85147 3.2517,-1.85147 z"
       inkscape:connector-curvature="0" />
    <path
       style="fill:#0000ff;fill-opacity:1"
       id="path3037"
       d="m 375.6374,481.84099 c -0.29031,0.99198 -0.52528,1.99976 -0.85294,2.98032 -0.27191,0.82995 -0.59848,1.64148 -0.8566,2.47579 -0.21379,0.65066 -0.47578,1.28353 -0.70379,1.92975 -0.22678,0.57862 -0.44019,1.16212 -0.61182,1.75963 -0.16089,0.55376 -0.34086,1.10156 -0.50966,1.65282 -0.11195,0.51355 -0.30991,1.00086 -0.47824,1.49695 -0.1249,0.46355 -0.28381,0.91747 -0.45503,1.36578 -0.14916,0.43203 -0.23338,0.8808 -0.36234,1.31922 -0.10362,0.45524 -0.17088,0.91654 -0.2687,1.37356 -0.10467,0.48581 -0.1337,0.9822 -0.15157,1.47739 -0.0198,0.51056 0.006,1.02189 -0.0311,1.53149 -0.0754,0.58744 -0.26258,1.15102 -0.37239,1.73221 -0.11169,0.55618 -0.24744,1.10471 -0.40957,1.64805 -0.0786,0.42502 -0.25291,0.80742 -0.45785,1.18274 -0.14745,0.37461 -0.26631,0.76117 -0.39693,1.14288 -0.20334,0.50159 -0.29909,1.03619 -0.45375,1.55337 -0.14011,0.45183 -0.29928,0.89732 -0.44491,1.34728 0,0 -3.39074,1.60343 -3.39074,1.60343 l 0,0 c 0.13091,-0.45852 0.31034,-0.89943 0.4446,-1.35698 0.18673,-0.51284 0.2608,-1.04987 0.43585,-1.56495 0.16275,-0.37654 0.27764,-0.77183 0.3819,-1.16709 0.15747,-0.38334 0.44688,-0.70159 0.49099,-1.13092 0.14915,-0.53806 0.32469,-1.0636 0.43056,-1.61333 0.0928,-0.58015 0.2695,-1.1372 0.37822,-1.71226 0.0845,-0.49486 0.0173,-1.00172 0.0456,-1.50192 0.0124,-0.51335 0.0313,-1.02841 0.12262,-1.53497 0.0908,-0.46525 0.19916,-0.92223 0.25367,-1.39377 0.11538,-0.45232 0.26134,-0.89104 0.35128,-1.35029 0.1612,-0.44846 0.3528,-0.88884 0.4668,-1.35142 0.14826,-0.50121 0.37335,-0.97698 0.48228,-1.48802 0.15104,-0.55623 0.34947,-1.09837 0.51759,-1.64961 0.15464,-0.60844 0.35257,-1.20768 0.60261,-1.78379 0.21962,-0.64845 0.46499,-1.28338 0.71819,-1.9185 0.24286,-0.84853 0.58949,-1.66077 0.8627,-2.49992 0.35809,-0.95255 0.57382,-1.94646 0.84475,-2.92593 0,0 3.37767,-1.62899 3.37767,-1.62899 z"
       inkscape:connector-curvature="0" />
    <path
       style="fill:#0000ff;fill-opacity:1"
       id="path3039"
       d="m 380.98146,458.60169 c -0.035,1.15224 -0.0322,2.3032 0.0484,3.45314 0.1177,1.03848 0.30711,2.07006 0.54766,3.08695 0.19572,0.73439 0.38608,1.46572 0.54098,2.20981 0.19259,1.07618 0.36943,2.15572 0.644,3.21469 0.17937,0.68036 0.37061,1.35718 0.55184,2.03696 0.0972,0.58454 0.31601,1.12804 0.62147,1.63314 0.30956,0.54374 0.48183,1.15017 0.63568,1.75273 0.15564,0.66602 0.17151,1.35389 0.1919,2.03457 0.0138,0.65007 0.008,1.30038 0.007,1.95055 -0.004,0.65278 -0.002,1.30557 5e-5,1.95835 0,0 -3.33987,1.70151 -3.33987,1.70151 l 0,0 c 0.002,-0.65382 0.007,-1.30764 0.005,-1.96147 0.001,-0.64729 0.003,-1.2946 -0.003,-1.94188 -0.011,-0.65552 -0.0206,-1.31682 -0.15579,-1.96098 -0.13573,-0.56889 -0.29975,-1.14122 -0.58441,-1.65522 -0.31354,-0.53579 -0.57756,-1.10733 -0.67456,-1.72559 -0.1698,-0.68529 -0.36261,-1.36419 -0.5252,-2.05153 -0.27078,-1.06313 -0.44784,-2.1466 -0.65934,-3.22253 -0.1665,-0.73916 -0.35321,-1.46996 -0.53554,-2.20534 -0.24248,-1.03752 -0.42428,-2.09145 -0.55913,-3.14815 -0.0829,-1.15246 -0.0833,-2.30371 -0.0954,-3.45872 0,0 3.33837,-1.70099 3.33837,-1.70099 z"
       inkscape:connector-curvature="0" />
    <path
       style="fill:#0000ff;fill-opacity:1"
       id="path3041"
       d="m 378.85052,458.15236 c -0.57929,1.01753 -1.21173,2.0019 -1.82666,2.99756 -0.61546,0.95031 -1.2198,1.90217 -1.75612,2.89981 -0.47214,0.86752 -0.84534,1.78291 -1.17631,2.71189 -0.21101,0.68037 -0.48444,1.3391 -0.69159,2.02045 -0.18029,0.62167 -0.19771,1.26941 -0.26422,1.90828 -0.0577,0.60208 -0.2017,1.18344 -0.40449,1.75147 -0.19872,0.5839 -0.38615,1.16808 -0.48976,1.77681 -0.10981,0.49122 -0.19409,0.99203 -0.34812,1.47197 -0.18889,0.51868 -0.30511,1.05826 -0.4698,1.58417 -0.13758,0.45442 -0.22791,0.91874 -0.36327,1.37391 0,0 -3.39416,1.6151 -3.39416,1.6151 l 0,0 c 0.12075,-0.46574 0.27235,-0.91777 0.36487,-1.3915 0.1736,-0.52449 0.29785,-1.0572 0.45898,-1.58546 0.16626,-0.46464 0.26083,-0.94149 0.39019,-1.419 0.0856,-0.63324 0.25552,-1.23455 0.45303,-1.84094 0.20138,-0.54717 0.39775,-1.09135 0.44537,-1.6789 0.0981,-0.65015 0.0699,-1.31859 0.24532,-1.9591 0.17626,-0.70043 0.47363,-1.35844 0.68675,-2.04757 0.33537,-0.94625 0.70388,-1.88231 1.17432,-2.77095 0.52828,-1.00807 1.10288,-1.9821 1.74892,-2.91981 0.59188,-0.99389 1.25658,-1.94378 1.79757,-2.96911 0,0 3.41918,-1.52908 3.41918,-1.52908 z"
       inkscape:connector-curvature="0" />
  </g>
</svg>
