<?xml version="1.0" encoding="UTF-8" standalone="no"?>
<!-- Created with Inkscape (http://www.inkscape.org/) -->

<svg
   xmlns:dc="http://purl.org/dc/elements/1.1/"
   xmlns:cc="http://creativecommons.org/ns#"
   xmlns:rdf="http://www.w3.org/1999/02/22-rdf-syntax-ns#"
   xmlns:svg="http://www.w3.org/2000/svg"
   xmlns="http://www.w3.org/2000/svg"
   xmlns:sodipodi="http://sodipodi.sourceforge.net/DTD/sodipodi-0.dtd"
   xmlns:inkscape="http://www.inkscape.org/namespaces/inkscape"
   width="744.09448819"
   height="1052.3622047"
   id="svg2"
   version="1.1"
   inkscape:version="0.48.5 r10040"
   sodipodi:docname="0.svg"
   inkscape:export-filename="/home/test/Programming/go/src/github.com/gragas/jabberwock-lib/assets/soul/movingRight/0.png"
   inkscape:export-xdpi="90"
   inkscape:export-ydpi="90">
  <defs
     id="defs4" />
  <sodipodi:namedview
     id="base"
     pagecolor="#ffffff"
     bordercolor="#666666"
     borderopacity="1.0"
     inkscape:pageopacity="0.0"
     inkscape:pageshadow="2"
     inkscape:zoom="3.959798"
     inkscape:cx="382.86605"
     inkscape:cy="572.56244"
     inkscape:document-units="px"
     inkscape:current-layer="layer1"
     showgrid="false"
     inkscape:window-width="1920"
     inkscape:window-height="1134"
     inkscape:window-x="0"
     inkscape:window-y="27"
     inkscape:window-maximized="1" />
  <metadata
     id="metadata7">
    <rdf:RDF>
      <cc:Work
         rdf:about="">
        <dc:format>image/svg+xml</dc:format>
        <dc:type
           rdf:resource="http://purl.org/dc/dcmitype/StillImage" />
        <dc:title></dc:title>
      </cc:Work>
    </rdf:RDF>
  </metadata>
  <g
     inkscape:label="Layer 1"
     inkscape:groupmode="layer"
     id="layer1">
    <path
       style="fill:#0000ff;fill-opacity:1"
       id="path3009"
       d="m 370.61279,450.09628 c 0.24942,-1.05007 0.34282,-2.12858 0.41534,-3.20287 0.0387,-0.81821 0.0266,-1.63555 0.17996,-2.4427 0.12729,-0.54738 0.27728,-1.08815 0.42885,-1.62904 0.11443,-0.51298 0.35233,-0.96005 0.63935,-1.39342 0.34142,-0.44236 0.76572,-0.80601 1.21359,-1.13548 1.27399,-0.82368 2.51461,-1.77866 3.9579,-2.25909 0.25549,-0.085 0.51882,-0.12158 0.77544,-0.20392 0.5334,-0.11978 1.06012,-0.26033 1.59814,-0.35937 0.52794,-0.0441 0.98783,-0.318 1.4846,-0.47399 0.4981,-0.0801 0.98331,-0.20463 1.47824,-0.3017 0.51486,-0.0494 1.00533,-0.20697 1.51583,-0.28665 0.57143,-0.10701 1.07315,0.12804 1.57864,0.35572 0.52804,0.26419 1.03051,0.57163 1.52902,0.88734 0.55881,0.4275 0.99564,0.97412 1.43196,1.51888 0.33191,0.47341 0.72748,0.89327 1.0467,1.37632 0.32045,0.37364 0.51918,0.82494 0.73904,1.2599 0.30253,0.53431 0.48398,1.1207 0.67853,1.69952 0.18643,0.51137 0.21206,1.05477 0.29166,1.58701 0.11269,0.51624 0.18341,1.03815 0.21603,1.56514 0.0679,0.57408 -0.0283,1.13702 -0.10818,1.70307 -0.11212,0.51285 -0.20251,1.03386 -0.35922,1.53557 -0.19078,0.54423 -0.44486,1.06063 -0.71089,1.57108 -0.29911,0.46337 -0.51054,0.97832 -0.85784,1.40874 -0.23717,0.33667 -0.41508,0.68139 -0.71557,0.96943 -1.00951,1.05724 -2.43575,1.52082 -3.71838,2.24834 -0.2098,0.119 -0.44115,0.18095 -0.67196,0.24266 -0.093,0.0141 -0.18742,0.0206 -0.27887,0.0424 -0.16937,0.0404 -0.32996,0.11228 -0.49836,0.15657 -0.24358,0.0641 -0.47232,0.0905 -0.70557,0.18779 -0.26574,0.1427 -0.57481,0.1277 -0.8569,0.20026 -0.0646,0.0166 -0.12328,0.0507 -0.18492,0.0761 -0.0745,0.0191 -0.14902,0.0382 -0.22353,0.0573 -0.5042,0.11595 -1.02191,0.14199 -1.53709,0.15923 -0.51128,0.012 -1.02275,0.01 -1.53412,0.009 -0.45911,-0.003 -0.87142,0.20148 -1.33452,0.15249 -0.40831,-0.15322 -0.81397,-0.29271 -1.21268,-0.46658 -0.41971,-0.14492 -0.86129,-0.23725 -1.26749,-0.41765 -0.38253,-0.15608 -0.78071,-0.29586 -1.13627,-0.50811 -0.36159,-0.20347 -0.70141,-0.45656 -1.02866,-0.71269 -0.40058,-0.24033 -0.74587,-0.55874 -1.06172,-0.89995 -0.31703,-0.2621 -0.55466,-0.58673 -0.80337,-0.90843 -0.28341,-0.3719 -0.4625,-0.78325 -0.57546,-1.23402 -0.15471,-0.49166 -0.25642,-0.99357 -0.31524,-1.50495 -0.0342,-0.3414 -0.0421,-0.68451 -0.0492,-1.02728 0,0 3.3415,-1.70958 3.3415,-1.70958 l 0,0 c 0.004,0.33293 0.008,0.66612 0.0341,0.99825 0.0462,0.49756 0.13119,0.98822 0.29536,1.46205 0.0872,0.40667 0.24418,0.76488 0.50381,1.09365 0.23463,0.31518 0.48333,0.61219 0.7772,0.87649 0.31134,0.32175 0.65082,0.60578 1.03109,0.84359 0.32622,0.23263 0.63518,0.4924 0.99951,0.66429 0.36414,0.17054 0.72986,0.33622 1.10796,0.47394 0.42505,0.144 0.86059,0.25882 1.27725,0.42637 0.35578,0.15366 0.73629,0.30156 1.12196,0.3412 0.44388,-0.0578 0.87864,-0.18935 1.33166,-0.14906 0.50769,-1.2e-4 1.0157,0.001 1.52296,-0.0229 0.50261,-0.0311 1.00592,-0.0812 1.49019,-0.22775 0.41677,-0.12262 0.85095,-0.18208 1.25658,-0.34603 0.49707,-0.11457 0.98793,-0.25208 1.47963,-0.38712 0.25715,-0.0999 0.1887,-0.0678 0.43657,-0.18573 0.0692,-0.0329 0.27242,-0.13967 0.20649,-0.10073 -5.44457,3.21578 -3.71607,2.27863 -2.68839,1.54624 0.13031,-0.15296 0.29571,-0.24686 0.42731,-0.3921 0.13082,-0.14439 0.10093,-0.18561 0.18838,-0.36374 0.0323,-0.0659 0.0745,-0.1264 0.11175,-0.18961 0.0951,-0.11552 0.20981,-0.21417 0.30346,-0.3309 0.24639,-0.30709 0.32686,-0.72182 0.59335,-1.01875 0.27636,-0.48686 0.51842,-0.98822 0.72871,-1.50509 0.16825,-0.48423 0.26567,-0.97986 0.39534,-1.47668 0.0717,-0.54571 0.20437,-1.0848 0.14179,-1.63828 -0.0291,-0.51353 -0.082,-1.02499 -0.19981,-1.52686 -0.0976,-0.51115 -0.0852,-1.04226 -0.26102,-1.53946 -0.18376,-0.56208 -0.35128,-1.13497 -0.65486,-1.64719 -0.21749,-0.42063 -0.4096,-0.85777 -0.71626,-1.2245 -0.31317,-0.47211 -0.70341,-0.88306 -1.02141,-1.35174 -0.4111,-0.51263 -0.82048,-1.03416 -1.36977,-1.40879 -0.48908,-0.30047 -0.97723,-0.60333 -1.5016,-0.84 -0.47442,-0.20093 -0.94004,-0.30394 -1.45304,-0.17399 -0.50269,0.10152 -1.00166,0.21752 -1.50875,0.29633 -0.48433,0.11038 -0.97896,0.18024 -1.45026,0.33984 -0.49118,0.1882 -0.98253,0.36753 -1.5093,0.4299 -0.52996,0.11907 -1.06097,0.23757 -1.58323,0.38714 -0.25378,0.0672 -0.50303,0.13233 -0.74172,0.24453 -0.0818,0.0384 -0.31799,0.17152 -0.24006,0.12581 3.33403,-1.95571 3.89173,-2.3169 2.71169,-1.56282 -0.46841,0.27653 -0.88046,0.62339 -1.25327,1.01951 -0.33228,0.36244 -0.56716,0.78572 -0.7052,1.25797 -0.1366,0.54377 -0.31299,1.07559 -0.44287,1.62151 -0.2136,0.78511 -0.1868,1.59426 -0.22954,2.40114 -0.0713,1.08433 -0.17949,2.16711 -0.36033,3.23912 0,0 -3.37767,1.62899 -3.37767,1.62899 z"
       inkscape:connector-curvature="0" />
    <path
       style="fill:#0000ff;fill-opacity:1"
       id="path3031"
       d="m 381.19323,455.32449 c -0.22007,0.88484 -0.32971,1.79147 -0.40815,2.69828 -0.078,0.66471 -0.19396,1.32356 -0.25744,1.99003 -0.0276,0.52224 -0.12334,1.03936 -0.2806,1.53756 -0.13166,0.49126 -0.23464,0.98909 -0.35346,1.48385 -0.1155,0.50171 -0.14557,1.01617 -0.16403,1.5289 0.0238,0.54189 -0.13113,1.05442 -0.28457,1.56613 -0.18529,0.62041 -0.20265,1.27147 -0.22595,1.9136 -0.0218,0.80763 -0.0136,1.61562 -0.0129,2.42343 0.0165,0.64059 -0.0743,1.28031 -0.18753,1.90946 -0.12078,0.56443 -0.27754,1.1203 -0.4357,1.67517 -0.14769,0.48307 -0.34265,0.94999 -0.47894,1.43635 -0.14506,0.42886 -0.26685,0.86479 -0.4032,1.29654 -0.1555,0.47235 -0.19108,0.96979 -0.29283,1.45412 -0.0658,0.46595 -0.21094,0.91129 -0.32912,1.36466 -0.14747,0.47149 -0.25457,0.95369 -0.38974,1.42855 0,0 -3.38969,1.61056 -3.38969,1.61056 l 0,0 c 0.13332,-0.47007 0.23085,-0.94789 0.39337,-1.40932 0.0935,-0.46185 0.28417,-0.89186 0.33558,-1.36271 0.11098,-0.4925 0.15943,-0.99073 0.27668,-1.48207 0.12997,-0.42905 0.23183,-0.86693 0.41368,-1.27821 0.11097,-0.50411 0.30794,-0.97546 0.4705,-1.46384 0.20201,-0.52854 0.30042,-1.09506 0.45429,-1.63913 0.15129,-0.59715 0.21592,-1.23012 0.23417,-1.84368 -0.001,-0.81123 0.002,-1.62247 0.01,-2.43366 0.0123,-0.66499 0.0154,-1.3404 0.16818,-1.991 0.13556,-0.48824 0.34873,-0.96387 0.32525,-1.48128 0.0131,-0.53289 0.0342,-1.06762 0.13335,-1.59277 0.10422,-0.50669 0.24854,-0.9998 0.3393,-1.50977 0.14308,-0.48044 0.30882,-0.96009 0.31836,-1.46901 0.0563,-0.67051 0.16664,-1.33282 0.27645,-1.99634 0.071,-0.91783 0.19659,-1.83079 0.36753,-2.73542 0,0 3.37766,-1.62898 3.37766,-1.62898 z"
       inkscape:connector-curvature="0" />
    <path
       style="fill:#0000ff;fill-opacity:1"
       id="path3066"
       d="m 376.20566,481.02805 c 0.10219,1.22842 0.39385,2.42114 0.70379,3.60972 0.26779,0.92179 0.54417,1.84067 0.70267,2.78858 0.0913,0.58444 0.0909,1.1765 0.0938,1.7663 -0.003,0.66683 -0.006,1.33366 -0.009,2.0005 -0.003,0.64595 -0.0176,1.28966 0.0612,1.93157 0.0864,0.56683 0.12117,1.13851 0.2331,1.70107 0.0585,0.48232 0.2351,0.93466 0.33572,1.40713 0.0989,0.43646 0.27125,0.84583 0.42442,1.26392 0.10971,0.39229 0.19606,0.79351 0.35676,1.16943 0.23034,0.41634 0.22947,0.85967 0.1673,1.31758 -0.16108,0.48395 -0.3261,0.97122 -0.52095,1.44348 -0.17824,0.42372 -0.31789,0.86298 -0.50142,1.28423 -0.14529,0.39206 -0.2894,0.78445 -0.43393,1.17719 -0.2198,0.46845 -0.47327,0.91863 -0.6911,1.38825 -0.18471,0.38573 -0.38225,0.76573 -0.55403,1.15749 -0.17033,0.3964 -0.39695,0.75904 -0.52148,1.17369 -0.1408,0.47452 -0.28576,0.94797 -0.42217,1.42396 -0.1026,0.46683 -0.2542,0.92138 -0.42125,1.36868 -0.0793,0.20295 -0.13061,0.41435 -0.17869,0.62624 0,0 -3.39243,1.62755 -3.39243,1.62755 l 0,0 c 0.0578,-0.22204 0.0973,-0.44795 0.16739,-0.66677 0.15741,-0.44272 0.34449,-0.87989 0.43874,-1.34075 0.11971,-0.47646 0.26208,-0.95092 0.42031,-1.41395 0.0917,-0.4655 0.27253,-0.8265 0.48999,-1.23962 0.19167,-0.38931 0.35722,-0.78648 0.55015,-1.17505 0.25714,-0.43688 0.41652,-0.93035 0.70261,-1.35424 0.173,-0.38402 0.30346,-0.785 0.42984,-1.18556 0.18386,-0.42096 0.35402,-0.84435 0.50547,-1.27903 0.19188,-0.45744 0.33957,-0.92798 0.55337,-1.37711 0.1066,-0.37985 0.1295,-0.75734 -0.0662,-1.11169 -0.16965,-0.38095 -0.27127,-0.78854 -0.36702,-1.1931 -0.15297,-0.43721 -0.3364,-0.86109 -0.4454,-1.31359 -0.0923,-0.47521 -0.28188,-0.9243 -0.33341,-1.40869 -0.11867,-0.57196 -0.16319,-1.14888 -0.23927,-1.72787 -0.0907,-0.65825 -0.0994,-1.31308 -0.0795,-1.97763 -4e-4,-0.66503 0.002,-1.33006 0.002,-1.99508 2.2e-4,-0.57367 0.002,-1.14909 -0.0627,-1.71997 -0.12777,-0.94418 -0.37853,-1.86216 -0.64708,-2.77514 -0.30724,-1.20127 -0.60096,-2.40251 -0.77437,-3.63208 0,0 3.3228,-1.73964 3.3228,-1.73964 z"
       inkscape:connector-curvature="0" />
    <path
       style="fill:#0000ff;fill-opacity:1"
       id="path3072"
       d="m 376.39145,480.35326 c -0.29625,1.09205 -0.54617,2.19475 -0.79119,3.29902 -0.21347,0.85319 -0.31508,1.72659 -0.46249,2.59195 -0.13248,0.72435 -0.1568,1.46065 -0.26621,2.18791 -0.10931,0.62443 -0.13459,1.25793 -0.24505,1.88186 -0.11736,0.51264 -0.1442,1.03793 -0.21043,1.55765 -0.0819,0.52283 -0.20102,1.03664 -0.32304,1.55101 -0.12014,0.62597 -0.26075,1.24678 -0.34851,1.87847 -0.0763,0.53467 -0.0592,1.07585 -0.10524,1.61251 -0.0886,0.4884 -0.12818,0.98559 -0.25109,1.46698 -0.13474,0.41603 -0.15831,0.8543 -0.26468,1.27633 -0.0778,0.40222 -0.22287,0.784 -0.33564,1.1762 -0.0928,0.41234 -0.30821,0.76783 -0.54467,1.1114 -0.28442,0.42102 -0.62346,0.7994 -0.9418,1.1945 -0.37087,0.41389 -0.78824,0.78339 -1.18296,1.17489 -0.37991,0.42561 -0.76863,0.84375 -1.12308,1.29105 -0.28141,0.40783 -0.57907,0.80297 -0.87832,1.19753 -0.26652,0.38046 -0.62516,0.67891 -0.93759,1.01807 -0.23916,0.32671 -0.53964,0.60762 -0.84513,0.87228 -0.29748,0.26171 -0.57564,0.54445 -0.87301,0.80596 -0.20625,0.18848 -0.39848,0.38435 -0.62483,0.54939 0,0 -3.48923,1.40222 -3.48923,1.40222 l 0,0 c 0.20922,-0.18628 0.47599,-0.29203 0.62899,-0.54052 0.30661,-0.25279 0.57745,-0.5322 0.88243,-0.78429 0.27115,-0.29096 0.59647,-0.52755 0.86935,-0.81482 0.24376,-0.40547 0.64247,-0.65932 0.93733,-1.02429 0.30442,-0.39627 0.62487,-0.77814 0.88673,-1.20481 0.34878,-0.45703 0.72322,-0.88735 1.10391,-1.31838 0.36097,-0.4212 0.78067,-0.78632 1.19551,-1.15437 0.32067,-0.38766 0.64862,-0.77194 0.94268,-1.17634 0.24252,-0.30118 0.4614,-0.61403 0.60383,-0.97377 0.0844,-0.40713 0.26479,-0.77443 0.33105,-1.18497 0.12497,-0.4221 0.1644,-0.84974 0.26543,-1.27868 0.14137,-0.46627 0.19568,-0.94005 0.2797,-1.42046 0.0936,-0.53211 0.0273,-1.08072 0.11029,-1.61624 0.0788,-0.64132 0.22017,-1.269 0.33378,-1.90403 0.0963,-0.5147 0.25314,-1.01434 0.32623,-1.53447 0.10883,-0.51528 0.0777,-1.05332 0.21045,-1.56701 0.12599,-0.62101 0.16804,-1.248 0.25524,-1.87561 0.12672,-0.72879 0.1585,-1.46416 0.27074,-2.19539 0.15712,-0.87398 0.25657,-1.75765 0.4773,-2.61952 0.25206,-1.09209 0.48485,-2.18863 0.76267,-3.27481 0,0 3.37055,-1.6344 3.37055,-1.6344 z"
       inkscape:connector-curvature="0" />
    <path
       style="fill:#0000ff;fill-opacity:1"
       id="path3078"
       d="m 381.32336,458.11817 c -0.72935,0.44754 -1.35538,1.02592 -1.90767,1.67462 -0.39371,0.46472 -0.66281,1.00235 -0.9047,1.55579 -0.16516,0.4465 -0.34092,0.88903 -0.51999,1.33017 -0.17832,0.47637 -0.33427,0.9604 -0.50457,1.43955 -0.21772,0.59986 -0.41253,1.20546 -0.64482,1.80005 -0.23174,0.68401 -0.50289,1.35344 -0.76607,2.02575 -0.31619,0.72946 -0.62646,1.46181 -0.96153,2.18303 -0.50397,0.98349 -0.96362,1.98759 -1.42245,2.99277 -0.43148,0.93225 -0.99984,1.79168 -1.50892,2.68218 -0.3333,0.54571 -0.638,1.10682 -0.95243,1.66324 -0.25118,0.42191 -0.46776,0.8635 -0.72479,1.28179 -0.22081,0.32736 -0.44539,0.65132 -0.64655,0.99161 -0.17712,0.32895 -0.35141,0.65883 -0.52021,0.99226 -0.17549,0.37207 -0.37629,0.73581 -0.60211,1.07998 -0.16543,0.25666 -0.0831,0.12882 -0.24711,0.38354 0,0 -3.4327,1.5252 -3.4327,1.5252 l 0,0 c 0.14782,-0.27552 0.0673,-0.14501 0.23986,-0.39253 0.20635,-0.34293 0.42692,-0.67498 0.62453,-1.02409 0.12573,-0.35503 0.31975,-0.68817 0.51278,-1.00884 0.14659,-0.37254 0.38302,-0.71807 0.63739,-1.0243 0.24575,-0.42293 0.49646,-0.8411 0.73251,-1.27068 0.30565,-0.56986 0.62865,-1.12845 0.97296,-1.67684 0.49955,-0.89578 1.08317,-1.74369 1.54107,-2.66198 0.45844,-1.00084 0.89834,-2.01002 1.40462,-2.98778 0.33435,-0.71354 0.63009,-1.44149 0.96186,-2.15562 0.25808,-0.67365 0.54714,-1.33499 0.76356,-2.02367 0.22438,-0.59241 0.44503,-1.18192 0.64046,-1.7845 0.16455,-0.48404 0.33773,-0.96434 0.49559,-1.45013 0.16696,-0.4501 0.36821,-0.88602 0.52171,-1.33959 0.22845,-0.58736 0.49266,-1.15629 0.87221,-1.66388 0.53963,-0.67338 1.13385,-1.29083 1.85017,-1.78131 0,0 3.49534,-1.35579 3.49534,-1.35579 z"
       inkscape:connector-curvature="0" />
    <path
       style="fill:#0000ff;fill-opacity:1"
       id="path3080"
       d="m 379.76161,459.54458 c 0.17244,0.83792 0.3733,1.6728 0.59172,2.5003 0.1566,0.74416 0.43593,1.44305 0.84618,2.08149 0.37392,0.60318 0.70408,1.22871 0.96012,1.89068 0.24144,0.60598 0.47045,1.21776 0.74755,1.8086 0.21744,0.53016 0.50301,1.0294 0.68557,1.57328 0.16419,0.47709 0.32592,0.9559 0.46865,1.43998 0.15489,0.56617 0.27046,1.14078 0.42931,1.70586 0.11663,0.55004 0.39471,1.04093 0.57405,1.57021 0.176,0.51008 0.39853,1.0006 0.54713,1.51985 0.16947,0.57792 0.14354,1.15425 0.0388,1.73924 -0.16081,0.63074 -0.49707,1.19926 -0.79109,1.77571 -0.2499,0.52058 -0.53666,1.02127 -0.81097,1.52869 -0.26707,0.49994 -0.45816,1.03374 -0.646,1.56684 -0.17396,0.47583 -0.29995,0.96582 -0.45882,1.44675 -0.0645,0.20831 -0.10316,0.42317 -0.15075,0.63569 0,0 -3.39758,1.6099 -3.39758,1.6099 l 0,0 c 0.0801,-0.20984 0.10653,-0.42001 0.15104,-0.64002 0.1406,-0.49453 0.32343,-0.97386 0.45831,-1.47074 0.20858,-0.53196 0.35652,-1.09137 0.62421,-1.59815 0.23721,-0.53221 0.5924,-1.00266 0.8165,-1.54365 0.3001,-0.54746 0.58606,-1.11146 0.8366,-1.67999 0.12465,-0.5279 0.17669,-1.04608 0.0331,-1.57796 -0.13501,-0.51761 -0.36141,-1 -0.53763,-1.50403 -0.1701,-0.53931 -0.46415,-1.02985 -0.57778,-1.58715 -0.1564,-0.56432 -0.28459,-1.1345 -0.43332,-1.70038 -0.13486,-0.48234 -0.3025,-0.95557 -0.46547,-1.4288 -0.1619,-0.53375 -0.44355,-1.01938 -0.64853,-1.5369 -0.2865,-0.59739 -0.51979,-1.21723 -0.76363,-1.83277 -0.24241,-0.64037 -0.55491,-1.2475 -0.91679,-1.82889 -0.42354,-0.67206 -0.74127,-1.40049 -0.90337,-2.18157 -0.21937,-0.83106 -0.38661,-1.67663 -0.61039,-2.50697 0,0 3.30322,-1.7751 3.30322,-1.7751 z"
       inkscape:connector-curvature="0" />
  </g>
</svg>
