<?xml version="1.0" encoding="UTF-8" standalone="no"?>
<!-- Created with Inkscape (http://www.inkscape.org/) -->

<svg
   xmlns:dc="http://purl.org/dc/elements/1.1/"
   xmlns:cc="http://creativecommons.org/ns#"
   xmlns:rdf="http://www.w3.org/1999/02/22-rdf-syntax-ns#"
   xmlns:svg="http://www.w3.org/2000/svg"
   xmlns="http://www.w3.org/2000/svg"
   xmlns:sodipodi="http://sodipodi.sourceforge.net/DTD/sodipodi-0.dtd"
   xmlns:inkscape="http://www.inkscape.org/namespaces/inkscape"
   width="744.09448819"
   height="1052.3622047"
   id="svg2"
   version="1.1"
   inkscape:version="0.48.5 r10040"
   sodipodi:docname="1.svg"
   inkscape:export-filename="/home/test/Programming/go/src/github.com/gragas/jabberwock-lib/assets/soul/movingRight/1.png"
   inkscape:export-xdpi="90"
   inkscape:export-ydpi="90">
  <defs
     id="defs4" />
  <sodipodi:namedview
     id="base"
     pagecolor="#ffffff"
     bordercolor="#666666"
     borderopacity="1.0"
     inkscape:pageopacity="0.0"
     inkscape:pageshadow="2"
     inkscape:zoom="3.959798"
     inkscape:cx="382.86605"
     inkscape:cy="572.56244"
     inkscape:document-units="px"
     inkscape:current-layer="layer1"
     showgrid="false"
     inkscape:window-width="1920"
     inkscape:window-height="1134"
     inkscape:window-x="0"
     inkscape:window-y="27"
     inkscape:window-maximized="1" />
  <metadata
     id="metadata7">
    <rdf:RDF>
      <cc:Work
         rdf:about="">
        <dc:format>image/svg+xml</dc:format>
        <dc:type
           rdf:resource="http://purl.org/dc/dcmitype/StillImage" />
        <dc:title></dc:title>
      </cc:Work>
    </rdf:RDF>
  </metadata>
  <g
     inkscape:label="Layer 1"
     inkscape:groupmode="layer"
     id="layer1">
    <path
       style="fill:#0000ff;fill-opacity:1"
       id="path3009"
       d="m 367.58233,449.33867 c 0.24942,-1.05007 0.34282,-2.12858 0.41534,-3.20287 0.0387,-0.81821 0.0266,-1.63555 0.17996,-2.4427 0.12729,-0.54738 0.27728,-1.08815 0.42885,-1.62904 0.11443,-0.51298 0.35233,-0.96005 0.63935,-1.39342 0.34142,-0.44236 0.76572,-0.80601 1.21359,-1.13548 1.27399,-0.82368 2.51461,-1.77866 3.9579,-2.25909 0.25549,-0.085 0.51882,-0.12158 0.77544,-0.20392 0.5334,-0.11978 1.06012,-0.26033 1.59814,-0.35937 0.52794,-0.0441 0.98783,-0.318 1.4846,-0.47399 0.4981,-0.0801 0.98331,-0.20463 1.47824,-0.3017 0.51486,-0.0494 1.00533,-0.20697 1.51583,-0.28665 0.57143,-0.10701 1.07315,0.12804 1.57864,0.35572 0.52804,0.26419 1.03051,0.57163 1.52902,0.88734 0.55881,0.4275 0.99564,0.97412 1.43196,1.51888 0.33191,0.47341 0.72748,0.89327 1.0467,1.37632 0.32045,0.37364 0.51918,0.82494 0.73904,1.2599 0.30253,0.53431 0.48398,1.1207 0.67853,1.69952 0.18643,0.51137 0.21206,1.05477 0.29166,1.58701 0.11269,0.51624 0.18341,1.03815 0.21603,1.56514 0.0679,0.57408 -0.0283,1.13702 -0.10818,1.70307 -0.11212,0.51285 -0.20251,1.03386 -0.35922,1.53557 -0.19078,0.54423 -0.44486,1.06063 -0.71089,1.57108 -0.29911,0.46337 -0.51054,0.97832 -0.85784,1.40874 -0.23717,0.33667 -0.41508,0.68139 -0.71557,0.96943 -1.00951,1.05724 -2.43575,1.52082 -3.71838,2.24834 -0.2098,0.119 -0.44115,0.18095 -0.67196,0.24266 -0.093,0.0141 -0.18742,0.0206 -0.27887,0.0424 -0.16937,0.0404 -0.32996,0.11228 -0.49836,0.15657 -0.24358,0.0641 -0.47232,0.0905 -0.70557,0.18779 -0.26574,0.1427 -0.57481,0.1277 -0.8569,0.20026 -0.0646,0.0166 -0.12328,0.0507 -0.18492,0.0761 -0.0745,0.0191 -0.14902,0.0382 -0.22353,0.0573 -0.5042,0.11595 -1.02191,0.14199 -1.53709,0.15923 -0.51128,0.012 -1.02275,0.01 -1.53412,0.009 -0.45911,-0.003 -0.87142,0.20148 -1.33452,0.15249 -0.40831,-0.15322 -0.81397,-0.29271 -1.21268,-0.46658 -0.41971,-0.14492 -0.86129,-0.23725 -1.26749,-0.41765 -0.38253,-0.15608 -0.78071,-0.29586 -1.13627,-0.50811 -0.36159,-0.20347 -0.70141,-0.45656 -1.02866,-0.71269 -0.40058,-0.24033 -0.74587,-0.55874 -1.06172,-0.89995 -0.31703,-0.2621 -0.55466,-0.58673 -0.80337,-0.90843 -0.28341,-0.3719 -0.4625,-0.78325 -0.57546,-1.23402 -0.15471,-0.49166 -0.25642,-0.99357 -0.31524,-1.50495 -0.0342,-0.3414 -0.0421,-0.68451 -0.0492,-1.02728 0,0 3.3415,-1.70958 3.3415,-1.70958 l 0,0 c 0.004,0.33293 0.008,0.66612 0.0341,0.99825 0.0462,0.49756 0.13119,0.98822 0.29536,1.46205 0.0872,0.40667 0.24418,0.76488 0.50381,1.09365 0.23463,0.31518 0.48333,0.61219 0.7772,0.87649 0.31134,0.32175 0.65082,0.60578 1.03109,0.84359 0.32622,0.23263 0.63518,0.4924 0.99951,0.66429 0.36414,0.17054 0.72986,0.33622 1.10796,0.47394 0.42505,0.144 0.86059,0.25882 1.27725,0.42637 0.35578,0.15366 0.73629,0.30156 1.12196,0.3412 0.44388,-0.0578 0.87864,-0.18935 1.33166,-0.14906 0.50769,-1.2e-4 1.0157,0.001 1.52296,-0.0229 0.50261,-0.0311 1.00592,-0.0812 1.49019,-0.22775 0.41677,-0.12262 0.85095,-0.18208 1.25658,-0.34603 0.49707,-0.11457 0.98793,-0.25208 1.47963,-0.38712 0.25715,-0.0999 0.1887,-0.0678 0.43657,-0.18573 0.0692,-0.0329 0.27242,-0.13967 0.20649,-0.10073 -5.44457,3.21578 -3.71607,2.27863 -2.68839,1.54624 0.13031,-0.15296 0.29571,-0.24686 0.42731,-0.3921 0.13082,-0.14439 0.10093,-0.18561 0.18838,-0.36374 0.0323,-0.0659 0.0745,-0.1264 0.11175,-0.18961 0.0951,-0.11552 0.20981,-0.21417 0.30346,-0.3309 0.24639,-0.30709 0.32686,-0.72182 0.59335,-1.01875 0.27636,-0.48686 0.51842,-0.98822 0.72871,-1.50509 0.16825,-0.48423 0.26567,-0.97986 0.39534,-1.47668 0.0717,-0.54571 0.20437,-1.0848 0.14179,-1.63828 -0.0291,-0.51353 -0.082,-1.02499 -0.19981,-1.52686 -0.0976,-0.51115 -0.0852,-1.04226 -0.26102,-1.53946 -0.18376,-0.56208 -0.35128,-1.13497 -0.65486,-1.64719 -0.21749,-0.42063 -0.4096,-0.85777 -0.71626,-1.2245 -0.31317,-0.47211 -0.70341,-0.88306 -1.02141,-1.35174 -0.4111,-0.51263 -0.82048,-1.03416 -1.36977,-1.40879 -0.48908,-0.30047 -0.97723,-0.60333 -1.5016,-0.84 -0.47442,-0.20093 -0.94004,-0.30394 -1.45304,-0.17399 -0.50269,0.10152 -1.00166,0.21752 -1.50875,0.29633 -0.48433,0.11038 -0.97896,0.18024 -1.45026,0.33984 -0.49118,0.1882 -0.98253,0.36753 -1.5093,0.4299 -0.52996,0.11907 -1.06097,0.23757 -1.58323,0.38714 -0.25378,0.0672 -0.50303,0.13233 -0.74172,0.24453 -0.0818,0.0384 -0.31799,0.17152 -0.24006,0.12581 3.33403,-1.95571 3.89173,-2.3169 2.71169,-1.56282 -0.46841,0.27653 -0.88046,0.62339 -1.25327,1.01951 -0.33228,0.36244 -0.56716,0.78572 -0.7052,1.25797 -0.1366,0.54377 -0.31299,1.07559 -0.44287,1.62151 -0.2136,0.78511 -0.1868,1.59426 -0.22954,2.40114 -0.0713,1.08433 -0.17949,2.16711 -0.36033,3.23912 0,0 -3.37767,1.62899 -3.37767,1.62899 z"
       inkscape:connector-curvature="0" />
    <path
       style="fill:#0000ff;fill-opacity:1"
       id="path3109"
       d="m 376.76983,480.6871 c 0.47004,1.21207 1.05896,2.36976 1.59619,3.55137 0.48676,1.01715 0.92834,2.05561 1.41302,3.0735 0.35382,0.70067 0.66485,1.4268 1.0486,2.11163 0.40967,0.62915 0.75647,1.2931 1.10645,1.95646 0.29254,0.63961 0.54339,1.30317 0.76907,1.97007 0.17881,0.53846 0.39326,1.06244 0.58828,1.5946 0.18593,0.46129 0.36063,0.92845 0.50987,1.40305 0.22105,0.62679 -0.009,1.18045 -0.28008,1.74527 -0.33112,0.71906 -0.74729,1.39176 -1.13943,2.0777 -0.35858,0.61767 -0.71083,1.23921 -1.00874,1.88868 -0.28366,0.57388 -0.53118,1.16381 -0.78146,1.75265 -0.18159,0.55421 -0.43138,1.08182 -0.62486,1.63137 -0.22055,0.57507 -0.42816,1.15684 -0.66999,1.7236 -0.19831,0.45169 -0.36221,0.91284 -0.50315,1.38493 -0.151,0.42838 -0.3053,0.85537 -0.4569,1.28351 -0.17415,0.38826 -0.28902,0.79628 -0.45893,1.18626 -0.0814,0.15799 -0.15955,0.31083 -0.20035,0.48365 0,0 -3.50916,1.39607 -3.50916,1.39607 l 0,0 c 0.20524,0.0449 0.20023,-0.178 0.28564,-0.32884 0.20973,-0.37287 0.31378,-0.77223 0.46847,-1.16801 0.20511,-0.39779 0.29468,-0.8503 0.46665,-1.26375 0.19623,-0.45463 0.26802,-0.96301 0.49879,-1.40819 0.24361,-0.55941 0.4587,-1.1274 0.68746,-1.69384 0.17127,-0.56674 0.43666,-1.09366 0.61868,-1.65526 0.22563,-0.60086 0.48629,-1.19314 0.779,-1.76406 0.27699,-0.67017 0.62721,-1.30426 0.99973,-1.9257 0.37742,-0.68699 0.81715,-1.33784 1.13966,-2.05457 0.23595,-0.47539 0.57336,-0.9376 0.39703,-1.48888 -0.14046,-0.47133 -0.31955,-0.93157 -0.50431,-1.38693 -0.18611,-0.53908 -0.40115,-1.06714 -0.57866,-1.60971 -0.20999,-0.65115 -0.46799,-1.28965 -0.73863,-1.91683 -0.34582,-0.66254 -0.68794,-1.32553 -1.10062,-1.95002 -0.38151,-0.69596 -0.70577,-1.42448 -1.04727,-2.14054 -0.47788,-1.02426 -0.91016,-2.06968 -1.38958,-3.09349 -0.52927,-1.1775 -1.10693,-2.33396 -1.64021,-3.50971 0,0 3.25974,-1.85604 3.25974,-1.85604 z"
       inkscape:connector-curvature="0" />
    <path
       style="fill:#0000ff;fill-opacity:1"
       id="path3115"
       d="m 376.85963,482.35724 c -0.53178,0.99028 -0.92111,2.04793 -1.30761,3.10086 -0.37094,0.99837 -0.61633,2.03225 -0.84729,3.06965 -0.20745,0.96537 -0.34137,1.94256 -0.49062,2.91766 -0.1295,0.90822 -0.23455,1.81248 -0.45276,2.70458 -0.1347,0.6686 -0.32359,1.3245 -0.46877,1.99053 -0.14542,0.50311 -0.24741,1.01448 -0.3515,1.52695 -0.12807,0.58005 -0.46446,1.07512 -0.75252,1.5844 -0.34978,0.69477 -0.69269,1.39303 -1.04053,2.08902 -0.34686,0.77888 -0.6508,1.57641 -0.97727,2.36445 -0.27856,0.74792 -0.59979,1.47856 -0.90261,2.21667 -0.2033,0.62579 -0.44441,1.23798 -0.66448,1.85767 -0.1965,0.53035 -0.44583,1.03966 -0.67278,1.55784 -0.2152,0.42794 -0.41891,0.86138 -0.62659,1.29319 -0.23077,0.38547 -0.49977,0.74868 -0.80235,1.08066 -0.0464,0.0552 -0.0928,0.11048 -0.13923,0.16572 0,0 -3.45873,1.47088 -3.45873,1.47088 l 0,0 c 0.0455,-0.0557 0.0909,-0.1115 0.13638,-0.16725 0.26862,-0.34678 0.59432,-0.64623 0.83318,-1.01887 0.26235,-0.39405 0.37486,-0.86726 0.65031,-1.25612 0.21065,-0.52006 0.45405,-1.02407 0.68656,-1.53371 0.20237,-0.63386 0.48921,-1.23743 0.66885,-1.87957 0.27985,-0.75041 0.64691,-1.46671 0.90065,-2.2278 0.34299,-0.78548 0.64848,-1.5849 0.97029,-2.37849 0.32184,-0.71043 0.7164,-1.38786 1.0263,-2.10492 0.26031,-0.49661 0.60469,-0.95744 0.77433,-1.4954 0.16456,-0.48953 0.16171,-1.02928 0.36773,-1.51153 0.1316,-0.67806 0.35094,-1.3336 0.48002,-2.0125 0.22183,-0.88482 0.37281,-1.77099 0.47173,-2.67904 0.16404,-0.97903 0.2835,-1.96556 0.48254,-2.93908 0.23655,-1.05188 0.46987,-2.10426 0.83853,-3.11999 0.3879,-1.05094 0.76534,-2.10932 1.25065,-3.12023 0,0 3.41759,-1.54623 3.41759,-1.54623 z"
       inkscape:connector-curvature="0" />
    <path
       style="fill:#0000ff;fill-opacity:1"
       id="path3117"
       d="m 373.34995,483.68964 c 0.0279,-1.13028 0.0184,-2.26108 0.0148,-3.39158 4.5e-4,-0.89358 -0.006,-1.78713 -0.012,-2.68068 -0.004,-0.55707 -0.005,-1.11415 -0.006,-1.67124 -2.4e-4,-0.55338 0.003,-1.10675 0.002,-1.66014 -8.5e-4,-0.53611 -0.002,-1.07221 -0.002,-1.60832 0.009,-0.57389 -0.0169,-1.14875 0.0229,-1.72153 0.0826,-0.54773 0.16115,-1.0945 0.19871,-1.64739 0.0279,-0.69636 0.14151,-1.38527 0.21114,-2.07809 0.009,-0.55728 0.12764,-1.099 0.21524,-1.64651 0.0515,-0.60881 0.11988,-1.21224 0.21285,-1.81616 0.0693,-0.58821 0.12984,-1.17382 0.24133,-1.75588 0.0646,-0.50544 0.19166,-0.99829 0.29069,-1.49719 0.12936,-0.48458 0.21875,-0.98085 0.37078,-1.45902 0.16181,-0.41713 0.19212,-0.8622 0.25353,-1.30024 0.11129,-0.42156 0.18441,-0.8479 0.22246,-1.28187 0,0 3.35875,-1.68077 3.35875,-1.68077 l 0,0 c -0.0261,0.44662 -0.0643,0.89511 -0.19818,1.3247 -0.12452,0.43573 -0.0666,0.9108 -0.23527,1.34079 -0.16225,0.46478 -0.25636,0.9405 -0.39758,1.41303 -0.0843,0.50438 -0.23737,0.99173 -0.29057,1.50112 -0.11208,0.58032 -0.21582,1.15383 -0.25447,1.74521 -0.0883,0.60323 -0.18937,1.20014 -0.21195,1.81094 -0.0647,0.54889 -0.21954,1.07974 -0.22491,1.63495 -0.0669,0.68841 -0.19119,1.37205 -0.21505,2.06324 -0.0274,0.55834 -0.0774,1.11385 -0.18912,1.66268 -0.0828,0.55669 -0.021,1.12294 -0.0375,1.68423 -3.7e-4,0.53676 -0.001,1.07352 -0.002,1.61028 -5.1e-4,0.55269 0.002,1.10535 0.002,1.65804 -6.1e-4,0.55903 -0.002,1.11806 -0.006,1.67708 -0.006,0.89762 -0.0124,1.79523 -0.012,2.69287 -0.004,1.12547 -0.0132,2.25123 0.0148,3.37647 0,0 -3.33836,1.70098 -3.33836,1.70098 z"
       inkscape:connector-curvature="0" />
    <path
       style="fill:#0000ff;fill-opacity:1"
       id="path3123"
       d="m 378.7927,460.52259 c 0.56629,1.29757 1.11743,2.60042 1.7146,3.88441 0.52038,0.97405 0.92992,1.99943 1.34687,3.02008 0.31022,0.86447 0.67794,1.7046 0.97617,2.57367 0.33265,0.86992 0.50596,1.78962 0.73044,2.69121 0.19401,0.77223 0.42141,1.53786 0.71216,2.27954 0.24572,0.54567 0.45606,1.10056 0.64969,1.66623 0.15642,0.50987 0.33834,1.01168 0.4634,1.53058 0.13132,0.50637 0.29592,1.00258 0.44089,1.50488 0.0808,0.46534 0.23342,0.9121 0.33847,1.37162 0,0 -3.31114,1.77732 -3.31114,1.77732 l 0,0 c -0.0934,-0.45575 -0.25754,-0.89233 -0.32254,-1.35436 -0.13988,-0.50999 -0.31322,-1.00967 -0.45011,-1.52072 -0.11077,-0.50965 -0.29562,-0.9961 -0.44226,-1.49575 -0.1968,-0.55936 -0.38364,-1.11887 -0.63264,-1.65878 -0.29673,-0.75678 -0.52594,-1.53991 -0.72069,-2.32857 -0.22824,-0.89064 -0.38854,-1.80291 -0.71881,-2.66359 -0.29058,-0.86416 -0.661,-1.69579 -0.96082,-2.55646 -0.41545,-1.01639 -0.8032,-2.04566 -1.31152,-3.02123 -0.58832,-1.28721 -1.11676,-2.60333 -1.76703,-3.8607 0,0 3.26487,-1.83938 3.26487,-1.83938 z"
       inkscape:connector-curvature="0" />
    <path
       style="fill:#0000ff;fill-opacity:1"
       id="path3125"
       d="m 377.03751,460.68417 c -0.80672,0.94965 -1.56878,1.93691 -2.2949,2.94946 -0.65234,0.89212 -1.15859,1.87133 -1.65426,2.85482 -0.35966,0.7087 -0.66645,1.44184 -0.95959,2.17994 -0.22196,0.58581 -0.41866,1.18001 -0.65413,1.76082 -0.26125,0.64144 -0.55332,1.27017 -0.80443,1.91569 -0.25191,0.55314 -0.39668,1.13942 -0.54968,1.72461 -0.15551,0.53131 -0.18376,1.08402 -0.25359,1.6294 -0.0953,0.55845 -0.19574,1.11461 -0.34472,1.6615 -0.15256,0.54942 -0.35803,1.08227 -0.50547,1.6329 -0.0777,0.5597 -0.2736,1.08772 -0.43255,1.62626 -0.0955,0.50282 -0.23522,0.99452 -0.35321,1.49206 -0.0657,0.29945 -0.0839,0.6057 -0.12475,0.90884 0,0 -3.38203,1.63966 -3.38203,1.63966 l 0,0 c 0.0839,-0.29931 0.07,-0.60771 0.12463,-0.91366 0.0974,-0.51172 0.28719,-0.99677 0.35216,-1.51546 0.13737,-0.54187 0.3745,-1.05535 0.43345,-1.61504 0.12525,-0.56515 0.34182,-1.09872 0.5014,-1.65418 0.17794,-0.52556 0.25761,-1.07055 0.36069,-1.61421 0.11256,-0.54801 0.0822,-1.12078 0.24456,-1.66238 0.15176,-0.5952 0.26731,-1.20269 0.53554,-1.76036 0.2314,-0.65425 0.53843,-1.2777 0.79532,-1.92218 0.23188,-0.58564 0.46896,-1.16773 0.66409,-1.76735 0.30871,-0.74344 0.58987,-1.49879 0.95983,-2.21599 0.51562,-0.99037 0.99328,-2.00314 1.65119,-2.91195 0.71395,-1.01507 1.48106,-1.9871 2.24093,-2.96739 0,0 3.44952,-1.45581 3.44952,-1.45581 z"
       inkscape:connector-curvature="0" />
  </g>
</svg>
