<?xml version="1.0" encoding="UTF-8" standalone="no"?>
<!-- Created with Inkscape (http://www.inkscape.org/) -->

<svg
   xmlns:dc="http://purl.org/dc/elements/1.1/"
   xmlns:cc="http://creativecommons.org/ns#"
   xmlns:rdf="http://www.w3.org/1999/02/22-rdf-syntax-ns#"
   xmlns:svg="http://www.w3.org/2000/svg"
   xmlns="http://www.w3.org/2000/svg"
   xmlns:sodipodi="http://sodipodi.sourceforge.net/DTD/sodipodi-0.dtd"
   xmlns:inkscape="http://www.inkscape.org/namespaces/inkscape"
   width="744.09448819"
   height="1052.3622047"
   id="svg2"
   version="1.1"
   inkscape:version="0.48.5 r10040"
   sodipodi:docname="3.svg"
   inkscape:export-filename="/home/test/Programming/go/src/github.com/gragas/jabberwock-lib/assets/soul/stationary/3.png"
   inkscape:export-xdpi="90"
   inkscape:export-ydpi="90">
  <defs
     id="defs4" />
  <sodipodi:namedview
     id="base"
     pagecolor="#ffffff"
     bordercolor="#666666"
     borderopacity="1.0"
     inkscape:pageopacity="0.0"
     inkscape:pageshadow="2"
     inkscape:zoom="3.959798"
     inkscape:cx="331.18335"
     inkscape:cy="575.16986"
     inkscape:document-units="px"
     inkscape:current-layer="layer1"
     showgrid="false"
     inkscape:window-width="1920"
     inkscape:window-height="1014"
     inkscape:window-x="0"
     inkscape:window-y="27"
     inkscape:window-maximized="1" />
  <metadata
     id="metadata7">
    <rdf:RDF>
      <cc:Work
         rdf:about="">
        <dc:format>image/svg+xml</dc:format>
        <dc:type
           rdf:resource="http://purl.org/dc/dcmitype/StillImage" />
        <dc:title></dc:title>
      </cc:Work>
    </rdf:RDF>
  </metadata>
  <g
     inkscape:label="Layer 1"
     inkscape:groupmode="layer"
     id="layer1">
    <path
       style="fill:#0000ff"
       id="path2989"
       d="m 294.51511,452.91257 c -0.21077,-1.08833 -0.32397,-2.18419 -0.31852,-3.29191 0.0419,-0.98369 0.263,-1.94618 0.66508,-2.84317 0.23592,-0.44483 0.55303,-0.90132 0.99661,-1.16678 3.35513,-2.00784 2.30802,-1.57337 3.97583,-2.22497 0.86456,-0.40933 1.77501,-0.6968 2.69168,-0.96267 0.85673,-0.22418 1.72053,-0.38864 2.60247,-0.46843 0.87293,-0.0602 1.74837,-0.0641 2.62296,-0.0695 1.02148,0.0617 1.80216,0.74471 2.54386,1.38046 1.01464,0.8571 1.91797,1.82427 2.7178,2.88251 0.42608,0.59809 0.7008,1.28488 0.8809,1.99289 0.16335,0.82995 0.14924,1.68414 0.15402,2.52667 0.0134,0.98101 -0.21069,1.92464 -0.574,2.82932 -0.26535,0.67541 -0.6476,1.28379 -1.11977,1.83145 -1.35553,1.3294 -3.15077,2.10306 -4.80889,2.99026 -0.52914,0.2267 -1.08396,0.40931 -1.64419,0.54502 -0.36115,0.10563 -0.74177,0.0655 -1.10904,0.11285 -0.17942,0.0231 -0.35384,0.0758 -0.53177,0.10841 -0.6056,0.10968 -1.22209,0.13217 -1.836,0.14624 -0.61793,0.0121 -1.22772,-0.12509 -1.84177,-0.18724 -0.53149,-0.14072 -1.07237,-0.19593 -1.57717,-0.41959 -0.58579,-0.22224 -1.16532,-0.46721 -1.72563,-0.74833 -0.53343,-0.25205 -1.05697,-0.52493 -1.54389,-0.86077 -0.53976,-0.29455 -0.91828,-0.78863 -1.3439,-1.21734 -0.2898,-0.33993 -0.54042,-0.70905 -0.69391,-1.12981 -0.14469,-0.49141 -0.26127,-0.9841 -0.32647,-1.49236 -0.0106,-0.51437 -0.12713,-1.01139 -0.21918,-1.51443 -0.0863,-0.37946 -0.0697,-0.75294 -0.008,-1.13287 0,0 3.3787,-1.64963 3.3787,-1.64963 l 0,0 c -0.0631,0.34418 -0.14537,0.66891 -0.0533,1.01928 0.0856,0.51143 0.22292,1.01314 0.22121,1.53588 0.0549,0.48398 0.16479,0.94901 0.29915,1.41618 0.12118,0.37388 0.35447,0.69393 0.60622,0.99223 0.39728,0.42291 0.7744,0.8728 1.29395,1.15336 0.48391,0.31088 1.00056,0.56603 1.51704,0.81777 0.56069,0.26373 1.12914,0.5123 1.71303,0.72062 0.49277,0.16419 1.01204,0.2417 1.52105,0.33961 0.59879,0.074 1.19752,0.1919 1.80368,0.14702 0.60686,-0.0281 1.21333,-0.0714 1.81008,-0.19217 0.53979,-0.0911 1.09387,-0.0906 1.62167,-0.24991 0.54166,-0.16463 1.08871,-0.32924 1.58602,-0.60557 1.27815,-0.67616 0.42484,-0.22973 -2.62025,1.53942 -0.0977,0.0568 0.19434,-0.1153 0.29219,-0.17178 0.28156,-0.16252 0.5306,-0.34338 0.76354,-0.57329 0.51731,-0.47805 0.90702,-1.06951 1.18638,-1.71567 0.40233,-0.84825 0.64171,-1.74934 0.65257,-2.69304 -0.0111,-0.81303 -0.001,-1.63408 -0.13899,-2.43788 -0.15379,-0.6631 -0.39816,-1.31143 -0.78046,-1.87794 -0.7664,-1.04639 -1.65144,-1.99317 -2.65625,-2.81634 -0.72098,-0.57717 -1.4588,-1.16542 -2.43045,-1.14456 -0.86555,0.003 -1.73277,0.0102 -2.5949,0.0954 -0.86718,0.10533 -1.72062,0.28345 -2.56103,0.52325 -0.90754,0.27814 -1.80233,0.58869 -2.66142,0.99621 -1.35722,0.65408 -0.88075,0.4385 2.41669,-1.464 0.11035,-0.0637 -0.21474,0.1375 -0.31729,0.21309 -0.10883,0.0802 -0.45503,0.36676 -0.54289,0.47166 -0.0816,0.0974 -0.13924,0.21251 -0.20886,0.31876 -0.44852,0.83649 -0.68374,1.75723 -0.75566,2.70356 -0.0217,1.07989 0.0596,2.15256 0.31334,3.2064 0,0 -3.30342,1.76616 -3.30342,1.76616 z"
       inkscape:connector-curvature="0" />
    <path
       style="fill:#0000ff"
       id="path3163"
       d="m 306.22833,457.37014 c -0.0268,1.29253 -0.0214,2.58557 -0.0236,3.87833 -0.0303,1.47458 -0.17418,2.94175 -0.31136,4.40902 -0.10155,1.05096 -0.1461,2.10572 -0.16823,3.16091 -0.0189,1.04682 -0.0193,2.09379 -0.0181,3.14073 -0.001,0.93221 0.007,1.86438 0.0141,2.79655 -10e-4,0.69446 7.6e-4,1.38892 0.003,2.08338 0.004,0.56463 0.002,1.12925 7.9e-4,1.69389 -0.006,0.76477 -0.008,1.52955 -0.006,2.29433 0.003,0.63499 0.006,1.26997 0.008,1.90496 0.001,0.51237 0.001,1.02473 0.001,1.5371 0.0285,0.52844 -0.0195,1.04625 -0.10392,1.56679 -0.0463,0.28768 -0.0727,0.57777 -0.0984,0.8678 0,0 -3.35349,1.67432 -3.35349,1.67432 l 0,0 c 0.0224,-0.29731 0.0456,-0.59465 0.0865,-0.89015 0.0701,-0.50564 0.17367,-0.99968 0.12481,-1.51464 7e-5,-0.51283 1.5e-4,-1.02566 0.001,-1.53849 0.002,-0.63756 0.005,-1.27511 0.008,-1.91266 0.001,-0.7627 -5.5e-4,-1.52539 -0.006,-2.28808 -9.7e-4,-0.5649 -0.003,-1.12979 8.1e-4,-1.69469 0.003,-0.69545 0.005,-1.3909 0.003,-2.08635 0.006,-0.93621 0.0127,-1.87242 0.01,-2.80866 -3.9e-4,-1.0471 -0.008,-2.09427 10e-4,-3.14132 0.0227,-1.06883 0.0755,-2.13671 0.18508,-3.20054 0.14493,-1.45728 0.29523,-2.91371 0.3309,-4.3791 -0.002,-1.28476 0.003,-2.5698 -0.0236,-3.85432 0,0 3.33468,-1.69911 3.33468,-1.69911 z"
       inkscape:connector-curvature="0" />
    <path
       style="fill:#0000ff"
       id="path3165"
       d="m 305.84194,464.98517 c -0.6305,0.88713 -1.21987,1.80165 -1.79116,2.72766 -0.41834,0.6776 -0.85001,1.34434 -1.30974,1.99442 -0.42522,0.59489 -0.72868,1.26101 -1.10048,1.88784 -0.37105,0.57828 -0.662,1.20098 -0.95947,1.8187 -0.26583,0.50138 -0.61049,0.9553 -0.92402,1.42786 -0.30266,0.45309 -0.58775,0.91929 -0.82179,1.41168 -0.15208,0.40708 -0.41866,0.75407 -0.60183,1.14427 -0.14686,0.35572 -0.30673,0.70529 -0.46922,1.05402 -0.18526,0.33888 -0.30523,0.70391 -0.45512,1.05814 -0.11667,0.31818 -0.26365,0.62599 -0.34541,0.95565 0,0 -3.38048,1.65578 -3.38048,1.65578 l 0,0 c 0.0349,-0.36929 0.19175,-0.69042 0.30946,-1.03721 0.0473,-0.11533 0.11454,-0.22212 0.15755,-0.3391 0.0896,-0.2436 0.11383,-0.51208 0.30006,-0.71388 0.12375,-0.36371 0.31391,-0.69996 0.47353,-1.04822 0.12979,-0.431 0.3963,-0.76811 0.60318,-1.16308 0.20253,-0.52517 0.49971,-1.00036 0.79145,-1.4798 0.32624,-0.45569 0.61841,-0.93373 0.95199,-1.38218 0.3173,-0.61754 0.58165,-1.26293 0.95068,-1.85332 0.4003,-0.61562 0.6883,-1.28758 1.08926,-1.90236 0.44553,-0.66349 0.93199,-1.29929 1.33999,-1.98869 0.5756,-0.9171 1.14635,-1.83659 1.7621,-2.72767 0,0 3.42947,-1.50051 3.42947,-1.50051 z"
       inkscape:connector-curvature="0" />
    <path
       style="fill:#0000ff"
       id="path3169"
       d="m 306.54604,465.0837 c 0.24933,0.97274 0.56565,1.92558 0.96087,2.84838 0.42527,0.84133 0.8685,1.67678 1.35395,2.48484 0.43376,0.80247 0.89475,1.58622 1.31353,2.397 0.36005,0.65513 0.72878,1.30429 1.10275,1.95138 0.28876,0.4953 0.58794,0.98265 0.8784,1.47691 0.20699,0.40652 0.43597,0.80221 0.66026,1.19972 0.2231,0.48506 0.44826,0.96697 0.70551,1.43566 0.26504,0.49144 0.45491,1.01642 0.65385,1.53637 0.16485,0.50028 0.36108,0.98822 0.5549,1.47797 0.20085,0.55067 0.41862,1.09469 0.61773,1.64591 0,0 -3.28516,1.8161 -3.28516,1.8161 l 0,0 c -0.18731,-0.55029 -0.40095,-1.09207 -0.60769,-1.63506 -0.19322,-0.49087 -0.40144,-0.9749 -0.5566,-1.47954 -0.19753,-0.50255 -0.36965,-1.01652 -0.6274,-1.49345 -0.25854,-0.46572 -0.48991,-0.94299 -0.70774,-1.42829 -0.22737,-0.39429 -0.45736,-0.78872 -0.65768,-1.19728 -0.28704,-0.49716 -0.58403,-0.98745 -0.86946,-1.48552 -0.37101,-0.65552 -0.74273,-1.3099 -1.10271,-1.97173 -0.4081,-0.80735 -0.86315,-1.58415 -1.29529,-2.37853 -0.49195,-0.82341 -0.94301,-1.67389 -1.37418,-2.53074 -0.40079,-0.9305 -0.70601,-1.89312 -1.00162,-2.86158 0,0 3.28378,-1.80852 3.28378,-1.80852 z"
       inkscape:connector-curvature="0" />
    <path
       style="fill:#0000ff"
       id="path3171"
       d="m 305.15686,486.15182 c -0.32036,0.90498 -0.70298,1.78448 -1.1143,2.65116 -0.291,0.69727 -0.65748,1.35751 -1.00538,2.02687 -0.29424,0.66112 -0.57849,1.32862 -0.83151,2.0068 -0.21805,0.55397 -0.40933,1.11783 -0.56695,1.69191 -0.18288,0.53572 -0.30231,1.08536 -0.41836,1.63797 -0.12945,0.50944 -0.30084,1.00661 -0.44973,1.51083 -0.17512,0.4766 -0.33955,0.95623 -0.45584,1.45075 -0.14768,0.52553 -0.27545,1.05193 -0.34299,1.59394 -0.0617,0.5707 -0.0333,1.1456 -0.0768,1.71696 -0.0805,0.51051 -0.15549,1.02055 -0.1947,1.53606 -0.0315,0.50037 -0.0328,1.00195 -0.0346,1.5031 -0.005,0.57388 -0.002,1.14779 -5.8e-4,1.72168 0.0199,0.53317 -0.1018,1.05608 -0.17099,1.58182 -0.0563,-0.0591 -0.0321,0.48136 -0.0181,0.33623 0,0 -3.23029,1.95495 -3.23029,1.95495 l 0,0 c -0.14218,-0.21687 -0.16458,-0.36386 -0.11597,-0.62789 0.0576,-0.51564 0.1862,-1.02402 0.19397,-1.54225 4.5e-4,-0.57374 0.002,-1.1475 -0.003,-1.72124 5.9e-4,-0.50833 2.9e-4,-1.01692 0.0238,-1.52483 0.0304,-0.52145 0.0848,-1.04071 0.18889,-1.55324 0.0904,-0.56497 0.0208,-1.14371 0.0813,-1.71301 0.043,-0.55551 0.14212,-1.102 0.32363,-1.63044 0.0983,-0.51025 0.24527,-1.00738 0.42913,-1.49323 0.20174,-0.47141 0.28847,-0.99617 0.47084,-1.47634 0.14913,-0.54551 0.19288,-1.12008 0.42048,-1.64586 0.1418,-0.58616 0.31992,-1.16645 0.55394,-1.72259 0.23645,-0.69913 0.56312,-1.36296 0.81887,-2.05517 0.33891,-0.67316 0.72827,-1.32085 1.01384,-2.01998 0.41112,-0.85038 0.83313,-1.6977 1.11792,-2.60134 0,0 3.39328,-1.59362 3.39328,-1.59362 z"
       inkscape:connector-curvature="0" />
    <path
       style="fill:#0000ff"
       id="path3173"
       d="m 306.05915,485.9904 c 0.40547,0.94933 0.81667,1.89523 1.33433,2.7893 0.51191,0.79353 0.91558,1.64374 1.31419,2.49696 0.26225,0.60536 0.49871,1.22257 0.72011,1.84414 0.2243,0.55924 0.45343,1.11595 0.68037,1.67405 0.27555,0.50327 0.46698,1.04466 0.70279,1.56563 0.22495,0.61196 0.41677,1.23604 0.632,1.85217 0.19188,0.54432 0.33718,1.10788 0.57596,1.63412 0.23866,0.49881 0.43371,1.01553 0.63444,1.53006 0.15244,0.52397 0.39517,1.00966 0.60275,1.51192 0.25752,0.48287 0.37411,1.01097 0.50687,1.53564 0.1048,0.47128 0.23051,0.9332 0.36706,1.39589 0.12163,0.53675 0.19891,1.08451 0.27449,1.62975 0.0886,0.63331 0.26512,1.24192 0.4517,1.85088 0.14635,0.39535 0.28196,0.79406 0.42534,1.19049 0,0 -3.28286,1.81824 -3.28286,1.81824 l 0,0 c -0.14462,-0.40347 -0.28425,-0.80786 -0.43546,-1.20895 -0.18228,-0.6303 -0.36351,-1.25658 -0.46566,-1.90699 -0.0755,-0.52722 -0.17602,-1.04988 -0.26692,-1.57401 -0.13127,-0.46764 -0.2696,-0.92899 -0.36586,-1.40587 -0.13934,-0.50606 -0.21836,-1.0295 -0.48239,-1.49441 -0.20232,-0.5057 -0.46078,-0.98663 -0.60472,-1.51505 -0.20275,-0.50626 -0.38475,-1.02086 -0.62248,-1.51284 -0.25064,-0.53535 -0.40079,-1.10996 -0.58944,-1.66906 -0.20799,-0.6063 -0.40622,-1.21596 -0.61926,-1.81968 -0.23826,-0.52498 -0.43114,-1.07069 -0.71015,-1.57731 -0.2321,-0.56266 -0.45105,-1.13042 -0.68482,-1.69264 -0.21457,-0.6123 -0.45365,-1.2166 -0.69357,-1.81908 -0.38678,-0.84638 -0.7763,-1.6906 -1.2779,-2.47778 -0.52297,-0.89878 -0.93059,-1.8532 -1.38064,-2.78953 0,0 3.25973,-1.85604 3.25973,-1.85604 z"
       inkscape:connector-curvature="0" />
  </g>
</svg>
