<?xml version="1.0" encoding="UTF-8" standalone="no"?>
<!-- Created with Inkscape (http://www.inkscape.org/) -->

<svg
   xmlns:dc="http://purl.org/dc/elements/1.1/"
   xmlns:cc="http://creativecommons.org/ns#"
   xmlns:rdf="http://www.w3.org/1999/02/22-rdf-syntax-ns#"
   xmlns:svg="http://www.w3.org/2000/svg"
   xmlns="http://www.w3.org/2000/svg"
   xmlns:sodipodi="http://sodipodi.sourceforge.net/DTD/sodipodi-0.dtd"
   xmlns:inkscape="http://www.inkscape.org/namespaces/inkscape"
   width="744.09448819"
   height="1052.3622047"
   id="svg2"
   version="1.1"
   inkscape:version="0.48.5 r10040"
   sodipodi:docname="0.svg"
   inkscape:export-filename="/home/test/Programming/go/src/github.com/gragas/jabberwock-lib/assets/soul/stationary/0.png"
   inkscape:export-xdpi="90"
   inkscape:export-ydpi="90">
  <defs
     id="defs4" />
  <sodipodi:namedview
     id="base"
     pagecolor="#ffffff"
     bordercolor="#666666"
     borderopacity="1.0"
     inkscape:pageopacity="0.0"
     inkscape:pageshadow="2"
     inkscape:zoom="3.959798"
     inkscape:cx="331.18335"
     inkscape:cy="575.16986"
     inkscape:document-units="px"
     inkscape:current-layer="layer1"
     showgrid="false"
     inkscape:window-width="1920"
     inkscape:window-height="1014"
     inkscape:window-x="0"
     inkscape:window-y="27"
     inkscape:window-maximized="1" />
  <metadata
     id="metadata7">
    <rdf:RDF>
      <cc:Work
         rdf:about="">
        <dc:format>image/svg+xml</dc:format>
        <dc:type
           rdf:resource="http://purl.org/dc/dcmitype/StillImage" />
        <dc:title></dc:title>
      </cc:Work>
    </rdf:RDF>
  </metadata>
  <g
     inkscape:label="Layer 1"
     inkscape:groupmode="layer"
     id="layer1">
    <path
       style="fill:#0000ff"
       id="path2989"
       d="m 294.51511,452.91257 c -0.21077,-1.08833 -0.32397,-2.18419 -0.31852,-3.29191 0.0419,-0.98369 0.263,-1.94618 0.66508,-2.84317 0.23592,-0.44483 0.55303,-0.90132 0.99661,-1.16678 3.35513,-2.00784 2.30802,-1.57337 3.97583,-2.22497 0.86456,-0.40933 1.77501,-0.6968 2.69168,-0.96267 0.85673,-0.22418 1.72053,-0.38864 2.60247,-0.46843 0.87293,-0.0602 1.74837,-0.0641 2.62296,-0.0695 1.02148,0.0617 1.80216,0.74471 2.54386,1.38046 1.01464,0.8571 1.91797,1.82427 2.7178,2.88251 0.42608,0.59809 0.7008,1.28488 0.8809,1.99289 0.16335,0.82995 0.14924,1.68414 0.15402,2.52667 0.0134,0.98101 -0.21069,1.92464 -0.574,2.82932 -0.26535,0.67541 -0.6476,1.28379 -1.11977,1.83145 -1.35553,1.3294 -3.15077,2.10306 -4.80889,2.99026 -0.52914,0.2267 -1.08396,0.40931 -1.64419,0.54502 -0.36115,0.10563 -0.74177,0.0655 -1.10904,0.11285 -0.17942,0.0231 -0.35384,0.0758 -0.53177,0.10841 -0.6056,0.10968 -1.22209,0.13217 -1.836,0.14624 -0.61793,0.0121 -1.22772,-0.12509 -1.84177,-0.18724 -0.53149,-0.14072 -1.07237,-0.19593 -1.57717,-0.41959 -0.58579,-0.22224 -1.16532,-0.46721 -1.72563,-0.74833 -0.53343,-0.25205 -1.05697,-0.52493 -1.54389,-0.86077 -0.53976,-0.29455 -0.91828,-0.78863 -1.3439,-1.21734 -0.2898,-0.33993 -0.54042,-0.70905 -0.69391,-1.12981 -0.14469,-0.49141 -0.26127,-0.9841 -0.32647,-1.49236 -0.0106,-0.51437 -0.12713,-1.01139 -0.21918,-1.51443 -0.0863,-0.37946 -0.0697,-0.75294 -0.008,-1.13287 0,0 3.3787,-1.64963 3.3787,-1.64963 l 0,0 c -0.0631,0.34418 -0.14537,0.66891 -0.0533,1.01928 0.0856,0.51143 0.22292,1.01314 0.22121,1.53588 0.0549,0.48398 0.16479,0.94901 0.29915,1.41618 0.12118,0.37388 0.35447,0.69393 0.60622,0.99223 0.39728,0.42291 0.7744,0.8728 1.29395,1.15336 0.48391,0.31088 1.00056,0.56603 1.51704,0.81777 0.56069,0.26373 1.12914,0.5123 1.71303,0.72062 0.49277,0.16419 1.01204,0.2417 1.52105,0.33961 0.59879,0.074 1.19752,0.1919 1.80368,0.14702 0.60686,-0.0281 1.21333,-0.0714 1.81008,-0.19217 0.53979,-0.0911 1.09387,-0.0906 1.62167,-0.24991 0.54166,-0.16463 1.08871,-0.32924 1.58602,-0.60557 1.27815,-0.67616 0.42484,-0.22973 -2.62025,1.53942 -0.0977,0.0568 0.19434,-0.1153 0.29219,-0.17178 0.28156,-0.16252 0.5306,-0.34338 0.76354,-0.57329 0.51731,-0.47805 0.90702,-1.06951 1.18638,-1.71567 0.40233,-0.84825 0.64171,-1.74934 0.65257,-2.69304 -0.0111,-0.81303 -0.001,-1.63408 -0.13899,-2.43788 -0.15379,-0.6631 -0.39816,-1.31143 -0.78046,-1.87794 -0.7664,-1.04639 -1.65144,-1.99317 -2.65625,-2.81634 -0.72098,-0.57717 -1.4588,-1.16542 -2.43045,-1.14456 -0.86555,0.003 -1.73277,0.0102 -2.5949,0.0954 -0.86718,0.10533 -1.72062,0.28345 -2.56103,0.52325 -0.90754,0.27814 -1.80233,0.58869 -2.66142,0.99621 -1.35722,0.65408 -0.88075,0.4385 2.41669,-1.464 0.11035,-0.0637 -0.21474,0.1375 -0.31729,0.21309 -0.10883,0.0802 -0.45503,0.36676 -0.54289,0.47166 -0.0816,0.0974 -0.13924,0.21251 -0.20886,0.31876 -0.44852,0.83649 -0.68374,1.75723 -0.75566,2.70356 -0.0217,1.07989 0.0596,2.15256 0.31334,3.2064 0,0 -3.30342,1.76616 -3.30342,1.76616 z"
       inkscape:connector-curvature="0" />
    <path
       style="fill:#0000ff"
       id="path3054"
       d="m 304.0681,457.58977 c 0.53781,1.55862 1.11324,3.10303 1.70499,4.64179 0.48954,1.13456 0.71418,2.33373 0.91941,3.54194 0.13315,0.69156 0.23338,1.38789 0.2732,2.09105 0.029,0.61562 0.0242,1.23202 0.0248,1.84811 -0.004,0.67569 -0.005,1.35139 -0.003,2.02709 -0.002,0.67532 -0.003,1.35063 -4.3e-4,2.02595 1.2e-4,0.61457 4.2e-4,1.22915 0.002,1.84372 -0.004,0.77304 -0.01,1.54606 -0.009,2.31912 6.4e-4,0.78007 0.002,1.56015 0.005,2.34022 -0.001,0.6432 0.002,1.28639 0.004,1.92959 10e-4,0.52164 0.002,1.04329 0.002,1.56493 -0.004,0.57313 -0.002,1.14627 -10e-4,1.71941 -0.0376,0.51935 0.0623,1.02591 0.14053,1.53588 0.0111,0.0858 0.0222,0.17162 0.0333,0.25742 0,0 -3.32317,1.74439 -3.32317,1.74439 l 0,0 c -0.01,-0.0829 -0.019,-0.16591 -0.0285,-0.24886 -0.0759,-0.5275 -0.20466,-1.04937 -0.16371,-1.58622 8.9e-4,-0.57266 0.003,-1.14534 -0.001,-1.71799 1.9e-4,-0.5223 4.9e-4,-1.04461 0.002,-1.56691 0.002,-0.64449 0.005,-1.28899 0.004,-1.9335 0.003,-0.7818 0.004,-1.5636 0.005,-2.34541 9.3e-4,-0.77011 -0.005,-1.54018 -0.009,-2.31028 10e-4,-0.61522 0.002,-1.23044 0.002,-1.84566 0.002,-0.67545 0.002,-1.35089 5.4e-4,-2.02634 0.003,-0.67545 0.003,-1.35089 0.002,-2.02634 0.002,-0.61011 0.002,-1.22044 -0.0162,-1.83033 -0.0327,-0.693 -0.10648,-1.38229 -0.23165,-2.06521 -0.19362,-1.18857 -0.36925,-2.37842 -0.84392,-3.49871 -0.58279,-1.53483 -1.12675,-3.08496 -1.75094,-4.60349 0,0 3.25781,-1.82536 3.25781,-1.82536 z"
       inkscape:connector-curvature="0" />
    <path
       style="fill:#0000ff"
       id="path3066"
       d="m 306.58798,487.7827 c 0.7073,1.3939 1.23136,2.86714 1.74863,4.33899 0.52653,1.41411 0.98359,2.85011 1.37846,4.30607 0.23399,1.15464 0.63684,2.26223 0.94315,3.39699 0.2425,0.72287 0.43268,1.46267 0.68405,2.18241 0.24041,0.65131 0.4994,1.29405 0.74347,1.94428 0.19484,0.52193 0.45615,1.00709 0.59638,1.54883 0.14358,0.62174 0.38972,1.20871 0.65434,1.78672 0.0423,0.10147 0.0845,0.20294 0.12677,0.30441 0,0 -3.26742,1.82783 -3.26742,1.82783 l 0,0 c -0.0391,-0.0976 -0.0782,-0.19527 -0.11738,-0.2929 -0.27131,-0.59968 -0.53462,-1.20338 -0.70108,-1.84229 -0.11856,-0.53324 -0.3785,-1.00411 -0.56047,-1.51607 -0.24588,-0.6524 -0.50404,-1.29777 -0.7495,-1.94996 -0.2591,-0.72984 -0.44059,-1.48397 -0.6734,-2.2224 -0.29415,-1.13877 -0.70737,-2.24455 -0.9282,-3.40304 -0.38834,-1.45085 -0.81575,-2.88913 -1.33391,-4.29985 -0.50374,-1.44988 -1.031,-2.90355 -1.79069,-4.24262 0,0 3.2468,-1.8674 3.2468,-1.8674 z"
       inkscape:connector-curvature="0" />
    <path
       style="fill:#0000ff"
       id="path3068"
       d="m 306.92043,486.43028 c -0.34401,1.09949 -0.59161,2.22467 -0.88688,3.33727 -0.22405,0.96831 -0.57182,1.89962 -0.86962,2.8461 -0.28959,0.78923 -0.5511,1.58689 -0.79367,2.39155 -0.21217,0.81056 -0.51542,1.59062 -0.71149,2.4055 -0.15061,0.68709 -0.35325,1.36061 -0.56861,2.02971 -0.21486,0.62496 -0.45956,1.23892 -0.64747,1.8728 -0.21456,0.62884 -0.31892,1.28791 -0.5273,1.91752 -0.21892,0.47293 -0.32053,0.98415 -0.48311,1.47577 -0.18988,0.42773 -0.3491,0.85632 -0.43168,1.31775 -0.10815,0.49391 -0.21623,0.98508 -0.27299,1.48803 -0.0252,0.24821 -0.0335,0.49754 -0.0423,0.74669 0,0 -3.34931,1.69428 -3.34931,1.69428 l 0,0 c 0.006,-0.2568 0.0115,-0.51372 0.0308,-0.76997 0.0434,-0.50873 0.1167,-1.01386 0.26321,-1.50446 0.0594,-0.4793 0.15452,-0.95388 0.40016,-1.37715 0.17346,-0.49537 0.27708,-1.00844 0.48711,-1.4921 0.26325,-0.60524 0.32034,-1.26955 0.55151,-1.8881 0.15941,-0.64732 0.40726,-1.26496 0.62759,-1.89324 0.2465,-0.64992 0.42743,-1.32535 0.60218,-1.99751 0.17224,-0.83 0.48216,-1.61184 0.69667,-2.4298 0.24817,-0.80478 0.48219,-1.61506 0.79735,-2.39725 0.29958,-0.94732 0.65771,-1.87475 0.89617,-2.84042 0.29767,-1.10632 0.55931,-2.222 0.84687,-3.33077 0,0 3.38488,-1.6022 3.38488,-1.6022 z"
       inkscape:connector-curvature="0" />
    <path
       style="fill:#0000ff"
       id="path3076"
       d="m 305.80662,460.23151 c 0.56806,1.11781 1.05773,2.26954 1.65866,3.37069 0.83562,1.60575 1.6175,3.23919 2.47231,4.83484 0.86517,1.57397 1.72793,3.14899 2.61527,4.71062 0.65249,1.10829 1.32939,2.20366 1.91697,3.34839 0.35169,0.71019 0.72394,1.40763 1.11553,2.09687 0.16265,0.22079 0.30679,0.45174 0.4408,0.69053 0,0 -3.25486,1.87089 -3.25486,1.87089 l 0,0 c -0.13007,-0.24 -0.27459,-0.46969 -0.42824,-0.69554 -0.38412,-0.6992 -0.76386,-1.3991 -1.11007,-2.11769 -0.57181,-1.14669 -1.20447,-2.2607 -1.84911,-3.36785 -0.88056,-1.56871 -1.77984,-3.12708 -2.63408,-4.71037 -0.84514,-1.598 -1.60855,-3.2377 -2.46842,-4.82806 -0.62709,-1.09265 -1.11111,-2.25296 -1.73449,-3.34727 0,0 3.25973,-1.85605 3.25973,-1.85605 z"
       inkscape:connector-curvature="0" />
    <path
       style="fill:#0000ff"
       id="path3078"
       d="m 305.1289,461.19186 c -0.56879,1.35553 -0.96523,2.7754 -1.32284,4.19873 -0.47666,2.05892 -0.70119,4.16144 -1.0635,6.24027 -0.1717,1.0713 -0.45757,2.11664 -0.81871,3.13805 -0.29057,0.66263 -0.56769,1.33236 -0.88504,1.98273 -0.28772,0.51079 -0.56569,1.023 -0.79977,1.56081 -0.19831,0.52985 -0.393,1.06181 -0.57049,1.5991 0,0 -3.38662,1.5968 -3.38662,1.5968 l 0,0 c 0.16583,-0.5469 0.38031,-1.07623 0.55779,-1.61931 0.19504,-0.56686 0.48172,-1.08961 0.78629,-1.60447 0.36147,-0.61792 0.57917,-1.30733 0.91177,-1.94076 0.39957,-1.00515 0.7057,-2.04782 0.90917,-3.1107 0.42342,-2.07188 0.62466,-4.18222 1.04876,-6.25506 0.34206,-1.42457 0.73362,-2.83731 1.23542,-4.21478 0,0 3.39777,-1.57141 3.39777,-1.57141 z"
       inkscape:connector-curvature="0" />
  </g>
</svg>
