<?xml version="1.0" encoding="UTF-8" standalone="no"?>
<!-- Created with Inkscape (http://www.inkscape.org/) -->

<svg
   xmlns:dc="http://purl.org/dc/elements/1.1/"
   xmlns:cc="http://creativecommons.org/ns#"
   xmlns:rdf="http://www.w3.org/1999/02/22-rdf-syntax-ns#"
   xmlns:svg="http://www.w3.org/2000/svg"
   xmlns="http://www.w3.org/2000/svg"
   xmlns:sodipodi="http://sodipodi.sourceforge.net/DTD/sodipodi-0.dtd"
   xmlns:inkscape="http://www.inkscape.org/namespaces/inkscape"
   width="744.09448819"
   height="1052.3622047"
   id="svg2"
   version="1.1"
   inkscape:version="0.48.5 r10040"
   sodipodi:docname="1.svg"
   inkscape:export-filename="/home/test/Programming/go/src/github.com/gragas/jabberwock-lib/assets/soul/stationary/1.png"
   inkscape:export-xdpi="90"
   inkscape:export-ydpi="90">
  <defs
     id="defs4" />
  <sodipodi:namedview
     id="base"
     pagecolor="#ffffff"
     bordercolor="#666666"
     borderopacity="1.0"
     inkscape:pageopacity="0.0"
     inkscape:pageshadow="2"
     inkscape:zoom="3.959798"
     inkscape:cx="331.18335"
     inkscape:cy="575.16986"
     inkscape:document-units="px"
     inkscape:current-layer="layer1"
     showgrid="false"
     inkscape:window-width="1920"
     inkscape:window-height="1014"
     inkscape:window-x="0"
     inkscape:window-y="27"
     inkscape:window-maximized="1" />
  <metadata
     id="metadata7">
    <rdf:RDF>
      <cc:Work
         rdf:about="">
        <dc:format>image/svg+xml</dc:format>
        <dc:type
           rdf:resource="http://purl.org/dc/dcmitype/StillImage" />
        <dc:title></dc:title>
      </cc:Work>
    </rdf:RDF>
  </metadata>
  <g
     inkscape:label="Layer 1"
     inkscape:groupmode="layer"
     id="layer1">
    <path
       style="fill:#0000ff"
       id="path2989"
       d="m 294.51511,452.91257 c -0.21077,-1.08833 -0.32397,-2.18419 -0.31852,-3.29191 0.0419,-0.98369 0.263,-1.94618 0.66508,-2.84317 0.23592,-0.44483 0.55303,-0.90132 0.99661,-1.16678 3.35513,-2.00784 2.30802,-1.57337 3.97583,-2.22497 0.86456,-0.40933 1.77501,-0.6968 2.69168,-0.96267 0.85673,-0.22418 1.72053,-0.38864 2.60247,-0.46843 0.87293,-0.0602 1.74837,-0.0641 2.62296,-0.0695 1.02148,0.0617 1.80216,0.74471 2.54386,1.38046 1.01464,0.8571 1.91797,1.82427 2.7178,2.88251 0.42608,0.59809 0.7008,1.28488 0.8809,1.99289 0.16335,0.82995 0.14924,1.68414 0.15402,2.52667 0.0134,0.98101 -0.21069,1.92464 -0.574,2.82932 -0.26535,0.67541 -0.6476,1.28379 -1.11977,1.83145 -1.35553,1.3294 -3.15077,2.10306 -4.80889,2.99026 -0.52914,0.2267 -1.08396,0.40931 -1.64419,0.54502 -0.36115,0.10563 -0.74177,0.0655 -1.10904,0.11285 -0.17942,0.0231 -0.35384,0.0758 -0.53177,0.10841 -0.6056,0.10968 -1.22209,0.13217 -1.836,0.14624 -0.61793,0.0121 -1.22772,-0.12509 -1.84177,-0.18724 -0.53149,-0.14072 -1.07237,-0.19593 -1.57717,-0.41959 -0.58579,-0.22224 -1.16532,-0.46721 -1.72563,-0.74833 -0.53343,-0.25205 -1.05697,-0.52493 -1.54389,-0.86077 -0.53976,-0.29455 -0.91828,-0.78863 -1.3439,-1.21734 -0.2898,-0.33993 -0.54042,-0.70905 -0.69391,-1.12981 -0.14469,-0.49141 -0.26127,-0.9841 -0.32647,-1.49236 -0.0106,-0.51437 -0.12713,-1.01139 -0.21918,-1.51443 -0.0863,-0.37946 -0.0697,-0.75294 -0.008,-1.13287 0,0 3.3787,-1.64963 3.3787,-1.64963 l 0,0 c -0.0631,0.34418 -0.14537,0.66891 -0.0533,1.01928 0.0856,0.51143 0.22292,1.01314 0.22121,1.53588 0.0549,0.48398 0.16479,0.94901 0.29915,1.41618 0.12118,0.37388 0.35447,0.69393 0.60622,0.99223 0.39728,0.42291 0.7744,0.8728 1.29395,1.15336 0.48391,0.31088 1.00056,0.56603 1.51704,0.81777 0.56069,0.26373 1.12914,0.5123 1.71303,0.72062 0.49277,0.16419 1.01204,0.2417 1.52105,0.33961 0.59879,0.074 1.19752,0.1919 1.80368,0.14702 0.60686,-0.0281 1.21333,-0.0714 1.81008,-0.19217 0.53979,-0.0911 1.09387,-0.0906 1.62167,-0.24991 0.54166,-0.16463 1.08871,-0.32924 1.58602,-0.60557 1.27815,-0.67616 0.42484,-0.22973 -2.62025,1.53942 -0.0977,0.0568 0.19434,-0.1153 0.29219,-0.17178 0.28156,-0.16252 0.5306,-0.34338 0.76354,-0.57329 0.51731,-0.47805 0.90702,-1.06951 1.18638,-1.71567 0.40233,-0.84825 0.64171,-1.74934 0.65257,-2.69304 -0.0111,-0.81303 -0.001,-1.63408 -0.13899,-2.43788 -0.15379,-0.6631 -0.39816,-1.31143 -0.78046,-1.87794 -0.7664,-1.04639 -1.65144,-1.99317 -2.65625,-2.81634 -0.72098,-0.57717 -1.4588,-1.16542 -2.43045,-1.14456 -0.86555,0.003 -1.73277,0.0102 -2.5949,0.0954 -0.86718,0.10533 -1.72062,0.28345 -2.56103,0.52325 -0.90754,0.27814 -1.80233,0.58869 -2.66142,0.99621 -1.35722,0.65408 -0.88075,0.4385 2.41669,-1.464 0.11035,-0.0637 -0.21474,0.1375 -0.31729,0.21309 -0.10883,0.0802 -0.45503,0.36676 -0.54289,0.47166 -0.0816,0.0974 -0.13924,0.21251 -0.20886,0.31876 -0.44852,0.83649 -0.68374,1.75723 -0.75566,2.70356 -0.0217,1.07989 0.0596,2.15256 0.31334,3.2064 0,0 -3.30342,1.76616 -3.30342,1.76616 z"
       inkscape:connector-curvature="0" />
    <path
       style="fill:#0000ff"
       id="path3099"
       d="m 305.45066,457.60826 c -0.12282,1.28967 -0.22381,2.5816 -0.33373,3.8727 -0.0616,1.12693 -0.20561,2.24592 -0.46045,3.3452 -0.23988,0.9523 -0.39449,1.92458 -0.52908,2.89667 -0.12383,0.95684 -0.15414,1.9217 -0.17277,2.88521 -0.009,0.77132 -0.007,1.5427 -0.003,2.31405 0.0359,0.53466 -0.0856,1.05694 -0.16212,1.58198 -0.0765,0.60452 -0.0773,1.21513 -0.0857,1.82342 -0.0342,0.80791 0.0122,1.60861 0.12022,2.40905 0.10775,0.86718 0.31713,1.71503 0.48265,2.57162 0.10815,0.56035 0.14124,1.13001 0.15686,1.69919 0.009,0.50414 0.006,1.00839 0.004,1.51258 -10e-4,0.504 -0.002,1.008 -0.002,1.512 0,0 -3.34451,1.7039 -3.34451,1.7039 l 0,0 c 2e-4,-0.5042 5.1e-4,-1.00841 0.002,-1.51261 10e-4,-0.50162 0.004,-1.00326 1.5e-4,-1.50487 -0.008,-0.5525 -0.0266,-1.1062 -0.11759,-1.65246 -0.14845,-0.86565 -0.35845,-1.71951 -0.47104,-2.59151 -0.13212,-0.81233 -0.20183,-1.62733 -0.16587,-2.45112 0.002,-0.6196 0.006,-1.24011 0.0519,-1.85826 0.0621,-0.51641 0.21163,-1.02267 0.19938,-1.54464 0.002,-0.77521 -0.003,-1.55048 0.009,-2.32563 0.0172,-0.97803 0.0555,-1.95665 0.16616,-2.92918 0.12509,-0.9824 0.26976,-1.9666 0.503,-2.92956 0.28442,-1.0818 0.45191,-2.18974 0.51455,-3.30697 0.11088,-1.28364 0.23092,-2.56539 0.28283,-3.85322 0,0 3.35497,-1.66754 3.35497,-1.66754 z"
       inkscape:connector-curvature="0" />
    <path
       style="fill:#0000ff"
       id="path3103"
       d="m 304.48484,485.82628 c 0.2109,1.38251 0.75177,2.6792 1.21762,3.98865 0.5583,1.48571 1.19629,2.93908 1.74159,4.42968 0.35921,0.90533 0.62243,1.84485 0.90565,2.77603 0.21296,0.74684 0.39806,1.50084 0.61818,2.24551 0.18139,0.53217 0.21435,1.09276 0.29866,1.6433 0.086,0.49721 0.27297,0.96819 0.44792,1.43879 0.18131,0.60739 0.39343,1.20471 0.56117,1.816 0.21171,0.57278 0.32436,1.17025 0.46032,1.7627 0.10884,0.51965 0.28419,1.02083 0.40404,1.53758 0.0821,0.45235 0.23457,0.88452 0.31412,1.33794 0,0 -3.3199,1.7596 -3.3199,1.7596 l 0,0 c -0.0671,-0.45034 -0.22086,-0.8747 -0.29998,-1.32136 -0.10901,-0.51796 -0.29283,-1.01403 -0.39878,-1.53279 -0.1469,-0.58647 -0.22128,-1.19181 -0.44762,-1.75832 -0.15786,-0.60175 -0.37909,-1.18276 -0.5545,-1.77947 -0.18318,-0.49147 -0.3789,-0.98303 -0.48057,-1.49958 -0.10316,-0.53456 -0.0956,-1.0892 -0.27043,-1.61165 -0.21288,-0.74679 -0.39684,-1.50063 -0.60198,-2.24972 -0.27862,-0.92838 -0.53983,-1.86305 -0.87401,-2.77315 -0.51735,-1.5016 -1.14168,-2.96194 -1.71507,-4.44248 -0.48476,-1.32895 -1.01842,-2.64292 -1.32923,-4.02763 0,0 3.3228,-1.73963 3.3228,-1.73963 z"
       inkscape:connector-curvature="0" />
    <path
       style="fill:#0000ff"
       id="path3107"
       d="m 304.37597,485.91601 c -0.36524,0.8186 -0.62426,1.67624 -0.96935,2.50334 -0.26738,0.60132 -0.55298,1.19468 -0.86415,1.77455 -0.31518,0.60403 -0.52858,1.2556 -0.76347,1.89383 -0.28854,0.74004 -0.51281,1.50223 -0.77521,2.25129 -0.24893,0.70016 -0.51791,1.39278 -0.76938,2.09212 -0.2503,0.60117 -0.40328,1.2313 -0.566,1.85952 -0.16151,0.56439 -0.36016,1.11697 -0.54034,1.67536 -0.1636,0.53025 -0.38183,1.04026 -0.6122,1.54422 -0.19761,0.49555 -0.34825,1.00737 -0.54294,1.5045 -0.14915,0.47825 -0.33513,0.94677 -0.44941,1.4349 -0.075,0.62982 -0.18821,1.25404 -0.27479,1.88236 -0.079,0.54062 -0.0611,1.08873 -0.15831,1.62642 -0.10708,0.43785 -0.15481,0.88455 -0.18138,1.33342 -0.0159,0.32778 -0.0182,0.65598 -0.0206,0.98406 0,0 -3.34552,1.70243 -3.34552,1.70243 l 0,0 c 0.001,-0.33268 0.002,-0.66542 0.0119,-0.99798 0.0179,-0.4648 0.044,-0.93171 0.15318,-1.38574 0.12767,-0.52975 0.12602,-1.06541 0.18269,-1.60691 0.0806,-0.63495 0.21189,-1.26081 0.26194,-1.89914 0.0772,-0.52123 0.27493,-0.9904 0.41761,-1.49506 0.1914,-0.50368 0.38789,-1.00316 0.53565,-1.5221 0.21627,-0.49856 0.46073,-0.98418 0.63143,-1.50171 0.16028,-0.56215 0.37447,-1.10737 0.55337,-1.66386 0.16252,-0.63547 0.29109,-1.2815 0.55597,-1.88537 0.22629,-0.71362 0.53326,-1.39804 0.77992,-2.10463 0.2724,-0.74262 0.47012,-1.50795 0.76487,-2.24227 0.21522,-0.65832 0.47125,-1.30844 0.73597,-1.94721 0.3111,-0.57464 0.60395,-1.15719 0.88683,-1.74623 0.35312,-0.8232 0.65603,-1.65931 0.95453,-2.50394 0,0 3.40714,-1.56017 3.40714,-1.56017 z"
       inkscape:connector-curvature="0" />
    <path
       style="fill:#0000ff"
       id="path3109"
       d="m 304.80203,460.09115 c 0.69768,1.93189 1.36707,3.87409 2.03025,5.81808 0.46678,1.27267 0.87358,2.56162 1.26945,3.85645 0.29107,1.08894 0.67724,2.14483 1.08172,3.19541 0.31469,0.77301 0.62746,1.54631 0.95397,2.31447 0.20441,0.51001 0.38101,1.02968 0.59798,1.53429 0.21145,0.35142 0.4149,0.7048 0.68243,1.01667 0.2368,0.35456 0.59332,0.59099 0.93189,0.8387 0.26208,0.24532 0.53686,0.47546 0.78025,0.73981 0,0 -3.21245,1.95623 -3.21245,1.95623 l 0,0 c -0.23479,-0.24072 -0.48325,-0.46751 -0.74145,-0.68295 -0.3622,-0.26374 -0.71848,-0.54457 -0.9776,-0.91539 -0.28745,-0.34325 -0.516,-0.72707 -0.73904,-1.11459 -0.21311,-0.50804 -0.39041,-1.02865 -0.586,-1.54386 -0.31776,-0.77734 -0.62834,-1.55712 -0.9361,-2.3385 -0.39552,-1.06153 -0.80284,-2.11895 -1.09193,-3.21636 -0.40289,-1.29325 -0.75349,-2.60356 -1.20549,-3.88262 -0.62906,-1.94566 -1.2863,-3.88941 -2.10874,-5.7629 0,0 3.27086,-1.81294 3.27086,-1.81294 z"
       inkscape:connector-curvature="0" />
    <path
       style="fill:#0000ff"
       id="path3111"
       d="m 303.82733,462.18591 c -0.65803,0.84345 -1.24417,1.73789 -1.69634,2.70791 -0.36248,0.78751 -0.59588,1.62026 -0.8209,2.45416 -0.1857,0.77648 -0.44181,1.53057 -0.70878,2.28173 -0.30559,0.81015 -0.59901,1.62256 -0.85495,2.45001 -0.19669,0.64595 -0.44662,1.27234 -0.72076,1.8887 -0.24622,0.49662 -0.5048,0.98915 -0.77469,1.47374 -0.21303,0.41797 -0.31781,0.87666 -0.52421,1.29849 -0.19835,0.42949 -0.3912,0.86135 -0.60135,1.2853 -0.21501,0.37596 -0.46367,0.72617 -0.67119,1.10678 -0.20885,0.44695 -0.2879,0.94132 -0.40564,1.41803 -0.11568,0.48614 -0.12999,0.98611 -0.22057,1.47646 -0.0585,0.34181 -0.12428,0.68083 -0.2096,1.017 0,0 -3.38568,1.61796 -3.38568,1.61796 l 0,0 c 0.088,-0.33019 0.17945,-0.65534 0.21877,-0.99614 0.1028,-0.49409 0.13417,-0.99034 0.21416,-1.48858 0.11144,-0.50142 0.23083,-0.99983 0.36675,-1.49369 0.17963,-0.40596 0.41017,-0.76992 0.66258,-1.13009 0.25977,-0.38757 0.4179,-0.83835 0.60754,-1.2628 0.21479,-0.42557 0.39811,-0.84994 0.52166,-1.31244 0.2583,-0.48676 0.52555,-0.96678 0.79485,-1.44822 0.26561,-0.6128 0.55295,-1.21585 0.7533,-1.85521 0.25021,-0.8332 0.5324,-1.65342 0.85113,-2.46243 0.24823,-0.75094 0.54695,-1.48581 0.71429,-2.26185 0.2499,-0.84279 0.43881,-1.70561 0.80983,-2.50891 0.42833,-0.99255 1.00251,-1.90074 1.63896,-2.77312 0,0 3.44084,-1.48279 3.44084,-1.48279 z"
       inkscape:connector-curvature="0" />
  </g>
</svg>
