<?xml version="1.0" encoding="UTF-8" standalone="no"?>
<!-- Created with Inkscape (http://www.inkscape.org/) -->

<svg
   xmlns:dc="http://purl.org/dc/elements/1.1/"
   xmlns:cc="http://creativecommons.org/ns#"
   xmlns:rdf="http://www.w3.org/1999/02/22-rdf-syntax-ns#"
   xmlns:svg="http://www.w3.org/2000/svg"
   xmlns="http://www.w3.org/2000/svg"
   xmlns:sodipodi="http://sodipodi.sourceforge.net/DTD/sodipodi-0.dtd"
   xmlns:inkscape="http://www.inkscape.org/namespaces/inkscape"
   width="744.09448819"
   height="1052.3622047"
   id="svg2"
   version="1.1"
   inkscape:version="0.48.5 r10040"
   sodipodi:docname="2.svg"
   inkscape:export-filename="/home/test/Programming/go/src/github.com/gragas/jabberwock-lib/assets/soul/stationary/2.png"
   inkscape:export-xdpi="90"
   inkscape:export-ydpi="90">
  <defs
     id="defs4" />
  <sodipodi:namedview
     id="base"
     pagecolor="#ffffff"
     bordercolor="#666666"
     borderopacity="1.0"
     inkscape:pageopacity="0.0"
     inkscape:pageshadow="2"
     inkscape:zoom="3.959798"
     inkscape:cx="331.18335"
     inkscape:cy="575.16986"
     inkscape:document-units="px"
     inkscape:current-layer="layer1"
     showgrid="false"
     inkscape:window-width="1920"
     inkscape:window-height="1014"
     inkscape:window-x="0"
     inkscape:window-y="27"
     inkscape:window-maximized="1" />
  <metadata
     id="metadata7">
    <rdf:RDF>
      <cc:Work
         rdf:about="">
        <dc:format>image/svg+xml</dc:format>
        <dc:type
           rdf:resource="http://purl.org/dc/dcmitype/StillImage" />
        <dc:title></dc:title>
      </cc:Work>
    </rdf:RDF>
  </metadata>
  <g
     inkscape:label="Layer 1"
     inkscape:groupmode="layer"
     id="layer1">
    <path
       style="fill:#0000ff"
       id="path2989"
       d="m 294.51511,452.91257 c -0.21077,-1.08833 -0.32397,-2.18419 -0.31852,-3.29191 0.0419,-0.98369 0.263,-1.94618 0.66508,-2.84317 0.23592,-0.44483 0.55303,-0.90132 0.99661,-1.16678 3.35513,-2.00784 2.30802,-1.57337 3.97583,-2.22497 0.86456,-0.40933 1.77501,-0.6968 2.69168,-0.96267 0.85673,-0.22418 1.72053,-0.38864 2.60247,-0.46843 0.87293,-0.0602 1.74837,-0.0641 2.62296,-0.0695 1.02148,0.0617 1.80216,0.74471 2.54386,1.38046 1.01464,0.8571 1.91797,1.82427 2.7178,2.88251 0.42608,0.59809 0.7008,1.28488 0.8809,1.99289 0.16335,0.82995 0.14924,1.68414 0.15402,2.52667 0.0134,0.98101 -0.21069,1.92464 -0.574,2.82932 -0.26535,0.67541 -0.6476,1.28379 -1.11977,1.83145 -1.35553,1.3294 -3.15077,2.10306 -4.80889,2.99026 -0.52914,0.2267 -1.08396,0.40931 -1.64419,0.54502 -0.36115,0.10563 -0.74177,0.0655 -1.10904,0.11285 -0.17942,0.0231 -0.35384,0.0758 -0.53177,0.10841 -0.6056,0.10968 -1.22209,0.13217 -1.836,0.14624 -0.61793,0.0121 -1.22772,-0.12509 -1.84177,-0.18724 -0.53149,-0.14072 -1.07237,-0.19593 -1.57717,-0.41959 -0.58579,-0.22224 -1.16532,-0.46721 -1.72563,-0.74833 -0.53343,-0.25205 -1.05697,-0.52493 -1.54389,-0.86077 -0.53976,-0.29455 -0.91828,-0.78863 -1.3439,-1.21734 -0.2898,-0.33993 -0.54042,-0.70905 -0.69391,-1.12981 -0.14469,-0.49141 -0.26127,-0.9841 -0.32647,-1.49236 -0.0106,-0.51437 -0.12713,-1.01139 -0.21918,-1.51443 -0.0863,-0.37946 -0.0697,-0.75294 -0.008,-1.13287 0,0 3.3787,-1.64963 3.3787,-1.64963 l 0,0 c -0.0631,0.34418 -0.14537,0.66891 -0.0533,1.01928 0.0856,0.51143 0.22292,1.01314 0.22121,1.53588 0.0549,0.48398 0.16479,0.94901 0.29915,1.41618 0.12118,0.37388 0.35447,0.69393 0.60622,0.99223 0.39728,0.42291 0.7744,0.8728 1.29395,1.15336 0.48391,0.31088 1.00056,0.56603 1.51704,0.81777 0.56069,0.26373 1.12914,0.5123 1.71303,0.72062 0.49277,0.16419 1.01204,0.2417 1.52105,0.33961 0.59879,0.074 1.19752,0.1919 1.80368,0.14702 0.60686,-0.0281 1.21333,-0.0714 1.81008,-0.19217 0.53979,-0.0911 1.09387,-0.0906 1.62167,-0.24991 0.54166,-0.16463 1.08871,-0.32924 1.58602,-0.60557 1.27815,-0.67616 0.42484,-0.22973 -2.62025,1.53942 -0.0977,0.0568 0.19434,-0.1153 0.29219,-0.17178 0.28156,-0.16252 0.5306,-0.34338 0.76354,-0.57329 0.51731,-0.47805 0.90702,-1.06951 1.18638,-1.71567 0.40233,-0.84825 0.64171,-1.74934 0.65257,-2.69304 -0.0111,-0.81303 -0.001,-1.63408 -0.13899,-2.43788 -0.15379,-0.6631 -0.39816,-1.31143 -0.78046,-1.87794 -0.7664,-1.04639 -1.65144,-1.99317 -2.65625,-2.81634 -0.72098,-0.57717 -1.4588,-1.16542 -2.43045,-1.14456 -0.86555,0.003 -1.73277,0.0102 -2.5949,0.0954 -0.86718,0.10533 -1.72062,0.28345 -2.56103,0.52325 -0.90754,0.27814 -1.80233,0.58869 -2.66142,0.99621 -1.35722,0.65408 -0.88075,0.4385 2.41669,-1.464 0.11035,-0.0637 -0.21474,0.1375 -0.31729,0.21309 -0.10883,0.0802 -0.45503,0.36676 -0.54289,0.47166 -0.0816,0.0974 -0.13924,0.21251 -0.20886,0.31876 -0.44852,0.83649 -0.68374,1.75723 -0.75566,2.70356 -0.0217,1.07989 0.0596,2.15256 0.31334,3.2064 0,0 -3.30342,1.76616 -3.30342,1.76616 z"
       inkscape:connector-curvature="0" />
    <path
       style="fill:#0000ff"
       id="path3132"
       d="m 306.18941,457.09225 c -0.28666,0.9574 -0.48757,1.93389 -0.61406,2.92441 -0.079,0.66827 -0.0984,1.34109 -0.10487,2.0133 0.0232,0.68045 -0.0307,1.35436 -0.1077,2.02956 -0.0909,0.76136 -0.12,1.52811 -0.13591,2.29411 -0.0106,0.66756 -0.011,1.33522 -0.0105,2.00284 0.002,0.6353 0.001,1.27059 0.003,1.90589 0.002,0.5424 0.003,1.08481 0.003,1.62722 -0.001,0.61595 -0.003,1.23191 -0.006,1.84787 -0.002,0.8283 -0.004,1.6566 -0.006,2.48491 -0.001,0.97243 -0.005,1.94486 -0.001,2.91728 0.026,0.7432 -0.037,1.49263 0.0328,2.23371 0.0873,0.46428 0.16097,0.92905 0.1995,1.40003 0.0328,0.49597 0.0336,0.99329 0.0353,1.49011 -0.002,0.56643 -0.003,1.13286 -0.003,1.6993 10e-4,0.48139 -0.002,0.96276 -0.002,1.44415 0,0 -3.33864,1.70107 -3.33864,1.70107 l 0,0 c 2.8e-4,-0.48113 -0.003,-0.96224 -5.4e-4,-1.44336 10e-4,-0.56539 0.002,-1.13078 -5.7e-4,-1.69617 -7.7e-4,-0.48852 -2.1e-4,-0.97735 -0.0249,-1.46538 -0.0307,-0.46807 -0.0933,-0.93114 -0.18834,-1.39076 -0.0931,-0.75525 0.005,-1.5232 -0.0276,-2.28234 0.003,-0.97208 3e-4,-1.94417 -0.001,-2.91625 -0.002,-0.82622 -0.004,-1.65243 -0.006,-2.47865 -0.003,-0.61391 -0.004,-1.22782 -0.006,-1.84174 4.3e-4,-0.54333 0.001,-1.08667 0.003,-1.63001 0.001,-0.63594 -5.3e-4,-1.27187 5.2e-4,-1.90781 -1.2e-4,-0.67057 -0.003,-1.34122 0.009,-2.0117 0.0183,-0.77631 0.0454,-1.55254 0.12009,-2.32587 0.0802,-0.66209 0.15615,-1.32023 0.11598,-1.98883 0.007,-0.689 0.0286,-1.37847 0.10913,-2.06344 0.12254,-0.99457 0.30671,-1.97805 0.57514,-2.94446 0,0 3.37767,-1.62899 3.37767,-1.62899 z"
       inkscape:connector-curvature="0" />
    <path
       style="fill:#0000ff"
       id="path3134"
       d="m 305.05337,486.82386 c 0.33495,0.96206 0.73163,1.90133 1.07074,2.86194 0.27791,0.85526 0.58604,1.69447 0.96544,2.51091 0.35243,0.77147 0.62279,1.58122 0.85334,2.39691 0.20097,0.73084 0.4165,1.45837 0.662,2.17557 0.18647,0.55786 0.38743,1.10819 0.51113,1.68399 0.14307,0.67872 0.2937,1.35499 0.44601,2.03172 0.10342,0.60158 0.23951,1.19666 0.33712,1.79933 0.1314,0.70233 0.27017,1.40238 0.44149,2.09621 0.16233,0.67564 0.32873,1.34959 0.49542,2.02415 0.17514,0.62319 0.3769,1.23772 0.58758,1.8497 0.16078,0.57479 0.33167,1.14365 0.54026,1.70303 0.15185,0.4101 0.27726,0.83173 0.44605,1.23509 0,0 -3.27544,1.8364 -3.27544,1.8364 l 0,0 c -0.17179,-0.40801 -0.29703,-0.83586 -0.4491,-1.25164 -0.20783,-0.5638 -0.39318,-1.1319 -0.5373,-1.71578 -0.21121,-0.62361 -0.42718,-1.24505 -0.6103,-1.87761 -0.156,-0.67642 -0.32542,-1.34891 -0.47928,-2.02584 -0.18646,-0.70133 -0.32375,-1.41172 -0.4709,-2.12193 -0.0879,-0.59803 -0.23706,-1.18262 -0.32291,-1.78077 -0.14368,-0.6796 -0.30076,-1.35592 -0.45204,-2.0337 -0.11021,-0.56367 -0.31321,-1.09644 -0.48587,-1.64302 -0.24994,-0.72464 -0.44816,-1.46677 -0.65932,-2.20338 -0.21506,-0.79991 -0.49626,-1.58362 -0.823,-2.34438 -0.37897,-0.82894 -0.70819,-1.67603 -0.98424,-2.5443 -0.31689,-0.96094 -0.69974,-1.89836 -1.07535,-2.83741 0,0 3.26847,-1.82519 3.26847,-1.82519 z"
       inkscape:connector-curvature="0" />
    <path
       style="fill:#0000ff"
       id="path3136"
       d="m 304.8721,487.48146 c -0.46995,1.29162 -0.77705,2.63062 -0.99145,3.98579 -0.11722,1.00009 -0.19204,2.00364 -0.29784,3.00524 -0.0612,0.99415 -0.25696,1.9704 -0.42131,2.95039 -0.10637,1.03267 -0.35793,2.03469 -0.67447,3.0202 -0.27034,0.9109 -0.54731,1.81975 -0.82829,2.72742 -0.18648,0.71197 -0.50249,1.37812 -0.78172,2.05637 -0.24836,0.44366 -0.47782,0.88124 -0.63449,1.3657 -0.14512,0.49244 -0.30615,0.98168 -0.43341,1.47928 -0.13093,0.41837 -0.26982,0.8271 -0.33648,1.26175 -0.0573,0.47971 -0.0576,0.96374 -0.0605,1.44612 -6e-4,0.33552 -5e-4,0.16763 -3.2e-4,0.50367 0,0 -3.3442,1.70448 -3.3442,1.70448 l 0,0 c -6.5e-4,-0.33692 -4.1e-4,-0.1685 -7.1e-4,-0.50524 7.1e-4,-0.49536 -8.8e-4,-0.9915 0.0373,-1.48572 0.0454,-0.44762 0.12236,-0.88893 0.32248,-1.29712 0.10684,-0.51493 0.29606,-1.00313 0.41598,-1.51388 0.17596,-0.4853 0.28367,-0.9901 0.63202,-1.39603 0.29792,-0.66367 0.59865,-1.33479 0.81436,-2.0291 0.28714,-0.90925 0.56902,-1.81988 0.83622,-2.73509 0.31511,-0.96908 0.60962,-1.94546 0.69488,-2.96779 0.15462,-0.97455 0.37788,-1.93999 0.4271,-2.92884 0.10214,-1.0118 0.20552,-2.02263 0.30975,-3.03399 0.21945,-1.365 0.52799,-2.70842 0.92591,-4.03305 0,0 3.38926,-1.58056 3.38926,-1.58056 z"
       inkscape:connector-curvature="0" />
    <path
       style="fill:#0000ff"
       id="path3138"
       d="m 305.30591,463.59035 c 0.42811,1.12299 0.94124,2.213 1.5085,3.27207 0.37217,0.81977 0.83022,1.59245 1.30826,2.3535 0.43253,0.64982 0.86274,1.30041 1.30019,1.94699 0.37554,0.62047 0.72197,1.25336 1.01799,1.91559 0.23467,0.61487 0.53889,1.19635 0.79088,1.804 0.31302,0.56198 0.56863,1.14138 0.71043,1.76927 0.11798,0.57557 0.29882,1.13104 0.50299,1.68077 0.27714,0.55328 0.41851,1.1549 0.58842,1.74602 0.12448,0.315 0.0608,0.15872 0.19104,0.46888 0,0 -3.27447,1.83428 -3.27447,1.83428 l 0,0 c -0.13518,-0.32874 -0.0663,-0.1586 -0.20627,-0.51058 -0.16373,-0.58304 -0.29996,-1.17661 -0.57493,-1.72052 -0.20829,-0.56695 -0.40542,-1.13592 -0.53362,-1.72746 -0.11561,-0.6112 -0.35992,-1.1701 -0.66191,-1.71309 -0.25868,-0.60241 -0.56416,-1.18078 -0.7986,-1.79345 -0.27794,-0.64505 -0.60282,-1.26466 -0.9683,-1.86474 -0.44449,-0.64831 -0.87951,-1.3024 -1.3156,-1.95636 -0.47436,-0.77347 -0.92519,-1.56057 -1.29388,-2.39111 -0.56356,-1.07519 -1.06882,-2.1788 -1.55959,-3.28887 0,0 3.26847,-1.82519 3.26847,-1.82519 z"
       inkscape:connector-curvature="0" />
    <path
       style="fill:#0000ff"
       id="path3140"
       d="m 304.33868,464.43913 c -0.59657,0.66241 -1.1695,1.34541 -1.73761,2.03224 -0.46831,0.61985 -0.83765,1.30821 -1.16494,2.01089 -0.24938,0.54992 -0.4444,1.12231 -0.63671,1.69403 -0.1718,0.49742 -0.33015,0.99938 -0.49874,1.49792 -0.17562,0.43604 -0.34722,0.87337 -0.50515,1.31611 -0.25705,0.54124 -0.42458,1.11463 -0.60826,1.68284 -0.11384,0.47983 -0.27828,0.94562 -0.40106,1.42272 -0.14392,0.52584 -0.26259,1.0547 -0.32769,1.59612 -0.051,0.50574 -0.0537,1.01454 -0.0565,1.52232 -0.0478,0.50973 -0.12543,1.01898 -0.21418,1.52349 0,0 -3.38676,1.62586 -3.38676,1.62586 l 0,0 c 0.14824,-0.46528 0.13382,-0.97232 0.25597,-1.44664 10e-4,-0.51931 10e-4,-1.03931 0.0408,-1.55744 0.0518,-0.55191 0.14015,-1.09911 0.30964,-1.62859 0.0823,-0.50183 0.29703,-0.95957 0.38898,-1.45986 0.17983,-0.57282 0.33638,-1.15619 0.59436,-1.70041 0.1798,-0.43525 0.30959,-0.89003 0.50083,-1.32131 0.22607,-0.47108 0.32485,-0.99872 0.50963,-1.48728 0.22104,-0.57262 0.38156,-1.16899 0.63332,-1.73077 0.34125,-0.72134 0.68887,-1.43363 1.13215,-2.09957 0.56618,-0.6831 1.13583,-1.36185 1.71852,-2.03106 0,0 3.4534,-1.46161 3.4534,-1.46161 z"
       inkscape:connector-curvature="0" />
  </g>
</svg>
