<?xml version="1.0" encoding="UTF-8" standalone="no"?>
<!-- Created with Inkscape (http://www.inkscape.org/) -->

<svg
   xmlns:dc="http://purl.org/dc/elements/1.1/"
   xmlns:cc="http://creativecommons.org/ns#"
   xmlns:rdf="http://www.w3.org/1999/02/22-rdf-syntax-ns#"
   xmlns:svg="http://www.w3.org/2000/svg"
   xmlns="http://www.w3.org/2000/svg"
   xmlns:sodipodi="http://sodipodi.sourceforge.net/DTD/sodipodi-0.dtd"
   xmlns:inkscape="http://www.inkscape.org/namespaces/inkscape"
   width="744.09448819"
   height="1052.3622047"
   id="svg2"
   version="1.1"
   inkscape:version="0.48.5 r10040"
   sodipodi:docname="1.svg"
   inkscape:export-filename="/home/test/Programming/go/src/github.com/gragas/jabberwock-lib/assets/soul/movingDown/0.png"
   inkscape:export-xdpi="90"
   inkscape:export-ydpi="90">
  <defs
     id="defs4" />
  <sodipodi:namedview
     id="base"
     pagecolor="#ffffff"
     bordercolor="#666666"
     borderopacity="1.0"
     inkscape:pageopacity="0.0"
     inkscape:pageshadow="2"
     inkscape:zoom="3.959798"
     inkscape:cx="331.68843"
     inkscape:cy="575.16986"
     inkscape:document-units="px"
     inkscape:current-layer="layer1"
     showgrid="false"
     inkscape:window-width="1920"
     inkscape:window-height="1014"
     inkscape:window-x="0"
     inkscape:window-y="27"
     inkscape:window-maximized="1" />
  <metadata
     id="metadata7">
    <rdf:RDF>
      <cc:Work
         rdf:about="">
        <dc:format>image/svg+xml</dc:format>
        <dc:type
           rdf:resource="http://purl.org/dc/dcmitype/StillImage" />
        <dc:title></dc:title>
      </cc:Work>
    </rdf:RDF>
  </metadata>
  <g
     inkscape:label="Layer 1"
     inkscape:groupmode="layer"
     id="layer1">
    <path
       style="fill:#0000ff;fill-opacity:1"
       id="path3004"
       d="m 334.01716,449.57351 c 0.33966,-1.02082 0.73105,-2.01244 1.23321,-2.96408 0.52836,-0.98717 1.35687,-1.69615 2.28849,-2.28375 1.69298,-1.31772 3.57597,-1.98551 5.45553,-2.85069 0.54536,-0.19954 1.08644,-0.40793 1.65836,-0.51798 0.58356,-0.0305 1.14782,-0.17886 1.72534,-0.25844 0.63451,-0.12295 1.23497,0.0654 1.82996,0.2724 0.66074,0.18561 1.23494,0.56806 1.80487,0.93715 0.55708,0.36444 1.0332,0.81852 1.42938,1.35108 0.41079,0.49735 0.67855,1.06625 0.91596,1.66028 0.2234,0.59339 0.37904,1.20725 0.55893,1.81439 0.16956,0.54968 0.23904,1.1191 0.26913,1.6912 0.0572,0.60332 -0.0166,1.18897 -0.1797,1.76891 -0.13923,0.53206 -0.32338,1.04724 -0.61037,1.5173 -0.25366,0.42805 -0.49539,0.86479 -0.69823,1.31935 -0.1885,0.48233 -0.44897,0.92241 -0.7739,1.32396 -1.11863,1.08283 -2.69619,1.743 -3.98051,2.46304 -0.13541,0.0759 -0.29672,0.0928 -0.44018,0.15207 -0.48811,0.12743 -0.97189,0.27237 -1.46511,0.38165 -0.50706,0.0993 -1.02462,0.11375 -1.53956,0.12377 -0.50662,0.006 -1.01329,0.003 -1.51993,0.002 -0.50505,-0.001 -1.0101,-0.002 -1.51515,-0.002 -0.50166,-0.0435 -0.95955,-0.22456 -1.43558,-0.3669 -0.42736,-0.197 -0.81355,-0.46429 -1.20428,-0.72425 -0.53682,-0.26616 -0.99407,-0.63568 -1.40633,-1.06524 -0.38368,-0.4097 -0.70378,-0.8869 -0.95047,-1.39106 -0.27933,-0.40835 -0.34295,-0.89827 -0.46822,-1.36356 -0.15273,-0.4428 -0.22132,-0.90332 -0.26071,-1.36794 -0.0325,-0.49968 -0.0314,-1.00073 -0.0321,-1.50123 0.004,-0.49382 -0.0253,-0.98759 0.0553,-1.47643 0.067,-0.41256 0.1572,-0.81396 0.36158,-1.1812 0.10662,-0.24029 0.30901,-0.38715 0.50093,-0.55284 0,0 3.5006,-1.38133 3.5006,-1.38133 l 0,0 c -0.2018,0.11466 -0.38567,0.25731 -0.56513,0.40145 -0.21128,0.36377 -0.38283,0.63119 -0.41617,1.0736 -0.11029,0.46733 -0.10403,0.93255 -0.0927,1.41246 -1e-4,0.49184 -0.002,0.98401 0.0211,1.47543 0.0288,0.44151 0.0791,0.88135 0.2265,1.30162 0.12881,0.44279 0.16129,0.91708 0.43646,1.30685 0.22048,0.47169 0.51809,0.916 0.88025,1.29006 0.40329,0.40491 0.86324,0.72187 1.36673,0.99266 0.37054,0.23567 0.73443,0.49121 1.15297,0.63594 0.44373,0.14688 0.89355,0.27504 1.36612,0.27583 0.50514,3.8e-4 1.01028,0.001 1.51542,0.002 0.50422,7.2e-4 1.00859,0.003 1.51265,-0.012 0.50155,-0.0213 1.00471,-0.0567 1.49202,-0.18626 0.48162,-0.12943 0.97232,-0.23566 1.43462,-0.42587 1.17598,-0.46141 2.93636,-1.64553 -2.59702,1.57347 -0.0668,0.0389 0.13143,-0.0813 0.19714,-0.12197 0.25695,-0.21462 0.12113,-0.11505 0.40809,-0.29787 0.36906,-0.33648 0.61518,-0.74729 0.82855,-1.19524 0.17369,-0.48402 0.43178,-0.92563 0.66945,-1.37997 0.0895,-0.13929 0.19761,-0.26643 0.28149,-0.40915 0.182,-0.30966 0.26296,-0.68064 0.37513,-1.01744 0.16992,-0.54352 0.30608,-1.079 0.23659,-1.65596 -0.0247,-0.5443 -0.0693,-1.08918 -0.22483,-1.6145 -0.17346,-0.59782 -0.33195,-1.19881 -0.5418,-1.78521 -0.21997,-0.56607 -0.47714,-1.10158 -0.86826,-1.57256 -0.37298,-0.49597 -0.82977,-0.90691 -1.35616,-1.23767 -0.55247,-0.34783 -1.10738,-0.69451 -1.74766,-0.85818 -0.57938,-0.16637 -1.13913,-0.26738 -1.73806,-0.127 -0.57015,0.0946 -1.13995,0.19002 -1.70997,0.28262 -0.54687,0.1482 -1.08194,0.34519 -1.60095,0.57177 -1.34099,0.62618 -4.72036,2.06576 0.94257,-0.81488 -0.93916,0.52938 -1.80954,1.15893 -2.37419,2.10255 -0.50665,0.92317 -0.93472,1.87383 -1.22485,2.88968 0,0 -3.39328,1.59361 -3.39328,1.59361 z"
       inkscape:connector-curvature="0" />
    <path
       style="fill:#0000ff;fill-opacity:1"
       id="path3006"
       d="m 345.39601,456.78439 c 0.0434,0.90935 0.15247,1.80922 0.29742,2.70708 0.1031,0.66259 0.15175,1.33133 0.17704,2.00084 0.0155,0.52125 0.014,1.04281 0.0135,1.56424 -0.001,0.5139 -1.4e-4,1.02781 -0.004,1.5417 -0.0107,0.57553 0.0204,1.15201 -0.0205,1.72642 -0.0966,0.61656 -0.16534,1.23544 -0.20164,1.85835 -0.0277,0.55965 -0.0297,1.1201 -0.0309,1.6803 -1.5e-4,0.50784 9.1e-4,1.01569 0.001,1.52353 0.002,0.53921 3.8e-4,1.07838 -0.004,1.61757 -3.6e-4,0.64835 4e-5,1.29671 6e-5,1.94506 0.003,0.59972 0.002,1.19943 10e-4,1.79915 4.4e-4,0.56459 0.002,1.12918 0.003,1.69378 5.9e-4,0.51021 6.7e-4,1.02043 7.2e-4,1.53065 -0.006,0.38873 -0.0135,0.77235 0.0572,1.15542 0,0 -3.31503,1.77155 -3.31503,1.77155 l 0,0 c -0.0854,-0.40636 -0.10763,-0.80728 -0.0866,-1.22291 5e-5,-0.51046 1.3e-4,-1.02092 7.2e-4,-1.53138 7.5e-4,-0.56548 0.002,-1.13096 0.003,-1.69644 -5.7e-4,-0.60006 -0.002,-1.20011 0.001,-1.80018 3e-5,-0.64836 4.4e-4,-1.29671 3e-5,-1.94507 -0.004,-0.5376 -0.006,-1.07518 -0.005,-1.6128 -4.1e-4,-0.50842 -0.001,-1.01683 -8.2e-4,-1.52525 0.001,-0.56717 0.004,-1.13452 0.0292,-1.70124 0.0317,-0.6278 0.0779,-1.25449 0.18616,-1.87457 0.0884,-0.55727 0.0194,-1.12746 0.0405,-1.68991 -0.003,-0.51339 -6.4e-4,-1.02679 4e-5,-1.54018 0.001,-0.51854 0.004,-1.03712 -0.004,-1.55562 -0.0149,-0.65747 -0.0472,-1.31527 -0.1428,-1.96672 -0.13351,-0.9025 -0.24027,-1.80477 -0.31914,-2.71374 0,0 3.3228,-1.73963 3.3228,-1.73963 z"
       inkscape:connector-curvature="0" />
    <path
       style="fill:#0000ff;fill-opacity:1"
       id="path3049"
       d="m 345.24985,464.1866 c -0.61523,0.76357 -1.24325,1.51701 -1.84108,2.29441 -0.49608,0.64381 -0.87953,1.36289 -1.31642,2.04612 -0.38433,0.5587 -0.70232,1.15334 -1.00246,1.75974 -0.29052,0.64734 -0.63854,1.26446 -0.97361,1.88895 -0.29248,0.56462 -0.70643,1.04911 -1.04936,1.58198 -0.32325,0.44086 -0.63811,0.88709 -1.0004,1.2971 -0.36831,0.36506 -0.70623,0.75976 -0.99895,1.18773 -0.2769,0.47938 -0.65872,0.88338 -0.94555,1.35512 -0.26362,0.53122 0.0751,0.99259 0.33859,1.44795 0.28493,0.49673 0.51587,1.01909 0.7662,1.53307 0.20026,0.41699 0.3142,0.87036 0.54925,1.26932 0.0391,0.0679 0.0781,0.13573 0.11717,0.20359 0,0 -3.25309,1.87787 -3.25309,1.87787 l 0,0 c -0.0385,-0.0667 -0.077,-0.13342 -0.11555,-0.20013 -0.24159,-0.40899 -0.36999,-0.86535 -0.56426,-1.29775 -0.24041,-0.50857 -0.46263,-1.02429 -0.7415,-1.51402 -0.31694,-0.54832 -0.70416,-1.11603 -0.51202,-1.7761 0.15244,-0.36462 0.36611,-0.6541 0.61778,-0.95762 0.0563,-0.0679 0.1286,-0.12299 0.17744,-0.1965 0.0517,-0.0778 0.0807,-0.16849 0.12108,-0.25274 0.31962,-0.42047 0.58922,-0.8769 0.98042,-1.24379 0.40443,-0.36104 0.68848,-0.81421 1.02314,-1.23554 0.36081,-0.48209 -0.0553,0.0917 0.30524,-0.47018 0.2394,-0.37316 0.57287,-0.67904 0.77907,-1.07571 0.31945,-0.62997 0.70306,-1.22783 0.96217,-1.88758 0.34078,-0.5934 0.58515,-1.24224 0.99862,-1.79616 0.46106,-0.6774 0.83613,-1.40782 1.31333,-2.07433 0.59609,-0.77433 1.23257,-1.51571 1.81136,-2.3032 0,0 3.45339,-1.4616 3.45339,-1.4616 z"
       inkscape:connector-curvature="0" />
    <path
       style="fill:#0000ff;fill-opacity:1"
       id="path3051"
       d="m 345.56296,482.11122 c -0.31381,0.97282 -0.64183,1.94058 -0.96674,2.90966 -0.34834,0.95217 -0.66143,1.91625 -0.98241,2.87784 -0.19964,0.68983 -0.52165,1.33189 -0.81299,1.98533 -0.22156,0.50228 -0.4063,1.01943 -0.62132,1.52466 -0.22382,0.51351 -0.47184,1.01594 -0.71997,1.518 -0.28246,0.55072 -0.51456,1.12503 -0.76251,1.69165 -0.17839,0.50195 -0.39426,0.98624 -0.61993,1.46788 -0.1838,0.4354 -0.31425,0.88718 -0.43701,1.34234 -0.1634,0.39812 -0.2189,0.82586 -0.34227,1.23521 -0.15285,0.41881 -0.17686,0.86394 -0.23635,1.30114 -0.11669,0.49442 -0.1648,0.99957 -0.2398,1.50065 -0.11392,0.49386 -0.19037,0.99287 -0.23132,1.4977 0.004,0.51673 -0.0929,1.02143 -0.17419,1.52907 -0.0493,0.46098 -0.18164,0.90704 -0.29581,1.35498 -0.15887,0.45741 -0.24025,0.93111 -0.2855,1.41144 -0.0449,0.58156 -0.0617,1.16187 0.0201,1.74009 0.0512,0.36799 0.1021,0.73527 0.27419,1.06825 0,0 -3.26619,1.86481 -3.26619,1.86481 l 0,0 c -0.19047,-0.37106 -0.27878,-0.76797 -0.32331,-1.18191 -0.093,-0.60207 -0.0998,-1.20553 -0.063,-1.81378 0.0332,-0.50081 0.0864,-1.00271 0.2488,-1.48085 0.14534,-0.42144 0.23741,-0.87436 0.32144,-1.30946 0.0713,-0.50104 0.20304,-0.99268 0.18722,-1.50215 0.031,-0.51714 0.0844,-1.03324 0.21265,-1.53668 0.11328,-0.49197 0.1006,-1.00715 0.23988,-1.49632 0.0988,-0.44248 0.065,-0.9076 0.21001,-1.34317 0.13606,-0.41093 0.19837,-0.83225 0.34264,-1.24168 0.17892,-0.4407 0.2314,-0.93191 0.42458,-1.37107 0.19473,-0.4976 0.49056,-0.95008 0.62951,-1.47213 0.23929,-0.5724 0.48434,-1.14559 0.7527,-1.70351 0.2312,-0.50545 0.49539,-0.995 0.72694,-1.50037 0.20767,-0.51331 0.42909,-1.02013 0.61862,-1.54068 0.3102,-0.64006 0.62382,-1.28478 0.84943,-1.95988 0.34094,-0.95556 0.62422,-1.93093 0.99324,-2.87687 0.31133,-0.96551 0.67205,-1.91565 0.93533,-2.89658 0,0 3.39328,-1.59361 3.39328,-1.59361 z"
       inkscape:connector-curvature="0" />
    <path
       style="fill:#0000ff;fill-opacity:1"
       id="path3053"
       d="m 345.12105,480.57251 c -0.0466,0.89792 -0.004,1.78997 0.0999,2.68161 0.0354,0.59163 0.17663,1.16558 0.28363,1.74604 0.12647,0.47185 0.21927,0.95098 0.37492,1.41422 0.157,0.3476 0.41728,0.62773 0.62218,0.94639 0.24883,0.44174 0.42112,0.9175 0.59733,1.39108 0.24744,0.54929 0.4108,1.13057 0.60232,1.70078 0.23552,0.66469 0.44595,1.34018 0.70897,1.99468 0.19429,0.47461 0.37222,0.95989 0.61126,1.41441 0.21907,0.33371 0.39785,0.6749 0.54931,1.04535 0.23772,0.34984 0.39076,0.74294 0.56933,1.12375 0.19431,0.39616 0.44568,0.75345 0.60498,1.16637 0.10968,0.38786 0.24424,0.76802 0.40924,1.13555 0.12772,0.38776 0.29378,0.76105 0.40153,1.15543 0.11581,0.4552 0.39073,0.83872 0.59831,1.25262 0.20517,0.34786 0.411,0.69947 0.57549,1.06887 0.17356,0.40682 0.35345,0.81207 0.51123,1.22554 0.1648,0.43281 0.1053,0.86919 -0.0169,1.30248 -0.16068,0.5191 -0.32638,1.03624 -0.48586,1.55591 -0.14769,0.53814 -0.24887,1.08724 -0.37359,1.6312 -0.0861,0.47295 -0.14173,0.94619 -0.25711,1.41345 -0.074,0.28613 -0.10551,0.57962 -0.13192,0.87309 0,0 -3.35907,1.68016 -3.35907,1.68016 l 0,0 c 0.0186,-0.31006 0.0392,-0.62089 0.10313,-0.92568 0.10786,-0.4697 0.22868,-0.92693 0.26626,-1.41065 0.11709,-0.5548 0.25235,-1.10384 0.36597,-1.65926 0.15384,-0.51938 0.30819,-1.03632 0.4763,-1.54991 0.11112,-0.35372 0.25413,-0.71588 0.12675,-1.08596 -0.14861,-0.40933 -0.32927,-0.80772 -0.50346,-1.20626 -0.15625,-0.36635 -0.36661,-0.7093 -0.56249,-1.05534 -0.21454,-0.43887 -0.50177,-0.84412 -0.63862,-1.31893 -0.0921,-0.3782 -0.26098,-0.72728 -0.37275,-1.09915 -0.16809,-0.37493 -0.31612,-0.76025 -0.4185,-1.15865 -0.14477,-0.40723 -0.40473,-0.75136 -0.5918,-1.13932 -0.17885,-0.38649 -0.33423,-0.78274 -0.57498,-1.13719 -0.15369,-0.35712 -0.32064,-0.69237 -0.53482,-1.01786 -0.24165,-0.46792 -0.42094,-0.96648 -0.61272,-1.45627 -0.2638,-0.66062 -0.48199,-1.33963 -0.71902,-2.01008 -0.1994,-0.56418 -0.35548,-1.14453 -0.6076,-1.6884 -0.16448,-0.44816 -0.32829,-0.89693 -0.56166,-1.31494 -0.22593,-0.342 -0.50828,-0.64676 -0.66826,-1.02965 -0.16177,-0.4819 -0.25623,-0.9777 -0.39651,-1.46648 -0.0991,-0.59145 -0.25776,-1.17201 -0.28028,-1.77452 -0.0968,-0.90346 -0.14489,-1.80421 -0.1288,-2.7135 0,0 3.33837,-1.70098 3.33837,-1.70098 z"
       inkscape:connector-curvature="0" />
    <path
       style="fill:#0000ff;fill-opacity:1"
       id="path3055"
       d="m 346.46782,463.55305 c 0.3624,0.98847 0.81296,1.94123 1.30659,2.87015 0.40386,0.80851 0.9714,1.5143 1.49915,2.24197 0.46053,0.61473 0.91367,1.23391 1.32709,1.88153 0.40857,0.65425 0.88297,1.26245 1.34266,1.88023 0.37888,0.42801 0.64053,0.93047 0.93525,1.41484 0.27819,0.42513 0.51347,0.8752 0.77691,1.30946 0.28516,0.46085 0.51022,0.95712 0.7982,1.41555 0.24513,0.44142 0.48032,0.88778 0.73546,1.32417 0.2815,0.37608 0.56917,0.75475 0.78785,1.1716 0.2612,0.35387 0.38114,0.76025 0.45269,1.18758 0.0625,0.49216 0.0609,0.98941 0.0628,1.48464 3e-5,0.50614 -0.002,1.01228 -0.003,1.51841 0.061,0.4109 0.11561,0.82956 0.21545,1.23339 0.0766,0.25548 0.0388,0.1252 0.11327,0.39093 0,0 -3.30309,1.79638 -3.30309,1.79638 l 0,0 c -0.0703,-0.26035 -0.0325,-0.12962 -0.11385,-0.39213 -0.12542,-0.43089 -0.15711,-0.88707 -0.25646,-1.32517 8.9e-4,-0.50563 0.003,-1.01127 0.004,-1.51691 -3.3e-4,-0.47805 0.003,-0.95735 -0.041,-1.43383 -0.0517,-0.39408 -0.15275,-0.75424 -0.3947,-1.07845 -0.21075,-0.41314 -0.50305,-0.78093 -0.77016,-1.15841 -0.25621,-0.43271 -0.49569,-0.87359 -0.73322,-1.31617 -0.28177,-0.46312 -0.51439,-0.95504 -0.79895,-1.4171 -0.26624,-0.43237 -0.49859,-0.88435 -0.77418,-1.31109 -0.29113,-0.47429 -0.5472,-0.96722 -0.91687,-1.38912 -0.45479,-0.62989 -0.92079,-1.2524 -1.33844,-1.90827 -0.4174,-0.63792 -0.8751,-1.24648 -1.32365,-1.86254 -0.52961,-0.74682 -1.09953,-1.47079 -1.50628,-2.29659 -0.49234,-0.93807 -0.94161,-1.89714 -1.34796,-2.87567 0,0 3.26487,-1.83938 3.26487,-1.83938 z"
       inkscape:connector-curvature="0" />
  </g>
</svg>
