<?xml version="1.0" encoding="UTF-8" standalone="no"?>
<!-- Created with Inkscape (http://www.inkscape.org/) -->

<svg
   xmlns:dc="http://purl.org/dc/elements/1.1/"
   xmlns:cc="http://creativecommons.org/ns#"
   xmlns:rdf="http://www.w3.org/1999/02/22-rdf-syntax-ns#"
   xmlns:svg="http://www.w3.org/2000/svg"
   xmlns="http://www.w3.org/2000/svg"
   xmlns:sodipodi="http://sodipodi.sourceforge.net/DTD/sodipodi-0.dtd"
   xmlns:inkscape="http://www.inkscape.org/namespaces/inkscape"
   width="744.09448819"
   height="1052.3622047"
   id="svg3194"
   version="1.1"
   inkscape:version="0.48.5 r10040"
   sodipodi:docname="New document 7">
  <defs
     id="defs3196" />
  <sodipodi:namedview
     id="base"
     pagecolor="#ffffff"
     bordercolor="#666666"
     borderopacity="1.0"
     inkscape:pageopacity="0.0"
     inkscape:pageshadow="2"
     inkscape:zoom="5.6"
     inkscape:cx="399.89548"
     inkscape:cy="385.14811"
     inkscape:document-units="px"
     inkscape:current-layer="layer1"
     showgrid="false"
     inkscape:window-width="1920"
     inkscape:window-height="1014"
     inkscape:window-x="0"
     inkscape:window-y="27"
     inkscape:window-maximized="1" />
  <metadata
     id="metadata3199">
    <rdf:RDF>
      <cc:Work
         rdf:about="">
        <dc:format>image/svg+xml</dc:format>
        <dc:type
           rdf:resource="http://purl.org/dc/dcmitype/StillImage" />
        <dc:title></dc:title>
      </cc:Work>
    </rdf:RDF>
  </metadata>
  <g
     inkscape:label="Layer 1"
     inkscape:groupmode="layer"
     id="layer1">
    <path
       style="fill:#2a7fff"
       id="path3208"
       d="m 443.85886,667.51011 c -0.0105,0.81924 -0.0301,1.63916 0.004,2.45794 0.063,0.92954 0.10618,1.86009 0.14041,2.79108 0.0244,0.70676 0.0271,1.41389 0.0269,2.12098 0.0123,0.64818 -0.0673,1.29308 -0.1206,1.938 -0.0341,0.44151 -0.0438,0.88431 -0.0483,1.32695 0.0257,0.33936 -0.034,0.66736 -0.0966,0.99832 -0.0589,0.32402 -0.07,0.65368 -0.0783,0.98208 9.4e-4,0.3503 -0.0208,0.70194 0.009,1.0513 0.0361,0.23319 0.0172,0.11585 0.0569,0.35203 0,0 -2.34402,1.2442 -2.34402,1.2442 l 0,0 c -0.0408,-0.2405 -0.0198,-0.11947 -0.0629,-0.36308 -0.0538,-0.3585 -0.0215,-0.72228 -0.0269,-1.08399 0.005,-0.33959 0.0108,-0.68028 0.0576,-1.01725 0.0519,-0.32156 0.1548,-0.63195 0.12071,-0.96211 0.005,-0.4498 0.0159,-0.89969 0.0501,-1.34838 0.0498,-0.64091 0.15358,-1.2795 0.13981,-1.92371 -0.002,-0.70616 -0.003,-1.41237 -0.0157,-2.11843 -0.0205,-0.93084 -0.063,-1.8608 -0.13383,-2.78927 -0.0428,-0.81734 -0.017,-1.6358 -0.0389,-2.45388 0,0 2.36058,-1.20278 2.36058,-1.20278 z"
       inkscape:connector-curvature="0" />
    <path
       style="fill:#0055d4"
       id="path3212"
       d="m 441.91285,673.98797 c 0.35649,-0.61882 0.65129,-1.26927 0.98594,-1.89966 0.27603,-0.49669 0.58912,-0.97132 0.87961,-1.45956 0.22528,-0.36237 0.32118,-0.77098 0.37204,-1.18897 0.0207,-0.37085 0.1035,-0.73364 0.15133,-1.10126 0.0335,-0.34632 0.0625,-0.69597 0.0372,-1.0436 -0.0683,-0.37755 -0.0894,-0.76187 -0.19498,-1.13141 -0.12234,-0.38742 -0.24725,-0.77442 -0.35919,-1.16503 -0.0875,-0.40205 -0.21996,-0.79162 -0.3339,-1.18639 -0.0858,-0.3857 -0.21106,-0.76039 -0.36891,-1.12221 -0.14532,-0.36865 -0.30495,-0.73213 -0.44528,-1.10269 -0.15943,-0.35904 -0.25341,-0.74523 -0.45347,-1.08523 -0.1445,-0.23895 -0.26271,-0.49297 -0.40547,-0.73254 -0.14314,-0.14306 -0.2913,-0.37992 -0.5041,-0.22847 0.73467,-0.40383 1.46338,-0.81866 2.20399,-1.21148 0.048,-0.0254 -0.0882,0.0652 -0.12238,0.1074 -0.0434,0.0536 -0.0764,0.11536 -0.10772,0.17687 -0.13043,0.25605 -0.20807,0.53853 -0.29685,0.81044 -0.15914,0.52424 -0.31442,1.05159 -0.41932,1.58974 -0.11943,0.48835 -0.19077,0.9858 -0.28951,1.47827 -0.11498,0.56069 -0.13692,1.13357 -0.20835,1.7004 -0.0707,0.52739 -0.10746,1.05829 -0.12735,1.58977 -0.0117,0.3763 -0.0112,0.75284 -0.011,1.12928 5.3e-4,0.35569 0.001,0.71138 0.001,1.06707 0.0359,0.35459 0.10448,0.70433 0.14072,1.05922 0.06,0.33467 0.11558,0.67028 0.21815,0.99483 0.10334,0.31412 0.13215,0.64404 0.20409,0.9655 0.0865,0.35171 0.17821,0.70309 0.27478,1.05239 0.11037,0.33403 0.15141,0.68329 0.24965,1.02016 0.0359,0.0817 0.0767,0.19351 0.18362,0.19938 0.0499,0.003 0.17646,-0.0937 0.13254,-0.0699 -0.74671,0.40473 -1.48592,0.82317 -2.22889,1.23475 0.25285,-0.17098 0.37676,-0.49646 0.47847,-0.77494 0.10676,-0.30447 0.22904,-0.60334 0.33496,-0.90816 0.1307,-0.33093 0.22959,-0.66755 0.2825,-1.01929 0.0407,-0.35903 0.0325,-0.71912 0.087,-1.07665 0.078,-0.34435 0.0265,-0.696 -6.7e-4,-1.04307 -0.002,-0.42592 -0.0831,-0.84338 -0.13831,-1.26405 -0.0627,-0.40969 -0.18222,-0.80544 -0.29135,-1.204 -0.10329,-0.44897 -0.20116,-0.89774 -0.26383,-1.35443 -0.0204,-0.39393 -0.10015,-0.77901 -0.16302,-1.16726 -0.0284,-0.36246 -0.11263,-0.71549 -0.17515,-1.07267 -0.0937,-0.33888 -0.16206,-0.68195 -0.22111,-1.0282 -0.26566,-0.86851 -0.0691,-0.1775 2.34223,-1.15187 0.0511,-0.0207 -0.0105,0.10985 -0.0136,0.16492 -0.0165,0.29117 -0.015,0.5836 -0.0182,0.87509 -0.006,0.96294 -0.01,1.9259 -0.008,2.88885 -0.002,0.83684 0.007,1.67362 0.0153,2.5104 0.0198,0.4045 -0.0202,0.813 0.0214,1.21613 0.0122,0.0325 0.0192,0.0675 0.0366,0.0976 0.0668,0.1156 0.34151,-0.21054 0.18327,-0.12414 -0.73105,0.39917 -1.44452,0.82974 -2.16678,1.24461 0.28524,-0.2327 0.4637,-0.56819 0.66016,-0.87402 0.16555,-0.29608 0.34117,-0.58424 0.43722,-0.9112 0.11105,-0.37815 0.18156,-0.76427 0.22267,-1.15569 0.0196,-0.32843 0.13249,-0.59029 0.34155,-0.83638 2.44248,-1.40275 1.49607,-1.58601 2.56839,-1.32927 0,0 -2.15059,1.5623 -2.15059,1.5623 l 0,0 c -0.90865,0.32554 -0.15557,0.0642 2.0466,-1.23709 -0.25044,0.16183 -0.38676,0.35852 -0.43182,0.65868 -0.0335,0.40109 -0.0888,0.80041 -0.20216,1.18776 -0.0707,0.36305 -0.22728,0.66933 -0.40812,0.98854 -0.18954,0.32826 -0.40108,0.6444 -0.6147,0.95715 -0.79334,0.47105 -1.57682,0.95911 -2.38002,1.41314 -0.22026,0.12451 -0.44836,-0.25498 -0.49304,-0.40457 -0.0656,-0.41393 -0.006,-0.83816 -0.0214,-1.25574 0.008,-0.84162 0.0166,-1.68325 0.0136,-2.52493 2.6e-4,-0.95922 -0.006,-1.91842 -0.0148,-2.8776 -0.003,-0.29119 -0.006,-0.58242 -0.008,-0.87362 -3.2e-4,-0.0586 -0.0494,-0.14433 2e-5,-0.17593 2.36434,-1.51233 2.18046,-2.23009 2.39388,-1.27531 0.0438,0.34798 0.10954,0.69079 0.21346,1.02645 0.0576,0.35946 0.15557,0.71118 0.17615,1.07587 0.058,0.39203 0.15241,0.7781 0.16168,1.17602 0.0526,0.44707 0.14703,0.88377 0.25058,1.32122 0.10708,0.41147 0.23425,0.81675 0.30424,1.2374 0.0526,0.42463 0.14769,0.84354 0.15032,1.27297 0.0271,0.36487 0.0939,0.73803 0.0294,1.10084 -0.0658,0.35458 -0.0736,0.70722 -0.0913,1.06733 -0.0398,0.36435 -0.10648,0.72518 -0.26106,1.06069 -0.0878,0.31061 -0.20825,0.61232 -0.33564,0.90829 -0.0881,0.3299 -0.23807,0.63402 -0.39873,0.93177 -0.6863,0.38646 -2.29566,2.17946 -2.90015,0.88524 -0.0995,-0.33812 -0.14217,-0.68583 -0.24647,-1.02301 -0.10559,-0.3512 -0.18584,-0.7116 -0.2833,-1.06484 -0.0735,-0.31454 -0.10914,-0.63379 -0.19577,-0.94504 -0.10937,-0.34279 -0.16768,-0.69439 -0.24216,-1.04632 -0.0312,-0.36337 -0.0917,-0.72167 -0.15221,-1.08111 -2.6e-4,-0.35574 -7.5e-4,-0.71148 -0.001,-1.06723 -1.4e-4,-0.3803 -6.8e-4,-0.7607 0.0113,-1.14086 0.0208,-0.54019 0.0613,-1.07931 0.12732,-1.61599 0.0737,-0.5714 0.1007,-1.14602 0.19222,-1.71494 0.10373,-0.49069 0.16535,-0.98824 0.29335,-1.47381 0.0953,-0.55181 0.25351,-1.08819 0.40983,-1.62516 0.59897,-1.8032 0.23654,-1.23274 2.84549,-2.59539 0.29323,0.0632 0.49372,0.25052 0.67076,0.48653 0.14119,0.24169 0.2622,0.49492 0.40333,0.73696 0.20146,0.35645 0.30377,0.75221 0.4681,1.1257 0.13887,0.36598 0.30147,0.72298 0.44002,1.0892 0.16629,0.37127 0.30137,0.75738 0.38539,1.15595 0.1091,0.39627 0.25431,0.78251 0.33695,1.18572 0.1055,0.39057 0.23377,0.77493 0.35303,1.16139 0.12234,0.38267 0.15075,0.77812 0.22278,1.17218 0.0516,0.36356 0.0144,0.73234 -0.01,1.09753 -0.0396,0.36891 -0.12645,0.72996 -0.1548,1.09895 -0.0398,0.44835 -0.11878,0.89201 -0.32739,1.29663 -0.29851,0.48575 -0.59851,0.97028 -0.90039,1.45395 -0.33692,0.62152 -0.6319,1.26201 -0.9684,1.88344 0,0 -2.41661,1.09334 -2.41661,1.09334 z"
       inkscape:connector-curvature="0" />
    <path
       style="fill:#5599ff"
       id="path3220"
       d="m 443.7694,661.84194 c -0.56081,0.22774 -1.11562,0.4981 -1.63154,0.81589 0,0 2.05697,-1.66393 2.05697,-1.66393 l 0,0 c 0.54131,-0.28477 1.08141,-0.57288 1.65129,-0.79774 0,0 -2.07672,1.64578 -2.07672,1.64578 z"
       inkscape:connector-curvature="0" />
    <path
       style="fill:#5599ff"
       id="path3222"
       d="m 444.46674,664.8146 c -0.0943,0.0178 -0.18852,0.0356 -0.28278,0.0533 0,0 2.10271,-1.59385 2.10271,-1.59385 l 0,0 c 0.0969,-0.0215 0.19379,-0.0431 0.29068,-0.0646 0,0 -2.11061,1.60511 -2.11061,1.60511 z"
       inkscape:connector-curvature="0" />
    <path
       style="fill:#5599ff"
       id="path3226"
       d="m 440.49668,666.25655 c -0.0932,-0.0299 -0.18636,-0.0598 -0.27955,-0.0897 0,0 2.17923,-1.48576 2.17923,-1.48576 l 0,0 c 0.098,0.0291 0.19594,0.0581 0.29391,0.0872 0,0 -2.19359,1.48833 -2.19359,1.48833 z"
       inkscape:connector-curvature="0" />
    <path
       style="fill:#5599ff"
       id="path3228"
       d="m 441.7968,668.41799 c -0.45165,0.20116 -0.91537,0.37649 -1.34644,0.61986 0,0 2.0604,-1.65368 2.0604,-1.65368 l 0,0 c 0.45149,-0.21588 0.91074,-0.41657 1.37939,-0.59249 0,0 -2.09335,1.62631 -2.09335,1.62631 z"
       inkscape:connector-curvature="0" />
    <path
       style="fill:#5599ff"
       id="path3230"
       d="m 446.06491,668.59678 c -0.53416,0.32432 -1.05281,0.66953 -1.55985,1.03442 -0.0655,0.0459 -0.13095,0.0918 -0.19642,0.13769 0,0 -2.46394,0.96367 -2.46394,0.96367 l 0,0 c 0.0679,-0.0428 0.13585,-0.0855 0.20378,-0.1283 0.50187,-0.37039 1.01398,-0.72137 1.54485,-1.04879 0,0 2.47158,-0.95869 2.47158,-0.95869 z"
       inkscape:connector-curvature="0" />
    <path
       style="fill:#5599ff"
       id="path3232"
       d="m 441.78816,673.5646 c -0.50021,0.0776 -0.97658,0.24326 -1.44898,0.41827 0,0 2.08292,-1.62544 2.08292,-1.62544 l 0,0 c 0.48285,-0.16636 0.9763,-0.29521 1.47668,-0.39794 0,0 -2.11062,1.60511 -2.11062,1.60511 z"
       inkscape:connector-curvature="0" />
  </g>
</svg>
