<?xml version="1.0" encoding="UTF-8" standalone="no"?>
<!-- Created with Inkscape (http://www.inkscape.org/) -->

<svg
   xmlns:dc="http://purl.org/dc/elements/1.1/"
   xmlns:cc="http://creativecommons.org/ns#"
   xmlns:rdf="http://www.w3.org/1999/02/22-rdf-syntax-ns#"
   xmlns:svg="http://www.w3.org/2000/svg"
   xmlns="http://www.w3.org/2000/svg"
   xmlns:sodipodi="http://sodipodi.sourceforge.net/DTD/sodipodi-0.dtd"
   xmlns:inkscape="http://www.inkscape.org/namespaces/inkscape"
   width="744.09448819"
   height="1052.3622047"
   id="svg3194"
   version="1.1"
   inkscape:version="0.48.5 r10040"
   sodipodi:docname="0.svg"
   inkscape:export-filename="/home/test/Programming/go/src/github.com/gragas/jabberwock-lib/assets/fungi/philosophus tremens/0.png"
   inkscape:export-xdpi="90"
   inkscape:export-ydpi="90">
  <defs
     id="defs3196" />
  <sodipodi:namedview
     id="base"
     pagecolor="#ffffff"
     bordercolor="#666666"
     borderopacity="1.0"
     inkscape:pageopacity="0.0"
     inkscape:pageshadow="2"
     inkscape:zoom="7.9195959"
     inkscape:cx="450.55542"
     inkscape:cy="392.84227"
     inkscape:document-units="px"
     inkscape:current-layer="layer1"
     showgrid="false"
     inkscape:window-width="1920"
     inkscape:window-height="1014"
     inkscape:window-x="0"
     inkscape:window-y="27"
     inkscape:window-maximized="1" />
  <metadata
     id="metadata3199">
    <rdf:RDF>
      <cc:Work
         rdf:about="">
        <dc:format>image/svg+xml</dc:format>
        <dc:type
           rdf:resource="http://purl.org/dc/dcmitype/StillImage" />
        <dc:title></dc:title>
      </cc:Work>
    </rdf:RDF>
  </metadata>
  <g
     inkscape:label="Layer 1"
     inkscape:groupmode="layer"
     id="layer1">
    <path
       style="fill:#2a7fff"
       id="path3273"
       d="m 458.50172,671.26011 c -0.0158,0.76762 -0.012,1.5355 -0.0113,2.30324 0.0278,0.67598 0.10483,1.34837 0.14959,2.02327 0.031,0.59127 0.0338,1.18361 0.0352,1.77556 -5.7e-4,0.49995 0.0259,0.99917 -0.0363,1.49621 -0.0614,0.36242 -0.10031,0.72728 -0.1206,1.09413 -0.0428,0.35923 -0.11791,0.7127 -0.15633,1.07275 -0.005,0.0584 -0.009,0.11675 -0.0137,0.17512 0,0 -2.373,1.18881 -2.373,1.18881 l 0,0 c 0.004,-0.0605 0.007,-0.12093 0.0106,-0.1814 0.0298,-0.35756 0.0819,-0.71163 0.16179,-1.0617 0.0154,-0.37484 0.0437,-0.74925 0.11281,-1.1186 0.0804,-0.48667 0.0702,-0.97466 0.0658,-1.46742 -0.003,-0.58715 -0.003,-1.17456 -0.031,-1.7612 -0.0355,-0.68233 -0.10236,-1.36224 -0.14283,-2.04423 7.8e-4,-0.76391 0.005,-1.52797 -0.0113,-2.29176 0,0 2.36058,-1.20278 2.36058,-1.20278 z"
       inkscape:connector-curvature="0" />
    <path
       style="fill:#0055d4"
       id="path3283"
       d="m 456.52711,674.53159 c 0.21912,-0.68507 0.35015,-1.38956 0.43639,-2.10216 0.0601,-0.5644 0.0707,-1.13225 0.0737,-1.69931 -0.0279,-0.3953 0.0396,-0.78219 0.0972,-1.17102 0.0622,-0.49578 0.0711,-0.99622 0.078,-1.49522 0.005,-0.45681 -0.0551,-0.91579 -0.13713,-1.36477 -0.0957,-0.39198 -0.16105,-0.78883 -0.19644,-1.19051 -0.0261,-0.3609 -0.0266,-0.72296 -0.0275,-1.0846 -0.0446,-0.38131 -0.10536,-0.75959 -0.13809,-1.14266 -0.0299,-0.3896 -0.0354,-0.78043 -0.0386,-1.17099 0.0288,-0.32389 -0.042,-0.63465 -0.0989,-0.95028 -0.0204,-0.30447 -0.11092,-0.59429 -0.17409,-0.89086 -0.11042,-0.26449 -0.15668,-0.54687 -0.23411,-0.82058 -0.11394,-0.30115 -0.23501,-0.59417 -0.30599,-0.90964 -0.0937,-0.27722 -0.15797,-0.56186 -0.25856,-0.83653 -0.0164,-0.0628 -0.14289,-0.61335 -0.23645,-0.43796 3.70699,-1.97195 2.38325,-1.67567 1.85767,-0.71667 -0.0972,0.29271 -0.20936,0.57739 -0.33417,0.85927 -0.0996,0.27014 -0.19347,0.54421 -0.31931,0.80353 -0.12916,0.27734 -0.19027,0.58143 -0.2666,0.87665 -0.10949,0.3439 -0.20581,0.68803 -0.25695,1.04567 -0.0413,0.35142 -0.043,0.70578 -0.0452,1.05911 -8.4e-4,0.35701 5e-4,0.71403 0.001,1.07103 6e-4,0.3572 7.1e-4,0.7144 7.9e-4,1.0716 0.0448,0.38172 0.10634,0.76031 0.13949,1.1438 0.0303,0.38966 0.0359,0.7806 0.0392,1.17124 0.002,0.3597 9.5e-4,0.71941 5.7e-4,1.07911 6e-5,0.42019 -0.004,0.84033 -0.004,1.26052 0.0315,0.35955 0.10571,0.71296 0.14407,1.07195 0.0112,0.35079 0.0481,0.69475 0.10881,1.04008 0.0976,0.35159 0.18002,0.70681 0.28149,1.05731 0.0775,0.31267 0.14998,0.62937 0.27875,0.92586 0.11056,0.27576 0.22894,0.54473 0.37007,0.80604 0.0779,0.13304 0.10284,0.28753 0.17619,0.4225 0.0134,0.0247 0.0215,0.0742 0.0489,0.0685 0.0268,-0.006 0.0373,-0.0935 0.0128,-0.0812 -0.76534,0.38233 -1.51021,0.80431 -2.26532,1.20646 0.26491,-0.17751 0.23072,-0.63547 0.27041,-0.92342 0.0558,-0.36115 0.12232,-0.71734 0.22297,-1.06857 0.097,-0.3595 0.11325,-0.73346 0.12665,-1.10359 0.009,-0.39874 0.009,-0.79763 0.0104,-1.19645 0.009,-0.48401 -0.0723,-0.96412 -0.16777,-1.43688 -0.0974,-0.4352 -0.15348,-0.87696 -0.17723,-1.32183 -0.009,-0.40123 -0.0935,-0.79555 -0.14054,-1.19337 -0.0309,-0.37322 -0.12409,-0.73676 -0.17619,-1.10725 -0.0728,-0.33513 -0.13148,-0.67291 -0.23675,-0.99961 -0.10944,-0.31801 -0.1439,-0.65189 -0.16491,-0.98535 -0.008,-0.35422 -0.0914,-0.70056 -0.13666,-1.05109 -0.0255,-0.17909 -0.0319,-0.35791 -0.029,-0.53832 0,0 2.37733,-1.18649 2.37733,-1.18649 l 0,0 c -0.0277,0.16574 -0.0211,0.32428 0.002,0.49143 0.0405,0.357 0.12809,0.70774 0.14591,1.06603 0.0145,0.31171 0.0357,0.62552 0.1344,0.92409 0.1109,0.34239 0.1717,0.69398 0.25654,1.04373 0.0456,0.37388 0.14176,0.73851 0.1769,1.11291 0.0419,0.4042 0.13188,0.80278 0.14602,1.2087 0.02,0.43306 0.0597,0.86503 0.15317,1.28932 0.10012,0.48772 0.19838,0.98217 0.19546,1.482 0.003,0.40049 0.006,0.80105 -0.001,1.20151 -0.0101,0.38738 -0.0253,0.77613 -0.095,1.15824 -0.0917,0.34786 -0.20268,0.68538 -0.24059,1.04619 -0.0715,0.36736 -0.0609,0.74881 -0.17034,1.10989 -0.0338,0.0183 -2.06986,2.10134 -2.59365,1.09058 -0.0683,-0.1318 -0.099,-0.2744 -0.16596,-0.40653 -0.14371,-0.26765 -0.27075,-0.54064 -0.38148,-0.8237 -0.13638,-0.30601 -0.21684,-0.63384 -0.29071,-0.95964 -0.10426,-0.35963 -0.1872,-0.72367 -0.29585,-1.08223 -0.0615,-0.35164 -0.12336,-0.69851 -0.11915,-1.05734 -0.033,-0.36895 -0.10295,-0.73169 -0.14828,-1.09903 3.5e-4,-0.41909 -0.004,-0.83814 -0.003,-1.25723 4.1e-4,-0.35928 0.001,-0.71856 9.6e-4,-1.07785 -0.001,-0.38518 -0.003,-0.77065 -0.027,-1.15522 -0.0291,-0.39023 -0.084,-0.77568 -0.15297,-1.16079 -4e-5,-0.35708 -1.1e-4,-0.71416 -6e-4,-1.07124 -5.5e-4,-0.35749 -0.002,-0.71497 -0.002,-1.07246 8.2e-4,-0.36262 6.3e-4,-0.72584 0.0312,-1.08745 0.0389,-0.36618 0.1046,-0.72842 0.24316,-1.07173 0.0685,-0.31143 0.15328,-0.61908 0.23803,-0.92565 0.12189,-0.25741 0.25264,-0.5127 0.329,-0.78848 0.10509,-0.29129 0.27707,-0.55423 0.32855,-0.86471 0.39598,-1.16663 1.52812,-1.35556 2.74372,-1.9289 0.24477,0.16637 0.31232,0.40503 0.37821,0.68347 0.10571,0.28705 0.17327,0.58264 0.27348,0.87199 0.0609,0.31138 0.18114,0.59487 0.29822,0.88784 0.0888,0.27849 0.11809,0.57477 0.2449,0.84286 0.0582,0.30039 0.16361,0.58957 0.17727,0.89762 0.0556,0.32985 0.14878,0.65318 0.11579,0.99157 0.001,0.38516 0.003,0.7706 0.0267,1.15517 0.0287,0.38962 0.0828,0.77458 0.15133,1.15913 2e-5,0.35566 -0.001,0.71157 0.0174,1.06686 0.0268,0.39338 0.0807,0.78331 0.17718,1.16627 0.0959,0.46311 0.15375,0.94307 0.15785,1.41544 -0.006,0.50671 -0.0114,1.01404 -0.0567,1.51914 -0.0436,0.38193 -0.14459,0.7561 -0.11432,1.1436 -0.007,0.57825 -0.0247,1.15666 -0.0776,1.73279 -0.0794,0.71499 -0.19559,1.427 -0.40451,2.11691 0,0 -2.38837,1.15187 -2.38837,1.15187 z"
       inkscape:connector-curvature="0" />
    <path
       style="fill:#0055d4"
       id="path3285"
       d="m 457.41675,659.28695 c -0.0871,0.61643 -0.13366,1.2347 -0.10324,1.85648 0.0238,0.43378 0.0891,0.86624 0.25047,1.27061 0,0 -2.31008,1.29004 -2.31008,1.29004 l 0,0 c -0.17264,-0.43042 -0.26008,-0.8872 -0.28268,-1.35068 -0.0396,-0.63275 0.001,-1.25846 0.0693,-1.88864 0,0 2.37622,-1.17781 2.37622,-1.17781 z"
       inkscape:connector-curvature="0" />
    <path
       style="fill:#0055d4"
       id="path3289"
       d="m 457.38563,659.13385 c -0.23913,0.69917 -0.42369,1.41385 -0.55654,2.14033 -0.002,0.0732 -0.004,0.14636 -0.005,0.21955 0,0 -2.35678,1.2012 -2.35678,1.2012 l 0,0 c -0.002,-0.0892 -0.004,-0.17834 -0.006,-0.26751 0.13297,-0.73266 0.32246,-1.45066 0.525,-2.16671 0,0 2.39942,-1.12686 2.39942,-1.12686 z"
       inkscape:connector-curvature="0" />
    <path
       style="fill:#0055d4"
       id="path3291"
       d="m 457.42899,658.60356 c -0.0423,0.86711 -0.0108,1.73128 0.0682,2.59487 0.019,0.4365 0.15269,0.85408 0.22793,1.28177 0,0 -2.346,1.24371 -2.346,1.24371 l 0,0 c -0.0662,-0.43879 -0.20343,-0.86606 -0.2145,-1.31243 -0.0656,-0.86817 -0.0921,-1.73582 -0.0936,-2.60647 0,0 2.35798,-1.20145 2.35798,-1.20145 z"
       inkscape:connector-curvature="0" />
    <path
       style="fill:#5599ff"
       id="path3295"
       d="m 456.26109,660.2037 c -0.57935,0.1747 -1.15088,0.37254 -1.71334,0.59494 -0.19461,0.0687 -0.39201,0.1161 -0.5852,0.18854 0,0 2.09321,-1.62863 2.09321,-1.62863 l 0,0 c 0.19256,-0.0595 0.38589,-0.1174 0.57302,-0.19286 0.56804,-0.21615 1.1507,-0.39169 1.72565,-0.5883 0,0 -2.09334,1.62631 -2.09334,1.62631 z"
       inkscape:connector-curvature="0" />
    <path
       style="fill:#5599ff"
       id="path3297"
       d="m 456.47204,663.09747 c -1.34911,0.7669 2.83084,-1.69447 1.47239,-0.82871 -0.0844,0.0538 -0.16835,0.10848 -0.25252,0.16272 0,0 -2.45671,0.9591 -2.45671,0.9591 l 0,0 c 1.06475,-0.71048 2.17671,-1.35191 3.30814,-1.94995 0,0 -2.0713,1.65684 -2.0713,1.65684 z"
       inkscape:connector-curvature="0" />
    <path
       style="fill:#5599ff"
       id="path3299"
       d="m 459.29352,666.9924 c -0.43908,0.33421 -0.8457,0.70912 -1.28234,1.04593 -8.08151,4.65359 5.28207,-3.01955 -2.73571,1.57754 0,0 2.07009,-1.66479 2.07009,-1.66479 l 0,0 c -7.1431,4.13397 5.24734,-3.03959 -1.79886,1.05727 0.46601,-0.29157 0.84074,-0.70324 1.28931,-1.02006 0,0 2.45751,-0.99589 2.45751,-0.99589 z"
       inkscape:connector-curvature="0" />
    <path
       style="fill:#5599ff"
       id="path3301"
       d="m 456.98368,673.98479 c -0.3995,0.18106 -0.78315,0.39003 -1.17166,0.5929 0,0 2.05563,-1.65037 2.05563,-1.65037 l 0,0 c 0.39297,-0.20558 0.78977,-0.40296 1.19276,-0.5883 0,0 -2.07673,1.64577 -2.07673,1.64577 z"
       inkscape:connector-curvature="0" />
    <path
       style="fill:#5599ff"
       id="path3303"
       d="m 456.7968,666.4537 c -0.60027,0.15283 -1.16047,0.39548 -1.70367,0.68662 0.68677,-0.39393 1.37355,-0.78786 2.06032,-1.18179 0,0 -2.46957,0.95 -2.46957,0.95 l 0,0 c 0.82365,-0.47426 1.6473,-0.94853 2.47095,-1.42279 0.55479,-0.27981 1.14427,-0.46992 1.73532,-0.65835 0,0 -2.09335,1.62631 -2.09335,1.62631 z"
       inkscape:connector-curvature="0" />
    <path
       style="fill:#5599ff"
       id="path3305"
       d="m 457.13651,672.10337 c -0.53694,0.0436 -1.0637,0.16769 -1.57372,0.33652 -0.27891,0.0619 -0.51329,0.23158 -0.76738,0.35313 0,0 2.07397,-1.65972 2.07397,-1.65972 l 0,0 c 0.25177,-0.13285 0.51129,-0.24604 0.78889,-0.31421 0.52396,-0.15124 1.0651,-0.23731 1.60645,-0.29823 0,0 -2.12821,1.58251 -2.12821,1.58251 z"
       inkscape:connector-curvature="0" />
  </g>
</svg>
